<?xml version='1.0' encoding='us-ascii'?>
<svg width="1260" height="120" version="1.1" xmlns="http://www.w3.org/2000/svg"><style>text {
      font-family: Arial, Helvetica, sans-serif;
      font-size: 16px;
      font-weight: Thin;
      }
</style><rect width="1260" height="120" x="0" y="0" fill="#f9fc69" /><line x1="30" y1="0" x2="30" y2="70" style="stroke:black;stroke-width:1" /><text x="14" y="95" fill="black" font-size="16">1.0</text><line x1="47" y1="0" x2="47" y2="15" style="stroke:black;stroke-width:1" /><line x1="62" y1="0" x2="62" y2="15" style="stroke:black;stroke-width:1" /><line x1="76" y1="0" x2="76" y2="15" style="stroke:black;stroke-width:1" /><line x1="88" y1="0" x2="88" y2="15" style="stroke:black;stroke-width:1" /><line x1="100" y1="0" x2="100" y2="20" style="stroke:black;stroke-width:1" /><line x1="112" y1="0" x2="112" y2="15" style="stroke:black;stroke-width:1" /><line x1="122" y1="0" x2="122" y2="15" style="stroke:black;stroke-width:1" /><line x1="132" y1="0" x2="132" y2="15" style="stroke:black;stroke-width:1" /><line x1="142" y1="0" x2="142" y2="15" style="stroke:black;stroke-width:1" /><line x1="150" y1="0" x2="150" y2="50" style="stroke:black;stroke-width:1" /><text x="140" y="65" fill="black" font-size="10">2.0</text><line x1="159" y1="0" x2="159" y2="15" style="stroke:black;stroke-width:1" /><line x1="167" y1="0" x2="167" y2="15" style="stroke:black;stroke-width:1" /><line x1="175" y1="0" x2="175" y2="15" style="stroke:black;stroke-width:1" /><line x1="182" y1="0" x2="182" y2="15" style="stroke:black;stroke-width:1" /><line x1="189" y1="0" x2="189" y2="20" style="stroke:black;stroke-width:1" /><line x1="196" y1="0" x2="196" y2="15" style="stroke:black;stroke-width:1" /><line x1="203" y1="0" x2="203" y2="15" style="stroke:black;stroke-width:1" /><line x1="209" y1="0" x2="209" y2="15" style="stroke:black;stroke-width:1" /><line x1="215" y1="0" x2="215" y2="15" style="stroke:black;stroke-width:1" /><line x1="221" y1="0" x2="221" y2="50" style="stroke:black;stroke-width:1" /><text x="211" y="65" fill="black" font-size="10">3.0</text><line x1="248" y1="0" x2="248" y2="20" style="stroke:black;stroke-width:1" /><line x1="271" y1="0" x2="271" y2="50" style="stroke:black;stroke-width:1" /><text x="261" y="65" fill="black" font-size="10">4.0</text><line x1="291" y1="0" x2="291" y2="20" style="stroke:black;stroke-width:1" /><line x1="310" y1="0" x2="310" y2="50" style="stroke:black;stroke-width:1" /><text x="300" y="65" fill="black" font-size="10">5.0</text><line x1="326" y1="0" x2="326" y2="20" style="stroke:black;stroke-width:1" /><line x1="341" y1="0" x2="341" y2="50" style="stroke:black;stroke-width:1" /><line x1="355" y1="0" x2="355" y2="20" style="stroke:black;stroke-width:1" /><line x1="368" y1="0" x2="368" y2="50" style="stroke:black;stroke-width:1" /><line x1="380" y1="0" x2="380" y2="20" style="stroke:black;stroke-width:1" /><line x1="391" y1="0" x2="391" y2="50" style="stroke:black;stroke-width:1" /><line x1="402" y1="0" x2="402" y2="20" style="stroke:black;stroke-width:1" /><line x1="412" y1="0" x2="412" y2="50" style="stroke:black;stroke-width:1" /><line x1="421" y1="0" x2="421" y2="20" style="stroke:black;stroke-width:1" /><line x1="430" y1="0" x2="430" y2="70" style="stroke:black;stroke-width:1" /><text x="409" y="95" fill="black" font-size="16">10.0</text><line x1="447" y1="0" x2="447" y2="15" style="stroke:black;stroke-width:1" /><line x1="462" y1="0" x2="462" y2="15" style="stroke:black;stroke-width:1" /><line x1="476" y1="0" x2="476" y2="15" style="stroke:black;stroke-width:1" /><line x1="488" y1="0" x2="488" y2="15" style="stroke:black;stroke-width:1" /><line x1="500" y1="0" x2="500" y2="20" style="stroke:black;stroke-width:1" /><line x1="512" y1="0" x2="512" y2="15" style="stroke:black;stroke-width:1" /><line x1="522" y1="0" x2="522" y2="15" style="stroke:black;stroke-width:1" /><line x1="532" y1="0" x2="532" y2="15" style="stroke:black;stroke-width:1" /><line x1="542" y1="0" x2="542" y2="15" style="stroke:black;stroke-width:1" /><line x1="550" y1="0" x2="550" y2="50" style="stroke:black;stroke-width:1" /><text x="537" y="65" fill="black" font-size="10">20.0</text><line x1="559" y1="0" x2="559" y2="15" style="stroke:black;stroke-width:1" /><line x1="567" y1="0" x2="567" y2="15" style="stroke:black;stroke-width:1" /><line x1="575" y1="0" x2="575" y2="15" style="stroke:black;stroke-width:1" /><line x1="582" y1="0" x2="582" y2="15" style="stroke:black;stroke-width:1" /><line x1="589" y1="0" x2="589" y2="20" style="stroke:black;stroke-width:1" /><line x1="596" y1="0" x2="596" y2="15" style="stroke:black;stroke-width:1" /><line x1="603" y1="0" x2="603" y2="15" style="stroke:black;stroke-width:1" /><line x1="609" y1="0" x2="609" y2="15" style="stroke:black;stroke-width:1" /><line x1="615" y1="0" x2="615" y2="15" style="stroke:black;stroke-width:1" /><line x1="621" y1="0" x2="621" y2="50" style="stroke:black;stroke-width:1" /><text x="608" y="65" fill="black" font-size="10">30.0</text><line x1="648" y1="0" x2="648" y2="20" style="stroke:black;stroke-width:1" /><line x1="671" y1="0" x2="671" y2="50" style="stroke:black;stroke-width:1" /><text x="658" y="65" fill="black" font-size="10">40.0</text><line x1="691" y1="0" x2="691" y2="20" style="stroke:black;stroke-width:1" /><line x1="710" y1="0" x2="710" y2="50" style="stroke:black;stroke-width:1" /><text x="697" y="65" fill="black" font-size="10">50.0</text><line x1="726" y1="0" x2="726" y2="20" style="stroke:black;stroke-width:1" /><line x1="741" y1="0" x2="741" y2="50" style="stroke:black;stroke-width:1" /><line x1="755" y1="0" x2="755" y2="20" style="stroke:black;stroke-width:1" /><line x1="768" y1="0" x2="768" y2="50" style="stroke:black;stroke-width:1" /><line x1="780" y1="0" x2="780" y2="20" style="stroke:black;stroke-width:1" /><line x1="791" y1="0" x2="791" y2="50" style="stroke:black;stroke-width:1" /><line x1="802" y1="0" x2="802" y2="20" style="stroke:black;stroke-width:1" /><line x1="812" y1="0" x2="812" y2="50" style="stroke:black;stroke-width:1" /><line x1="821" y1="0" x2="821" y2="20" style="stroke:black;stroke-width:1" /><line x1="830" y1="0" x2="830" y2="70" style="stroke:black;stroke-width:1" /><text x="803" y="95" fill="black" font-size="16">100.0</text><line x1="847" y1="0" x2="847" y2="15" style="stroke:black;stroke-width:1" /><line x1="862" y1="0" x2="862" y2="15" style="stroke:black;stroke-width:1" /><line x1="876" y1="0" x2="876" y2="15" style="stroke:black;stroke-width:1" /><line x1="888" y1="0" x2="888" y2="15" style="stroke:black;stroke-width:1" /><line x1="900" y1="0" x2="900" y2="20" style="stroke:black;stroke-width:1" /><line x1="912" y1="0" x2="912" y2="15" style="stroke:black;stroke-width:1" /><line x1="922" y1="0" x2="922" y2="15" style="stroke:black;stroke-width:1" /><line x1="932" y1="0" x2="932" y2="15" style="stroke:black;stroke-width:1" /><line x1="942" y1="0" x2="942" y2="15" style="stroke:black;stroke-width:1" /><line x1="950" y1="0" x2="950" y2="50" style="stroke:black;stroke-width:1" /><text x="933" y="65" fill="black" font-size="10">200.0</text><line x1="959" y1="0" x2="959" y2="15" style="stroke:black;stroke-width:1" /><line x1="967" y1="0" x2="967" y2="15" style="stroke:black;stroke-width:1" /><line x1="975" y1="0" x2="975" y2="15" style="stroke:black;stroke-width:1" /><line x1="982" y1="0" x2="982" y2="15" style="stroke:black;stroke-width:1" /><line x1="989" y1="0" x2="989" y2="20" style="stroke:black;stroke-width:1" /><line x1="996" y1="0" x2="996" y2="15" style="stroke:black;stroke-width:1" /><line x1="1003" y1="0" x2="1003" y2="15" style="stroke:black;stroke-width:1" /><line x1="1009" y1="0" x2="1009" y2="15" style="stroke:black;stroke-width:1" /><line x1="1015" y1="0" x2="1015" y2="15" style="stroke:black;stroke-width:1" /><line x1="1021" y1="0" x2="1021" y2="50" style="stroke:black;stroke-width:1" /><text x="1004" y="65" fill="black" font-size="10">300.0</text><line x1="1048" y1="0" x2="1048" y2="20" style="stroke:black;stroke-width:1" /><line x1="1071" y1="0" x2="1071" y2="50" style="stroke:black;stroke-width:1" /><text x="1054" y="65" fill="black" font-size="10">400.0</text><line x1="1091" y1="0" x2="1091" y2="20" style="stroke:black;stroke-width:1" /><line x1="1110" y1="0" x2="1110" y2="50" style="stroke:black;stroke-width:1" /><line x1="1126" y1="0" x2="1126" y2="20" style="stroke:black;stroke-width:1" /><line x1="1141" y1="0" x2="1141" y2="50" style="stroke:black;stroke-width:1" /><line x1="1155" y1="0" x2="1155" y2="20" style="stroke:black;stroke-width:1" /><line x1="1168" y1="0" x2="1168" y2="50" style="stroke:black;stroke-width:1" /><line x1="1180" y1="0" x2="1180" y2="20" style="stroke:black;stroke-width:1" /><line x1="1191" y1="0" x2="1191" y2="50" style="stroke:black;stroke-width:1" /><line x1="1202" y1="0" x2="1202" y2="20" style="stroke:black;stroke-width:1" /><line x1="1212" y1="0" x2="1212" y2="50" style="stroke:black;stroke-width:1" /><line x1="1221" y1="0" x2="1221" y2="20" style="stroke:black;stroke-width:1" /><line x1="1230" y1="0" x2="1230" y2="70" style="stroke:black;stroke-width:1" /><text x="1198" y="95" fill="black" font-size="16">1000.0</text></svg>