<?xml version='1.0' encoding='us-ascii'?>
<svg width="1139.4117639871688" height="240" version="1.1" xmlns="http://www.w3.org/2000/svg"><style>text {
          font-family: Arial, Helvetica, sans-serif;
          font-weight: Thin;
          }
    </style><rect width="1000" height="120" x="0" y="0" fill="#f9fc69" /><line x1="0" y1="0" x2="1000" y2="0" style="stroke:black;stroke-width:1" /><line x1="0" y1="120" x2="1000" y2="120" style="stroke:black;stroke-width:1" /><rect width="1000" height="120" x="139.41176398716885" y="120" fill="#f9fc69" /><line x1="139.41176398716885" y1="120" x2="1139.4117639871688" y2="120" style="stroke:black;stroke-width:1" /><line x1="320.92699609758307" y1="0" x2="320.92699609758307" y2="240" style="stroke:grey;stroke-width:1" /><g transform="translate(0 20)"><text x="8" y="70" fill="black" font-size="24">C</text><text x="493.5" y="53" fill="black" font-size="16">&#960;</text><line x1="497.5" y1="100" x2="497.5" y2="60" style="stroke:black;stroke-width:1" /><text x="962" y="68" fill="black" font-size="16">x</text><line x1="50.0" y1="100" x2="50.0" y2="30" style="stroke:black;stroke-width:1" /><text x="46" y="20" fill="black" font-size="18">1</text><line x1="69.0" y1="100" x2="69.0" y2="80" style="stroke:black;stroke-width:1" /><line x1="87.25" y1="100" x2="87.25" y2="70" style="stroke:black;stroke-width:1" /><text x="81.25341664240256" y="67" fill="black" font-size="12">1.1</text><line x1="104.75" y1="100" x2="104.75" y2="80" style="stroke:black;stroke-width:1" /><line x1="121.25" y1="100" x2="121.25" y2="70" style="stroke:black;stroke-width:1" /><text x="115.26312144286234" y="67" fill="black" font-size="12">1.2</text><line x1="137.25" y1="100" x2="137.25" y2="80" style="stroke:black;stroke-width:1" /><line x1="152.5" y1="100" x2="152.5" y2="70" style="stroke:black;stroke-width:1" /><text x="146.5490170761531" y="67" fill="black" font-size="12">1.3</text><line x1="167.25" y1="100" x2="167.25" y2="80" style="stroke:black;stroke-width:1" /><line x1="181.5" y1="100" x2="181.5" y2="70" style="stroke:black;stroke-width:1" /><text x="175.51523211041422" y="67" fill="black" font-size="12">1.4</text><line x1="195.25" y1="100" x2="195.25" y2="80" style="stroke:black;stroke-width:1" /><line x1="208.5" y1="100" x2="208.5" y2="50" style="stroke:black;stroke-width:1" /><text x="202.4821331501131" y="45" fill="black" font-size="14">1.5</text><line x1="221.25" y1="100" x2="221.25" y2="80" style="stroke:black;stroke-width:1" /><line x1="233.75" y1="100" x2="233.75" y2="70" style="stroke:black;stroke-width:1" /><text x="227.70798439033234" y="67" fill="black" font-size="12">1.6</text><line x1="245.75" y1="100" x2="245.75" y2="80" style="stroke:black;stroke-width:1" /><line x1="257.5" y1="100" x2="257.5" y2="70" style="stroke:black;stroke-width:1" /><text x="251.40402924044656" y="67" fill="black" font-size="12">1.7</text><line x1="268.75" y1="100" x2="268.75" y2="80" style="stroke:black;stroke-width:1" /><line x1="279.75" y1="100" x2="279.75" y2="70" style="stroke:black;stroke-width:1" /><text x="273.74525459297547" y="67" fill="black" font-size="12">1.8</text><line x1="290.5" y1="100" x2="290.5" y2="80" style="stroke:black;stroke-width:1" /><line x1="301.0" y1="100" x2="301.0" y2="70" style="stroke:black;stroke-width:1" /><text x="294.878240857546" y="67" fill="black" font-size="12">1.9</text><line x1="311.0" y1="100" x2="311.0" y2="80" style="stroke:black;stroke-width:1" /><line x1="321.0" y1="100" x2="321.0" y2="40" style="stroke:black;stroke-width:1" /><text x="317" y="34" fill="black" font-size="18">2</text><line x1="330.5" y1="100" x2="330.5" y2="80" style="stroke:black;stroke-width:1" /><line x1="340.0" y1="100" x2="340.0" y2="70" style="stroke:black;stroke-width:1" /><line x1="349.25" y1="100" x2="349.25" y2="80" style="stroke:black;stroke-width:1" /><line x1="358.25" y1="100" x2="358.25" y2="70" style="stroke:black;stroke-width:1" /><line x1="367.0" y1="100" x2="367.0" y2="80" style="stroke:black;stroke-width:1" /><line x1="375.5" y1="100" x2="375.5" y2="70" style="stroke:black;stroke-width:1" /><line x1="384.0" y1="100" x2="384.0" y2="80" style="stroke:black;stroke-width:1" /><line x1="392.25" y1="100" x2="392.25" y2="70" style="stroke:black;stroke-width:1" /><line x1="400.25" y1="100" x2="400.25" y2="80" style="stroke:black;stroke-width:1" /><line x1="408.25" y1="100" x2="408.25" y2="50" style="stroke:black;stroke-width:1" /><text x="402.14600780483386" y="45" fill="black" font-size="14">2.5</text><line x1="416.0" y1="100" x2="416.0" y2="80" style="stroke:black;stroke-width:1" /><line x1="423.5" y1="100" x2="423.5" y2="70" style="stroke:black;stroke-width:1" /><line x1="431.0" y1="100" x2="431.0" y2="80" style="stroke:black;stroke-width:1" /><line x1="438.25" y1="100" x2="438.25" y2="70" style="stroke:black;stroke-width:1" /><line x1="445.5" y1="100" x2="445.5" y2="80" style="stroke:black;stroke-width:1" /><line x1="452.5" y1="100" x2="452.5" y2="70" style="stroke:black;stroke-width:1" /><line x1="459.25" y1="100" x2="459.25" y2="80" style="stroke:black;stroke-width:1" /><line x1="466.25" y1="100" x2="466.25" y2="70" style="stroke:black;stroke-width:1" /><line x1="472.75" y1="100" x2="472.75" y2="80" style="stroke:black;stroke-width:1" /><line x1="479.5" y1="100" x2="479.5" y2="40" style="stroke:black;stroke-width:1" /><text x="475" y="34" fill="black" font-size="18">3</text><line x1="485.75" y1="100" x2="485.75" y2="80" style="stroke:black;stroke-width:1" /><line x1="492.25" y1="100" x2="492.25" y2="70" style="stroke:black;stroke-width:1" /><line x1="498.5" y1="100" x2="498.5" y2="80" style="stroke:black;stroke-width:1" /><line x1="504.75" y1="100" x2="504.75" y2="70" style="stroke:black;stroke-width:1" /><line x1="510.75" y1="100" x2="510.75" y2="80" style="stroke:black;stroke-width:1" /><line x1="516.75" y1="100" x2="516.75" y2="70" style="stroke:black;stroke-width:1" /><line x1="522.5" y1="100" x2="522.5" y2="80" style="stroke:black;stroke-width:1" /><line x1="528.25" y1="100" x2="528.25" y2="70" style="stroke:black;stroke-width:1" /><line x1="534.0" y1="100" x2="534.0" y2="80" style="stroke:black;stroke-width:1" /><line x1="539.75" y1="100" x2="539.75" y2="50" style="stroke:black;stroke-width:1" /><text x="533.6612399152481" y="45" fill="black" font-size="14">3.5</text><line x1="545.25" y1="100" x2="545.25" y2="80" style="stroke:black;stroke-width:1" /><line x1="550.75" y1="100" x2="550.75" y2="70" style="stroke:black;stroke-width:1" /><line x1="556.0" y1="100" x2="556.0" y2="80" style="stroke:black;stroke-width:1" /><line x1="561.5" y1="100" x2="561.5" y2="70" style="stroke:black;stroke-width:1" /><line x1="566.75" y1="100" x2="566.75" y2="80" style="stroke:black;stroke-width:1" /><line x1="571.75" y1="100" x2="571.75" y2="70" style="stroke:black;stroke-width:1" /><line x1="577.0" y1="100" x2="577.0" y2="80" style="stroke:black;stroke-width:1" /><line x1="582.0" y1="100" x2="582.0" y2="70" style="stroke:black;stroke-width:1" /><line x1="587.0" y1="100" x2="587.0" y2="80" style="stroke:black;stroke-width:1" /><line x1="591.75" y1="100" x2="591.75" y2="40" style="stroke:black;stroke-width:1" /><text x="588" y="34" fill="black" font-size="18">4</text><line x1="601.5" y1="100" x2="601.5" y2="70" style="stroke:black;stroke-width:1" /><line x1="611.0" y1="100" x2="611.0" y2="70" style="stroke:black;stroke-width:1" /><line x1="620.0" y1="100" x2="620.0" y2="70" style="stroke:black;stroke-width:1" /><line x1="629.0" y1="100" x2="629.0" y2="70" style="stroke:black;stroke-width:1" /><line x1="638.0" y1="100" x2="638.0" y2="50" style="stroke:black;stroke-width:1" /><text x="631.8912623978093" y="45" fill="black" font-size="14">4.5</text><line x1="646.5" y1="100" x2="646.5" y2="70" style="stroke:black;stroke-width:1" /><line x1="655.0" y1="100" x2="655.0" y2="70" style="stroke:black;stroke-width:1" /><line x1="663.0" y1="100" x2="663.0" y2="70" style="stroke:black;stroke-width:1" /><line x1="671.25" y1="100" x2="671.25" y2="70" style="stroke:black;stroke-width:1" /><line x1="679.0" y1="100" x2="679.0" y2="40" style="stroke:black;stroke-width:1" /><text x="675" y="34" fill="black" font-size="18">5</text><line x1="686.75" y1="100" x2="686.75" y2="70" style="stroke:black;stroke-width:1" /><line x1="694.5" y1="100" x2="694.5" y2="70" style="stroke:black;stroke-width:1" /><line x1="701.75" y1="100" x2="701.75" y2="70" style="stroke:black;stroke-width:1" /><line x1="709.25" y1="100" x2="709.25" y2="70" style="stroke:black;stroke-width:1" /><line x1="716.25" y1="100" x2="716.25" y2="50" style="stroke:black;stroke-width:1" /><text x="710.3264205448195" y="45" fill="black" font-size="14">5.5</text><line x1="723.25" y1="100" x2="723.25" y2="70" style="stroke:black;stroke-width:1" /><line x1="730.25" y1="100" x2="730.25" y2="70" style="stroke:black;stroke-width:1" /><line x1="737.0" y1="100" x2="737.0" y2="70" style="stroke:black;stroke-width:1" /><line x1="743.75" y1="100" x2="743.75" y2="70" style="stroke:black;stroke-width:1" /><line x1="750.25" y1="100" x2="750.25" y2="40" style="stroke:black;stroke-width:1" /><text x="746" y="34" fill="black" font-size="18">6</text><line x1="756.75" y1="100" x2="756.75" y2="70" style="stroke:black;stroke-width:1" /><line x1="763.25" y1="100" x2="763.25" y2="70" style="stroke:black;stroke-width:1" /><line x1="769.5" y1="100" x2="769.5" y2="70" style="stroke:black;stroke-width:1" /><line x1="775.5" y1="100" x2="775.5" y2="70" style="stroke:black;stroke-width:1" /><line x1="781.5" y1="100" x2="781.5" y2="50" style="stroke:black;stroke-width:1" /><text x="775.62202097857" y="45" fill="black" font-size="14">6.5</text><line x1="787.5" y1="100" x2="787.5" y2="70" style="stroke:black;stroke-width:1" /><line x1="793.5" y1="100" x2="793.5" y2="70" style="stroke:black;stroke-width:1" /><line x1="799.25" y1="100" x2="799.25" y2="70" style="stroke:black;stroke-width:1" /><line x1="805.0" y1="100" x2="805.0" y2="70" style="stroke:black;stroke-width:1" /><line x1="810.5" y1="100" x2="810.5" y2="40" style="stroke:black;stroke-width:1" /><text x="807" y="34" fill="black" font-size="18">7</text><line x1="816.25" y1="100" x2="816.25" y2="70" style="stroke:black;stroke-width:1" /><line x1="821.5" y1="100" x2="821.5" y2="70" style="stroke:black;stroke-width:1" /><line x1="827.0" y1="100" x2="827.0" y2="70" style="stroke:black;stroke-width:1" /><line x1="832.25" y1="100" x2="832.25" y2="70" style="stroke:black;stroke-width:1" /><line x1="837.5" y1="100" x2="837.5" y2="50" style="stroke:black;stroke-width:1" /><text x="831.5551370525301" y="45" fill="black" font-size="14">7.5</text><line x1="842.75" y1="100" x2="842.75" y2="70" style="stroke:black;stroke-width:1" /><line x1="847.75" y1="100" x2="847.75" y2="70" style="stroke:black;stroke-width:1" /><line x1="853.0" y1="100" x2="853.0" y2="70" style="stroke:black;stroke-width:1" /><line x1="857.75" y1="100" x2="857.75" y2="70" style="stroke:black;stroke-width:1" /><line x1="862.75" y1="100" x2="862.75" y2="40" style="stroke:black;stroke-width:1" /><text x="859" y="34" fill="black" font-size="18">8</text><line x1="867.75" y1="100" x2="867.75" y2="70" style="stroke:black;stroke-width:1" /><line x1="872.5" y1="100" x2="872.5" y2="70" style="stroke:black;stroke-width:1" /><line x1="877.25" y1="100" x2="877.25" y2="70" style="stroke:black;stroke-width:1" /><line x1="881.75" y1="100" x2="881.75" y2="70" style="stroke:black;stroke-width:1" /><line x1="886.5" y1="100" x2="886.5" y2="50" style="stroke:black;stroke-width:1" /><text x="880.4770331428634" y="45" fill="black" font-size="14">8.5</text><line x1="891.0" y1="100" x2="891.0" y2="70" style="stroke:black;stroke-width:1" /><line x1="895.5" y1="100" x2="895.5" y2="70" style="stroke:black;stroke-width:1" /><line x1="900.0" y1="100" x2="900.0" y2="70" style="stroke:black;stroke-width:1" /><line x1="904.5" y1="100" x2="904.5" y2="70" style="stroke:black;stroke-width:1" /><line x1="908.75" y1="100" x2="908.75" y2="40" style="stroke:black;stroke-width:1" /><text x="905" y="34" fill="black" font-size="18">9</text><line x1="913.25" y1="100" x2="913.25" y2="70" style="stroke:black;stroke-width:1" /><line x1="917.5" y1="100" x2="917.5" y2="70" style="stroke:black;stroke-width:1" /><line x1="921.75" y1="100" x2="921.75" y2="70" style="stroke:black;stroke-width:1" /><line x1="925.75" y1="100" x2="925.75" y2="70" style="stroke:black;stroke-width:1" /><line x1="930.0" y1="100" x2="930.0" y2="50" style="stroke:black;stroke-width:1" /><text x="923.951244759963" y="45" fill="black" font-size="14">9.5</text><line x1="934.0" y1="100" x2="934.0" y2="70" style="stroke:black;stroke-width:1" /><line x1="938.0" y1="100" x2="938.0" y2="70" style="stroke:black;stroke-width:1" /><line x1="942.0" y1="100" x2="942.0" y2="70" style="stroke:black;stroke-width:1" /><line x1="946.0" y1="100" x2="946.0" y2="70" style="stroke:black;stroke-width:1" /><line x1="950.0" y1="100" x2="950.0" y2="30" style="stroke:black;stroke-width:1" /><text x="944.0" y="20" fill="black" font-size="18">10</text></g><g transform="translate(0 120)"><text x="147.41176398716885" y="40" fill="black" font-size="24">D</text><text x="632.75" y="55" fill="black" font-size="16">&#960;</text><line x1="636.75" y1="0" x2="636.75" y2="40" style="stroke:black;stroke-width:1" /><text x="1101.4117639871688" y="40" fill="black" font-size="16">x</text><line x1="189.5" y1="0" x2="189.5" y2="70" style="stroke:black;stroke-width:1" /><text x="185" y="95" fill="black" font-size="18">1</text><line x1="208.5" y1="0" x2="208.5" y2="20" style="stroke:black;stroke-width:1" /><line x1="226.75" y1="0" x2="226.75" y2="30" style="stroke:black;stroke-width:1" /><text x="221" y="40" fill="black" font-size="12">1.1</text><line x1="244.0" y1="0" x2="244.0" y2="20" style="stroke:black;stroke-width:1" /><line x1="260.75" y1="0" x2="260.75" y2="30" style="stroke:black;stroke-width:1" /><text x="255" y="40" fill="black" font-size="12">1.2</text><line x1="276.75" y1="0" x2="276.75" y2="20" style="stroke:black;stroke-width:1" /><line x1="292.0" y1="0" x2="292.0" y2="30" style="stroke:black;stroke-width:1" /><text x="286" y="40" fill="black" font-size="12">1.3</text><line x1="306.75" y1="0" x2="306.75" y2="20" style="stroke:black;stroke-width:1" /><line x1="321.0" y1="0" x2="321.0" y2="30" style="stroke:black;stroke-width:1" /><text x="315" y="40" fill="black" font-size="12">1.4</text><line x1="334.75" y1="0" x2="334.75" y2="20" style="stroke:black;stroke-width:1" /><line x1="348.0" y1="0" x2="348.0" y2="50" style="stroke:black;stroke-width:1" /><text x="342" y="65" fill="black" font-size="14">1.5</text><line x1="360.75" y1="0" x2="360.75" y2="20" style="stroke:black;stroke-width:1" /><line x1="373.0" y1="0" x2="373.0" y2="30" style="stroke:black;stroke-width:1" /><text x="367" y="40" fill="black" font-size="12">1.6</text><line x1="385.25" y1="0" x2="385.25" y2="20" style="stroke:black;stroke-width:1" /><line x1="396.75" y1="0" x2="396.75" y2="30" style="stroke:black;stroke-width:1" /><text x="391" y="40" fill="black" font-size="12">1.7</text><line x1="408.25" y1="0" x2="408.25" y2="20" style="stroke:black;stroke-width:1" /><line x1="419.25" y1="0" x2="419.25" y2="30" style="stroke:black;stroke-width:1" /><text x="413" y="40" fill="black" font-size="12">1.8</text><line x1="429.75" y1="0" x2="429.75" y2="20" style="stroke:black;stroke-width:1" /><line x1="440.25" y1="0" x2="440.25" y2="30" style="stroke:black;stroke-width:1" /><text x="434" y="40" fill="black" font-size="12">1.9</text><line x1="450.5" y1="0" x2="450.5" y2="20" style="stroke:black;stroke-width:1" /><line x1="460.25" y1="0" x2="460.25" y2="60" style="stroke:black;stroke-width:1" /><text x="456" y="80" fill="black" font-size="18">2</text><line x1="470.0" y1="0" x2="470.0" y2="20" style="stroke:black;stroke-width:1" /><line x1="479.5" y1="0" x2="479.5" y2="30" style="stroke:black;stroke-width:1" /><line x1="488.5" y1="0" x2="488.5" y2="20" style="stroke:black;stroke-width:1" /><line x1="497.5" y1="0" x2="497.5" y2="30" style="stroke:black;stroke-width:1" /><line x1="506.5" y1="0" x2="506.5" y2="20" style="stroke:black;stroke-width:1" /><line x1="515.0" y1="0" x2="515.0" y2="30" style="stroke:black;stroke-width:1" /><line x1="523.25" y1="0" x2="523.25" y2="20" style="stroke:black;stroke-width:1" /><line x1="531.5" y1="0" x2="531.5" y2="30" style="stroke:black;stroke-width:1" /><line x1="539.75" y1="0" x2="539.75" y2="20" style="stroke:black;stroke-width:1" /><line x1="547.5" y1="0" x2="547.5" y2="50" style="stroke:black;stroke-width:1" /><text x="542" y="65" fill="black" font-size="14">2.5</text><line x1="555.25" y1="0" x2="555.25" y2="20" style="stroke:black;stroke-width:1" /><line x1="563.0" y1="0" x2="563.0" y2="30" style="stroke:black;stroke-width:1" /><line x1="570.25" y1="0" x2="570.25" y2="20" style="stroke:black;stroke-width:1" /><line x1="577.75" y1="0" x2="577.75" y2="30" style="stroke:black;stroke-width:1" /><line x1="584.75" y1="0" x2="584.75" y2="20" style="stroke:black;stroke-width:1" /><line x1="591.75" y1="0" x2="591.75" y2="30" style="stroke:black;stroke-width:1" /><line x1="598.75" y1="0" x2="598.75" y2="20" style="stroke:black;stroke-width:1" /><line x1="605.5" y1="0" x2="605.5" y2="30" style="stroke:black;stroke-width:1" /><line x1="612.25" y1="0" x2="612.25" y2="20" style="stroke:black;stroke-width:1" /><line x1="618.75" y1="0" x2="618.75" y2="60" style="stroke:black;stroke-width:1" /><text x="615" y="80" fill="black" font-size="18">3</text><line x1="625.25" y1="0" x2="625.25" y2="20" style="stroke:black;stroke-width:1" /><line x1="631.75" y1="0" x2="631.75" y2="30" style="stroke:black;stroke-width:1" /><line x1="638.0" y1="0" x2="638.0" y2="20" style="stroke:black;stroke-width:1" /><line x1="644.0" y1="0" x2="644.0" y2="30" style="stroke:black;stroke-width:1" /><line x1="650.0" y1="0" x2="650.0" y2="20" style="stroke:black;stroke-width:1" /><line x1="656.0" y1="0" x2="656.0" y2="30" style="stroke:black;stroke-width:1" /><line x1="662.0" y1="0" x2="662.0" y2="20" style="stroke:black;stroke-width:1" /><line x1="667.75" y1="0" x2="667.75" y2="30" style="stroke:black;stroke-width:1" /><line x1="673.5" y1="0" x2="673.5" y2="20" style="stroke:black;stroke-width:1" /><line x1="679.0" y1="0" x2="679.0" y2="50" style="stroke:black;stroke-width:1" /><text x="673" y="65" fill="black" font-size="14">3.5</text><line x1="684.5" y1="0" x2="684.5" y2="20" style="stroke:black;stroke-width:1" /><line x1="690.0" y1="0" x2="690.0" y2="30" style="stroke:black;stroke-width:1" /><line x1="695.5" y1="0" x2="695.5" y2="20" style="stroke:black;stroke-width:1" /><line x1="700.75" y1="0" x2="700.75" y2="30" style="stroke:black;stroke-width:1" /><line x1="706.0" y1="0" x2="706.0" y2="20" style="stroke:black;stroke-width:1" /><line x1="711.25" y1="0" x2="711.25" y2="30" style="stroke:black;stroke-width:1" /><line x1="716.25" y1="0" x2="716.25" y2="20" style="stroke:black;stroke-width:1" /><line x1="721.25" y1="0" x2="721.25" y2="30" style="stroke:black;stroke-width:1" /><line x1="726.25" y1="0" x2="726.25" y2="20" style="stroke:black;stroke-width:1" /><line x1="731.25" y1="0" x2="731.25" y2="60" style="stroke:black;stroke-width:1" /><text x="727" y="80" fill="black" font-size="18">4</text><line x1="741.0" y1="0" x2="741.0" y2="30" style="stroke:black;stroke-width:1" /><line x1="750.25" y1="0" x2="750.25" y2="30" style="stroke:black;stroke-width:1" /><line x1="759.5" y1="0" x2="759.5" y2="30" style="stroke:black;stroke-width:1" /><line x1="768.5" y1="0" x2="768.5" y2="30" style="stroke:black;stroke-width:1" /><line x1="777.25" y1="0" x2="777.25" y2="50" style="stroke:black;stroke-width:1" /><text x="771" y="65" fill="black" font-size="14">4.5</text><line x1="786.0" y1="0" x2="786.0" y2="30" style="stroke:black;stroke-width:1" /><line x1="794.25" y1="0" x2="794.25" y2="30" style="stroke:black;stroke-width:1" /><line x1="802.5" y1="0" x2="802.5" y2="30" style="stroke:black;stroke-width:1" /><line x1="810.5" y1="0" x2="810.5" y2="30" style="stroke:black;stroke-width:1" /><line x1="818.5" y1="0" x2="818.5" y2="60" style="stroke:black;stroke-width:1" /><text x="814" y="80" fill="black" font-size="18">5</text><line x1="826.25" y1="0" x2="826.25" y2="30" style="stroke:black;stroke-width:1" /><line x1="833.75" y1="0" x2="833.75" y2="30" style="stroke:black;stroke-width:1" /><line x1="841.25" y1="0" x2="841.25" y2="30" style="stroke:black;stroke-width:1" /><line x1="848.5" y1="0" x2="848.5" y2="30" style="stroke:black;stroke-width:1" /><line x1="855.75" y1="0" x2="855.75" y2="50" style="stroke:black;stroke-width:1" /><text x="850" y="65" fill="black" font-size="14">5.5</text><line x1="862.75" y1="0" x2="862.75" y2="30" style="stroke:black;stroke-width:1" /><line x1="869.75" y1="0" x2="869.75" y2="30" style="stroke:black;stroke-width:1" /><line x1="876.5" y1="0" x2="876.5" y2="30" style="stroke:black;stroke-width:1" /><line x1="883.25" y1="0" x2="883.25" y2="30" style="stroke:black;stroke-width:1" /><line x1="889.75" y1="0" x2="889.75" y2="60" style="stroke:black;stroke-width:1" /><text x="886" y="80" fill="black" font-size="18">6</text><line x1="896.25" y1="0" x2="896.25" y2="30" style="stroke:black;stroke-width:1" /><line x1="902.5" y1="0" x2="902.5" y2="30" style="stroke:black;stroke-width:1" /><line x1="908.75" y1="0" x2="908.75" y2="30" style="stroke:black;stroke-width:1" /><line x1="915.0" y1="0" x2="915.0" y2="30" style="stroke:black;stroke-width:1" /><line x1="921.0" y1="0" x2="921.0" y2="50" style="stroke:black;stroke-width:1" /><text x="915" y="65" fill="black" font-size="14">6.5</text><line x1="927.0" y1="0" x2="927.0" y2="30" style="stroke:black;stroke-width:1" /><line x1="933.0" y1="0" x2="933.0" y2="30" style="stroke:black;stroke-width:1" /><line x1="938.75" y1="0" x2="938.75" y2="30" style="stroke:black;stroke-width:1" /><line x1="944.5" y1="0" x2="944.5" y2="30" style="stroke:black;stroke-width:1" /><line x1="950.0" y1="0" x2="950.0" y2="60" style="stroke:black;stroke-width:1" /><text x="946" y="80" fill="black" font-size="18">7</text><line x1="955.5" y1="0" x2="955.5" y2="30" style="stroke:black;stroke-width:1" /><line x1="961.0" y1="0" x2="961.0" y2="30" style="stroke:black;stroke-width:1" /><line x1="966.5" y1="0" x2="966.5" y2="30" style="stroke:black;stroke-width:1" /><line x1="971.75" y1="0" x2="971.75" y2="30" style="stroke:black;stroke-width:1" /><line x1="977.0" y1="0" x2="977.0" y2="50" style="stroke:black;stroke-width:1" /><text x="971" y="65" fill="black" font-size="14">7.5</text><line x1="982.25" y1="0" x2="982.25" y2="30" style="stroke:black;stroke-width:1" /><line x1="987.25" y1="0" x2="987.25" y2="30" style="stroke:black;stroke-width:1" /><line x1="992.25" y1="0" x2="992.25" y2="30" style="stroke:black;stroke-width:1" /><line x1="997.25" y1="0" x2="997.25" y2="30" style="stroke:black;stroke-width:1" /><line x1="1002.25" y1="0" x2="1002.25" y2="60" style="stroke:black;stroke-width:1" /><text x="998" y="80" fill="black" font-size="18">8</text><line x1="1007.0" y1="0" x2="1007.0" y2="30" style="stroke:black;stroke-width:1" /><line x1="1011.75" y1="0" x2="1011.75" y2="30" style="stroke:black;stroke-width:1" /><line x1="1016.5" y1="0" x2="1016.5" y2="30" style="stroke:black;stroke-width:1" /><line x1="1021.25" y1="0" x2="1021.25" y2="30" style="stroke:black;stroke-width:1" /><line x1="1026.0" y1="0" x2="1026.0" y2="50" style="stroke:black;stroke-width:1" /><text x="1020" y="65" fill="black" font-size="14">8.5</text><line x1="1030.5" y1="0" x2="1030.5" y2="30" style="stroke:black;stroke-width:1" /><line x1="1035.0" y1="0" x2="1035.0" y2="30" style="stroke:black;stroke-width:1" /><line x1="1039.5" y1="0" x2="1039.5" y2="30" style="stroke:black;stroke-width:1" /><line x1="1043.75" y1="0" x2="1043.75" y2="30" style="stroke:black;stroke-width:1" /><line x1="1048.25" y1="0" x2="1048.25" y2="60" style="stroke:black;stroke-width:1" /><text x="1044" y="80" fill="black" font-size="18">9</text><line x1="1052.5" y1="0" x2="1052.5" y2="30" style="stroke:black;stroke-width:1" /><line x1="1056.75" y1="0" x2="1056.75" y2="30" style="stroke:black;stroke-width:1" /><line x1="1061.0" y1="0" x2="1061.0" y2="30" style="stroke:black;stroke-width:1" /><line x1="1065.25" y1="0" x2="1065.25" y2="30" style="stroke:black;stroke-width:1" /><line x1="1069.25" y1="0" x2="1069.25" y2="50" style="stroke:black;stroke-width:1" /><text x="1063" y="65" fill="black" font-size="14">9.5</text><line x1="1073.5" y1="0" x2="1073.5" y2="30" style="stroke:black;stroke-width:1" /><line x1="1077.5" y1="0" x2="1077.5" y2="30" style="stroke:black;stroke-width:1" /><line x1="1081.5" y1="0" x2="1081.5" y2="30" style="stroke:black;stroke-width:1" /><line x1="1085.5" y1="0" x2="1085.5" y2="30" style="stroke:black;stroke-width:1" /><line x1="1089.5" y1="0" x2="1089.5" y2="70" style="stroke:black;stroke-width:1" /><text x="1083" y="95" fill="black" font-size="18">10</text></g></svg>