<?xml version='1.0' encoding='us-ascii'?>
<svg width="1119.4117639871688" height="240" version="1.1" xmlns="http://www.w3.org/2000/svg"><style>text {
      font-family: Arial, Helvetica, sans-serif;
      font-weight: Thin;
      }
</style><rect width="980" height="120" x="0" y="0" fill="#f9fc69" /><line x1="0" y1="120" x2="980" y2="120" style="stroke:black;stroke-width:1" /><text x="8" y="90" fill="black" font-size="24">C</text><text x="493" y="75" fill="black" font-size="16">&#960;</text><line x1="497" y1="120" x2="497" y2="80" style="stroke:black;stroke-width:1" /><line x1="50" y1="120" x2="50" y2="50" style="stroke:black;stroke-width:1" /><text x="46" y="40" fill="black" font-size="18">1</text><line x1="69" y1="120" x2="69" y2="100" style="stroke:black;stroke-width:1" /><line x1="87" y1="120" x2="87" y2="90" style="stroke:black;stroke-width:1" /><text x="81" y="85" fill="black" font-size="12">1.1</text><line x1="105" y1="120" x2="105" y2="100" style="stroke:black;stroke-width:1" /><line x1="121" y1="120" x2="121" y2="90" style="stroke:black;stroke-width:1" /><text x="115" y="85" fill="black" font-size="12">1.2</text><line x1="137" y1="120" x2="137" y2="100" style="stroke:black;stroke-width:1" /><line x1="153" y1="120" x2="153" y2="90" style="stroke:black;stroke-width:1" /><text x="147" y="85" fill="black" font-size="12">1.3</text><line x1="167" y1="120" x2="167" y2="100" style="stroke:black;stroke-width:1" /><line x1="182" y1="120" x2="182" y2="90" style="stroke:black;stroke-width:1" /><text x="176" y="85" fill="black" font-size="12">1.4</text><line x1="195" y1="120" x2="195" y2="100" style="stroke:black;stroke-width:1" /><line x1="208" y1="120" x2="208" y2="70" style="stroke:black;stroke-width:1" /><text x="202" y="65" fill="black" font-size="14">1.5</text><line x1="221" y1="120" x2="221" y2="100" style="stroke:black;stroke-width:1" /><line x1="234" y1="120" x2="234" y2="90" style="stroke:black;stroke-width:1" /><text x="228" y="85" fill="black" font-size="12">1.6</text><line x1="246" y1="120" x2="246" y2="100" style="stroke:black;stroke-width:1" /><line x1="257" y1="120" x2="257" y2="90" style="stroke:black;stroke-width:1" /><text x="251" y="85" fill="black" font-size="12">1.7</text><line x1="269" y1="120" x2="269" y2="100" style="stroke:black;stroke-width:1" /><line x1="280" y1="120" x2="280" y2="90" style="stroke:black;stroke-width:1" /><text x="274" y="85" fill="black" font-size="12">1.8</text><line x1="290" y1="120" x2="290" y2="100" style="stroke:black;stroke-width:1" /><line x1="301" y1="120" x2="301" y2="90" style="stroke:black;stroke-width:1" /><text x="295" y="85" fill="black" font-size="12">1.9</text><line x1="311" y1="120" x2="311" y2="100" style="stroke:black;stroke-width:1" /><line x1="321" y1="120" x2="321" y2="60" style="stroke:black;stroke-width:1" /><text x="317" y="50" fill="black" font-size="18">2</text><line x1="331" y1="120" x2="331" y2="100" style="stroke:black;stroke-width:1" /><line x1="340" y1="120" x2="340" y2="90" style="stroke:black;stroke-width:1" /><line x1="349" y1="120" x2="349" y2="100" style="stroke:black;stroke-width:1" /><line x1="358" y1="120" x2="358" y2="90" style="stroke:black;stroke-width:1" /><line x1="367" y1="120" x2="367" y2="100" style="stroke:black;stroke-width:1" /><line x1="376" y1="120" x2="376" y2="90" style="stroke:black;stroke-width:1" /><line x1="384" y1="120" x2="384" y2="100" style="stroke:black;stroke-width:1" /><line x1="392" y1="120" x2="392" y2="90" style="stroke:black;stroke-width:1" /><line x1="400" y1="120" x2="400" y2="100" style="stroke:black;stroke-width:1" /><line x1="408" y1="120" x2="408" y2="70" style="stroke:black;stroke-width:1" /><text x="402" y="65" fill="black" font-size="14">2.5</text><line x1="416" y1="120" x2="416" y2="100" style="stroke:black;stroke-width:1" /><line x1="423" y1="120" x2="423" y2="90" style="stroke:black;stroke-width:1" /><line x1="431" y1="120" x2="431" y2="100" style="stroke:black;stroke-width:1" /><line x1="438" y1="120" x2="438" y2="90" style="stroke:black;stroke-width:1" /><line x1="445" y1="120" x2="445" y2="100" style="stroke:black;stroke-width:1" /><line x1="452" y1="120" x2="452" y2="90" style="stroke:black;stroke-width:1" /><line x1="459" y1="120" x2="459" y2="100" style="stroke:black;stroke-width:1" /><line x1="466" y1="120" x2="466" y2="90" style="stroke:black;stroke-width:1" /><line x1="473" y1="120" x2="473" y2="100" style="stroke:black;stroke-width:1" /><line x1="479" y1="120" x2="479" y2="60" style="stroke:black;stroke-width:1" /><text x="475" y="50" fill="black" font-size="18">3</text><line x1="492" y1="120" x2="492" y2="90" style="stroke:black;stroke-width:1" /><line x1="505" y1="120" x2="505" y2="90" style="stroke:black;stroke-width:1" /><line x1="517" y1="120" x2="517" y2="90" style="stroke:black;stroke-width:1" /><line x1="528" y1="120" x2="528" y2="90" style="stroke:black;stroke-width:1" /><line x1="540" y1="120" x2="540" y2="70" style="stroke:black;stroke-width:1" /><text x="534" y="65" fill="black" font-size="14">3.5</text><line x1="551" y1="120" x2="551" y2="90" style="stroke:black;stroke-width:1" /><line x1="561" y1="120" x2="561" y2="90" style="stroke:black;stroke-width:1" /><line x1="572" y1="120" x2="572" y2="90" style="stroke:black;stroke-width:1" /><line x1="582" y1="120" x2="582" y2="90" style="stroke:black;stroke-width:1" /><line x1="592" y1="120" x2="592" y2="60" style="stroke:black;stroke-width:1" /><text x="588" y="50" fill="black" font-size="18">4</text><line x1="602" y1="120" x2="602" y2="90" style="stroke:black;stroke-width:1" /><line x1="611" y1="120" x2="611" y2="90" style="stroke:black;stroke-width:1" /><line x1="620" y1="120" x2="620" y2="90" style="stroke:black;stroke-width:1" /><line x1="629" y1="120" x2="629" y2="90" style="stroke:black;stroke-width:1" /><line x1="638" y1="120" x2="638" y2="70" style="stroke:black;stroke-width:1" /><text x="632" y="65" fill="black" font-size="14">4.5</text><line x1="646" y1="120" x2="646" y2="90" style="stroke:black;stroke-width:1" /><line x1="655" y1="120" x2="655" y2="90" style="stroke:black;stroke-width:1" /><line x1="663" y1="120" x2="663" y2="90" style="stroke:black;stroke-width:1" /><line x1="671" y1="120" x2="671" y2="90" style="stroke:black;stroke-width:1" /><line x1="679" y1="120" x2="679" y2="60" style="stroke:black;stroke-width:1" /><text x="675" y="50" fill="black" font-size="18">5</text><line x1="687" y1="120" x2="687" y2="90" style="stroke:black;stroke-width:1" /><line x1="694" y1="120" x2="694" y2="90" style="stroke:black;stroke-width:1" /><line x1="702" y1="120" x2="702" y2="90" style="stroke:black;stroke-width:1" /><line x1="709" y1="120" x2="709" y2="90" style="stroke:black;stroke-width:1" /><line x1="716" y1="120" x2="716" y2="70" style="stroke:black;stroke-width:1" /><text x="710" y="65" fill="black" font-size="14">5.5</text><line x1="723" y1="120" x2="723" y2="90" style="stroke:black;stroke-width:1" /><line x1="730" y1="120" x2="730" y2="90" style="stroke:black;stroke-width:1" /><line x1="737" y1="120" x2="737" y2="90" style="stroke:black;stroke-width:1" /><line x1="744" y1="120" x2="744" y2="90" style="stroke:black;stroke-width:1" /><line x1="750" y1="120" x2="750" y2="60" style="stroke:black;stroke-width:1" /><text x="746" y="50" fill="black" font-size="18">6</text><line x1="757" y1="120" x2="757" y2="90" style="stroke:black;stroke-width:1" /><line x1="763" y1="120" x2="763" y2="90" style="stroke:black;stroke-width:1" /><line x1="769" y1="120" x2="769" y2="90" style="stroke:black;stroke-width:1" /><line x1="776" y1="120" x2="776" y2="90" style="stroke:black;stroke-width:1" /><line x1="782" y1="120" x2="782" y2="70" style="stroke:black;stroke-width:1" /><text x="776" y="65" fill="black" font-size="14">6.5</text><line x1="788" y1="120" x2="788" y2="90" style="stroke:black;stroke-width:1" /><line x1="793" y1="120" x2="793" y2="90" style="stroke:black;stroke-width:1" /><line x1="799" y1="120" x2="799" y2="90" style="stroke:black;stroke-width:1" /><line x1="805" y1="120" x2="805" y2="90" style="stroke:black;stroke-width:1" /><line x1="811" y1="120" x2="811" y2="60" style="stroke:black;stroke-width:1" /><text x="807" y="50" fill="black" font-size="18">7</text><line x1="816" y1="120" x2="816" y2="90" style="stroke:black;stroke-width:1" /><line x1="822" y1="120" x2="822" y2="90" style="stroke:black;stroke-width:1" /><line x1="827" y1="120" x2="827" y2="90" style="stroke:black;stroke-width:1" /><line x1="832" y1="120" x2="832" y2="90" style="stroke:black;stroke-width:1" /><line x1="838" y1="120" x2="838" y2="70" style="stroke:black;stroke-width:1" /><text x="832" y="65" fill="black" font-size="14">7.5</text><line x1="843" y1="120" x2="843" y2="90" style="stroke:black;stroke-width:1" /><line x1="848" y1="120" x2="848" y2="90" style="stroke:black;stroke-width:1" /><line x1="853" y1="120" x2="853" y2="90" style="stroke:black;stroke-width:1" /><line x1="858" y1="120" x2="858" y2="90" style="stroke:black;stroke-width:1" /><line x1="863" y1="120" x2="863" y2="60" style="stroke:black;stroke-width:1" /><text x="859" y="50" fill="black" font-size="18">8</text><line x1="868" y1="120" x2="868" y2="90" style="stroke:black;stroke-width:1" /><line x1="872" y1="120" x2="872" y2="90" style="stroke:black;stroke-width:1" /><line x1="877" y1="120" x2="877" y2="90" style="stroke:black;stroke-width:1" /><line x1="882" y1="120" x2="882" y2="90" style="stroke:black;stroke-width:1" /><line x1="886" y1="120" x2="886" y2="70" style="stroke:black;stroke-width:1" /><text x="880" y="65" fill="black" font-size="14">8.5</text><line x1="891" y1="120" x2="891" y2="90" style="stroke:black;stroke-width:1" /><line x1="896" y1="120" x2="896" y2="90" style="stroke:black;stroke-width:1" /><line x1="900" y1="120" x2="900" y2="90" style="stroke:black;stroke-width:1" /><line x1="904" y1="120" x2="904" y2="90" style="stroke:black;stroke-width:1" /><line x1="909" y1="120" x2="909" y2="60" style="stroke:black;stroke-width:1" /><text x="905" y="50" fill="black" font-size="18">9</text><line x1="913" y1="120" x2="913" y2="90" style="stroke:black;stroke-width:1" /><line x1="917" y1="120" x2="917" y2="90" style="stroke:black;stroke-width:1" /><line x1="922" y1="120" x2="922" y2="90" style="stroke:black;stroke-width:1" /><line x1="926" y1="120" x2="926" y2="90" style="stroke:black;stroke-width:1" /><line x1="930" y1="120" x2="930" y2="70" style="stroke:black;stroke-width:1" /><text x="924" y="65" fill="black" font-size="14">9.5</text><line x1="934" y1="120" x2="934" y2="90" style="stroke:black;stroke-width:1" /><line x1="938" y1="120" x2="938" y2="90" style="stroke:black;stroke-width:1" /><line x1="942" y1="120" x2="942" y2="90" style="stroke:black;stroke-width:1" /><line x1="946" y1="120" x2="946" y2="90" style="stroke:black;stroke-width:1" /><line x1="950" y1="120" x2="950" y2="50" style="stroke:black;stroke-width:1" /><text x="944" y="40" fill="black" font-size="18">10</text><rect width="980" height="120" x="139.41176398716885" y="120" fill="#f9fc69" /><line x1="139.41176398716885" y1="120" x2="1119.4117639871688" y2="120" style="stroke:black;stroke-width:1" /><text x="147.41176398716885" y="160" fill="black" font-size="24">D</text><text x="633" y="175" fill="black" font-size="16">&#960;</text><line x1="637" y1="120" x2="637" y2="160" style="stroke:black;stroke-width:1" /><line x1="189" y1="120" x2="189" y2="190" style="stroke:black;stroke-width:1" /><text x="185" y="215" fill="black" font-size="18">1</text><line x1="208" y1="120" x2="208" y2="140" style="stroke:black;stroke-width:1" /><line x1="227" y1="120" x2="227" y2="150" style="stroke:black;stroke-width:1" /><text x="221" y="160" fill="black" font-size="12">1.1</text><line x1="244" y1="120" x2="244" y2="140" style="stroke:black;stroke-width:1" /><line x1="261" y1="120" x2="261" y2="150" style="stroke:black;stroke-width:1" /><text x="255" y="160" fill="black" font-size="12">1.2</text><line x1="277" y1="120" x2="277" y2="140" style="stroke:black;stroke-width:1" /><line x1="292" y1="120" x2="292" y2="150" style="stroke:black;stroke-width:1" /><text x="286" y="160" fill="black" font-size="12">1.3</text><line x1="307" y1="120" x2="307" y2="140" style="stroke:black;stroke-width:1" /><line x1="321" y1="120" x2="321" y2="150" style="stroke:black;stroke-width:1" /><text x="315" y="160" fill="black" font-size="12">1.4</text><line x1="335" y1="120" x2="335" y2="140" style="stroke:black;stroke-width:1" /><line x1="348" y1="120" x2="348" y2="170" style="stroke:black;stroke-width:1" /><text x="342" y="185" fill="black" font-size="14">1.5</text><line x1="361" y1="120" x2="361" y2="140" style="stroke:black;stroke-width:1" /><line x1="373" y1="120" x2="373" y2="150" style="stroke:black;stroke-width:1" /><text x="367" y="160" fill="black" font-size="12">1.6</text><line x1="385" y1="120" x2="385" y2="140" style="stroke:black;stroke-width:1" /><line x1="397" y1="120" x2="397" y2="150" style="stroke:black;stroke-width:1" /><text x="391" y="160" fill="black" font-size="12">1.7</text><line x1="408" y1="120" x2="408" y2="140" style="stroke:black;stroke-width:1" /><line x1="419" y1="120" x2="419" y2="150" style="stroke:black;stroke-width:1" /><text x="413" y="160" fill="black" font-size="12">1.8</text><line x1="430" y1="120" x2="430" y2="140" style="stroke:black;stroke-width:1" /><line x1="440" y1="120" x2="440" y2="150" style="stroke:black;stroke-width:1" /><text x="434" y="160" fill="black" font-size="12">1.9</text><line x1="450" y1="120" x2="450" y2="140" style="stroke:black;stroke-width:1" /><line x1="460" y1="120" x2="460" y2="180" style="stroke:black;stroke-width:1" /><text x="456" y="200" fill="black" font-size="18">2</text><line x1="470" y1="120" x2="470" y2="140" style="stroke:black;stroke-width:1" /><line x1="479" y1="120" x2="479" y2="150" style="stroke:black;stroke-width:1" /><line x1="489" y1="120" x2="489" y2="140" style="stroke:black;stroke-width:1" /><line x1="498" y1="120" x2="498" y2="150" style="stroke:black;stroke-width:1" /><line x1="506" y1="120" x2="506" y2="140" style="stroke:black;stroke-width:1" /><line x1="515" y1="120" x2="515" y2="150" style="stroke:black;stroke-width:1" /><line x1="523" y1="120" x2="523" y2="140" style="stroke:black;stroke-width:1" /><line x1="532" y1="120" x2="532" y2="150" style="stroke:black;stroke-width:1" /><line x1="540" y1="120" x2="540" y2="140" style="stroke:black;stroke-width:1" /><line x1="548" y1="120" x2="548" y2="170" style="stroke:black;stroke-width:1" /><text x="542" y="185" fill="black" font-size="14">2.5</text><line x1="555" y1="120" x2="555" y2="140" style="stroke:black;stroke-width:1" /><line x1="563" y1="120" x2="563" y2="150" style="stroke:black;stroke-width:1" /><line x1="570" y1="120" x2="570" y2="140" style="stroke:black;stroke-width:1" /><line x1="578" y1="120" x2="578" y2="150" style="stroke:black;stroke-width:1" /><line x1="585" y1="120" x2="585" y2="140" style="stroke:black;stroke-width:1" /><line x1="592" y1="120" x2="592" y2="150" style="stroke:black;stroke-width:1" /><line x1="599" y1="120" x2="599" y2="140" style="stroke:black;stroke-width:1" /><line x1="606" y1="120" x2="606" y2="150" style="stroke:black;stroke-width:1" /><line x1="612" y1="120" x2="612" y2="140" style="stroke:black;stroke-width:1" /><line x1="619" y1="120" x2="619" y2="180" style="stroke:black;stroke-width:1" /><text x="615" y="200" fill="black" font-size="18">3</text><line x1="632" y1="120" x2="632" y2="150" style="stroke:black;stroke-width:1" /><line x1="644" y1="120" x2="644" y2="150" style="stroke:black;stroke-width:1" /><line x1="656" y1="120" x2="656" y2="150" style="stroke:black;stroke-width:1" /><line x1="668" y1="120" x2="668" y2="150" style="stroke:black;stroke-width:1" /><line x1="679" y1="120" x2="679" y2="170" style="stroke:black;stroke-width:1" /><text x="673" y="185" fill="black" font-size="14">3.5</text><line x1="690" y1="120" x2="690" y2="150" style="stroke:black;stroke-width:1" /><line x1="701" y1="120" x2="701" y2="150" style="stroke:black;stroke-width:1" /><line x1="711" y1="120" x2="711" y2="150" style="stroke:black;stroke-width:1" /><line x1="721" y1="120" x2="721" y2="150" style="stroke:black;stroke-width:1" /><line x1="731" y1="120" x2="731" y2="180" style="stroke:black;stroke-width:1" /><text x="727" y="200" fill="black" font-size="18">4</text><line x1="741" y1="120" x2="741" y2="150" style="stroke:black;stroke-width:1" /><line x1="750" y1="120" x2="750" y2="150" style="stroke:black;stroke-width:1" /><line x1="760" y1="120" x2="760" y2="150" style="stroke:black;stroke-width:1" /><line x1="769" y1="120" x2="769" y2="150" style="stroke:black;stroke-width:1" /><line x1="777" y1="120" x2="777" y2="170" style="stroke:black;stroke-width:1" /><text x="771" y="185" fill="black" font-size="14">4.5</text><line x1="786" y1="120" x2="786" y2="150" style="stroke:black;stroke-width:1" /><line x1="794" y1="120" x2="794" y2="150" style="stroke:black;stroke-width:1" /><line x1="803" y1="120" x2="803" y2="150" style="stroke:black;stroke-width:1" /><line x1="811" y1="120" x2="811" y2="150" style="stroke:black;stroke-width:1" /><line x1="818" y1="120" x2="818" y2="180" style="stroke:black;stroke-width:1" /><text x="814" y="200" fill="black" font-size="18">5</text><line x1="826" y1="120" x2="826" y2="150" style="stroke:black;stroke-width:1" /><line x1="834" y1="120" x2="834" y2="150" style="stroke:black;stroke-width:1" /><line x1="841" y1="120" x2="841" y2="150" style="stroke:black;stroke-width:1" /><line x1="849" y1="120" x2="849" y2="150" style="stroke:black;stroke-width:1" /><line x1="856" y1="120" x2="856" y2="170" style="stroke:black;stroke-width:1" /><text x="850" y="185" fill="black" font-size="14">5.5</text><line x1="863" y1="120" x2="863" y2="150" style="stroke:black;stroke-width:1" /><line x1="870" y1="120" x2="870" y2="150" style="stroke:black;stroke-width:1" /><line x1="876" y1="120" x2="876" y2="150" style="stroke:black;stroke-width:1" /><line x1="883" y1="120" x2="883" y2="150" style="stroke:black;stroke-width:1" /><line x1="890" y1="120" x2="890" y2="180" style="stroke:black;stroke-width:1" /><text x="886" y="200" fill="black" font-size="18">6</text><line x1="896" y1="120" x2="896" y2="150" style="stroke:black;stroke-width:1" /><line x1="903" y1="120" x2="903" y2="150" style="stroke:black;stroke-width:1" /><line x1="909" y1="120" x2="909" y2="150" style="stroke:black;stroke-width:1" /><line x1="915" y1="120" x2="915" y2="150" style="stroke:black;stroke-width:1" /><line x1="921" y1="120" x2="921" y2="170" style="stroke:black;stroke-width:1" /><text x="915" y="185" fill="black" font-size="14">6.5</text><line x1="927" y1="120" x2="927" y2="150" style="stroke:black;stroke-width:1" /><line x1="933" y1="120" x2="933" y2="150" style="stroke:black;stroke-width:1" /><line x1="939" y1="120" x2="939" y2="150" style="stroke:black;stroke-width:1" /><line x1="944" y1="120" x2="944" y2="150" style="stroke:black;stroke-width:1" /><line x1="950" y1="120" x2="950" y2="180" style="stroke:black;stroke-width:1" /><text x="946" y="200" fill="black" font-size="18">7</text><line x1="956" y1="120" x2="956" y2="150" style="stroke:black;stroke-width:1" /><line x1="961" y1="120" x2="961" y2="150" style="stroke:black;stroke-width:1" /><line x1="966" y1="120" x2="966" y2="150" style="stroke:black;stroke-width:1" /><line x1="972" y1="120" x2="972" y2="150" style="stroke:black;stroke-width:1" /><line x1="977" y1="120" x2="977" y2="170" style="stroke:black;stroke-width:1" /><text x="971" y="185" fill="black" font-size="14">7.5</text><line x1="982" y1="120" x2="982" y2="150" style="stroke:black;stroke-width:1" /><line x1="987" y1="120" x2="987" y2="150" style="stroke:black;stroke-width:1" /><line x1="992" y1="120" x2="992" y2="150" style="stroke:black;stroke-width:1" /><line x1="997" y1="120" x2="997" y2="150" style="stroke:black;stroke-width:1" /><line x1="1002" y1="120" x2="1002" y2="180" style="stroke:black;stroke-width:1" /><text x="998" y="200" fill="black" font-size="18">8</text><line x1="1007" y1="120" x2="1007" y2="150" style="stroke:black;stroke-width:1" /><line x1="1012" y1="120" x2="1012" y2="150" style="stroke:black;stroke-width:1" /><line x1="1017" y1="120" x2="1017" y2="150" style="stroke:black;stroke-width:1" /><line x1="1021" y1="120" x2="1021" y2="150" style="stroke:black;stroke-width:1" /><line x1="1026" y1="120" x2="1026" y2="170" style="stroke:black;stroke-width:1" /><text x="1020" y="185" fill="black" font-size="14">8.5</text><line x1="1030" y1="120" x2="1030" y2="150" style="stroke:black;stroke-width:1" /><line x1="1035" y1="120" x2="1035" y2="150" style="stroke:black;stroke-width:1" /><line x1="1039" y1="120" x2="1039" y2="150" style="stroke:black;stroke-width:1" /><line x1="1044" y1="120" x2="1044" y2="150" style="stroke:black;stroke-width:1" /><line x1="1048" y1="120" x2="1048" y2="180" style="stroke:black;stroke-width:1" /><text x="1044" y="200" fill="black" font-size="18">9</text><line x1="1053" y1="120" x2="1053" y2="150" style="stroke:black;stroke-width:1" /><line x1="1057" y1="120" x2="1057" y2="150" style="stroke:black;stroke-width:1" /><line x1="1061" y1="120" x2="1061" y2="150" style="stroke:black;stroke-width:1" /><line x1="1065" y1="120" x2="1065" y2="150" style="stroke:black;stroke-width:1" /><line x1="1069" y1="120" x2="1069" y2="170" style="stroke:black;stroke-width:1" /><text x="1063" y="185" fill="black" font-size="14">9.5</text><line x1="1073" y1="120" x2="1073" y2="150" style="stroke:black;stroke-width:1" /><line x1="1078" y1="120" x2="1078" y2="150" style="stroke:black;stroke-width:1" /><line x1="1082" y1="120" x2="1082" y2="150" style="stroke:black;stroke-width:1" /><line x1="1085" y1="120" x2="1085" y2="150" style="stroke:black;stroke-width:1" /><line x1="1089" y1="120" x2="1089" y2="190" style="stroke:black;stroke-width:1" /><text x="1083" y="215" fill="black" font-size="18">10</text></svg>