<?xml version='1.0' encoding='us-ascii'?>
<svg width="1051.2631214428623" height="240" version="1.1" xmlns="http://www.w3.org/2000/svg"><style>text {
      font-family: Arial, Helvetica, sans-serif;
      font-weight: Thin;
      }
</style><rect width="980" height="120" x="71.26312144286234" y="0" fill="#f9fc69" /><line x1="71.26312144286234" y1="120" x2="1051.2631214428623" y2="120" style="stroke:black;stroke-width:1" /><text x="79.26312144286234" y="90" fill="black" font-size="24">C</text><text x="565" y="75" fill="black" font-size="16">&#960;</text><line x1="569" y1="120" x2="569" y2="80" style="stroke:black;stroke-width:1" /><line x1="121" y1="120" x2="121" y2="50" style="stroke:black;stroke-width:1" /><text x="117" y="40" fill="black" font-size="18">1</text><line x1="140" y1="120" x2="140" y2="100" style="stroke:black;stroke-width:1" /><line x1="159" y1="120" x2="159" y2="90" style="stroke:black;stroke-width:1" /><text x="153" y="85" fill="black" font-size="12">1.1</text><line x1="176" y1="120" x2="176" y2="100" style="stroke:black;stroke-width:1" /><line x1="193" y1="120" x2="193" y2="90" style="stroke:black;stroke-width:1" /><text x="187" y="85" fill="black" font-size="12">1.2</text><line x1="208" y1="120" x2="208" y2="100" style="stroke:black;stroke-width:1" /><line x1="224" y1="120" x2="224" y2="90" style="stroke:black;stroke-width:1" /><text x="218" y="85" fill="black" font-size="12">1.3</text><line x1="239" y1="120" x2="239" y2="100" style="stroke:black;stroke-width:1" /><line x1="253" y1="120" x2="253" y2="90" style="stroke:black;stroke-width:1" /><text x="247" y="85" fill="black" font-size="12">1.4</text><line x1="266" y1="120" x2="266" y2="100" style="stroke:black;stroke-width:1" /><line x1="280" y1="120" x2="280" y2="70" style="stroke:black;stroke-width:1" /><text x="274" y="65" fill="black" font-size="14">1.5</text><line x1="293" y1="120" x2="293" y2="100" style="stroke:black;stroke-width:1" /><line x1="305" y1="120" x2="305" y2="90" style="stroke:black;stroke-width:1" /><text x="299" y="85" fill="black" font-size="12">1.6</text><line x1="317" y1="120" x2="317" y2="100" style="stroke:black;stroke-width:1" /><line x1="329" y1="120" x2="329" y2="90" style="stroke:black;stroke-width:1" /><text x="323" y="85" fill="black" font-size="12">1.7</text><line x1="340" y1="120" x2="340" y2="100" style="stroke:black;stroke-width:1" /><line x1="351" y1="120" x2="351" y2="90" style="stroke:black;stroke-width:1" /><text x="345" y="85" fill="black" font-size="12">1.8</text><line x1="362" y1="120" x2="362" y2="100" style="stroke:black;stroke-width:1" /><line x1="372" y1="120" x2="372" y2="90" style="stroke:black;stroke-width:1" /><text x="366" y="85" fill="black" font-size="12">1.9</text><line x1="382" y1="120" x2="382" y2="100" style="stroke:black;stroke-width:1" /><line x1="392" y1="120" x2="392" y2="60" style="stroke:black;stroke-width:1" /><text x="388" y="50" fill="black" font-size="18">2</text><line x1="402" y1="120" x2="402" y2="100" style="stroke:black;stroke-width:1" /><line x1="411" y1="120" x2="411" y2="90" style="stroke:black;stroke-width:1" /><line x1="420" y1="120" x2="420" y2="100" style="stroke:black;stroke-width:1" /><line x1="429" y1="120" x2="429" y2="90" style="stroke:black;stroke-width:1" /><line x1="438" y1="120" x2="438" y2="100" style="stroke:black;stroke-width:1" /><line x1="447" y1="120" x2="447" y2="90" style="stroke:black;stroke-width:1" /><line x1="455" y1="120" x2="455" y2="100" style="stroke:black;stroke-width:1" /><line x1="463" y1="120" x2="463" y2="90" style="stroke:black;stroke-width:1" /><line x1="472" y1="120" x2="472" y2="100" style="stroke:black;stroke-width:1" /><line x1="479" y1="120" x2="479" y2="70" style="stroke:black;stroke-width:1" /><text x="473" y="65" fill="black" font-size="14">2.5</text><line x1="487" y1="120" x2="487" y2="100" style="stroke:black;stroke-width:1" /><line x1="495" y1="120" x2="495" y2="90" style="stroke:black;stroke-width:1" /><line x1="502" y1="120" x2="502" y2="100" style="stroke:black;stroke-width:1" /><line x1="509" y1="120" x2="509" y2="90" style="stroke:black;stroke-width:1" /><line x1="517" y1="120" x2="517" y2="100" style="stroke:black;stroke-width:1" /><line x1="524" y1="120" x2="524" y2="90" style="stroke:black;stroke-width:1" /><line x1="531" y1="120" x2="531" y2="100" style="stroke:black;stroke-width:1" /><line x1="537" y1="120" x2="537" y2="90" style="stroke:black;stroke-width:1" /><line x1="544" y1="120" x2="544" y2="100" style="stroke:black;stroke-width:1" /><line x1="551" y1="120" x2="551" y2="60" style="stroke:black;stroke-width:1" /><text x="547" y="50" fill="black" font-size="18">3</text><line x1="563" y1="120" x2="563" y2="90" style="stroke:black;stroke-width:1" /><line x1="576" y1="120" x2="576" y2="90" style="stroke:black;stroke-width:1" /><line x1="588" y1="120" x2="588" y2="90" style="stroke:black;stroke-width:1" /><line x1="600" y1="120" x2="600" y2="90" style="stroke:black;stroke-width:1" /><line x1="611" y1="120" x2="611" y2="70" style="stroke:black;stroke-width:1" /><text x="605" y="65" fill="black" font-size="14">3.5</text><line x1="622" y1="120" x2="622" y2="90" style="stroke:black;stroke-width:1" /><line x1="633" y1="120" x2="633" y2="90" style="stroke:black;stroke-width:1" /><line x1="643" y1="120" x2="643" y2="90" style="stroke:black;stroke-width:1" /><line x1="653" y1="120" x2="653" y2="90" style="stroke:black;stroke-width:1" /><line x1="663" y1="120" x2="663" y2="60" style="stroke:black;stroke-width:1" /><text x="659" y="50" fill="black" font-size="18">4</text><line x1="673" y1="120" x2="673" y2="90" style="stroke:black;stroke-width:1" /><line x1="682" y1="120" x2="682" y2="90" style="stroke:black;stroke-width:1" /><line x1="691" y1="120" x2="691" y2="90" style="stroke:black;stroke-width:1" /><line x1="700" y1="120" x2="700" y2="90" style="stroke:black;stroke-width:1" /><line x1="709" y1="120" x2="709" y2="70" style="stroke:black;stroke-width:1" /><text x="703" y="65" fill="black" font-size="14">4.5</text><line x1="718" y1="120" x2="718" y2="90" style="stroke:black;stroke-width:1" /><line x1="726" y1="120" x2="726" y2="90" style="stroke:black;stroke-width:1" /><line x1="734" y1="120" x2="734" y2="90" style="stroke:black;stroke-width:1" /><line x1="742" y1="120" x2="742" y2="90" style="stroke:black;stroke-width:1" /><line x1="750" y1="120" x2="750" y2="60" style="stroke:black;stroke-width:1" /><text x="746" y="50" fill="black" font-size="18">5</text><line x1="758" y1="120" x2="758" y2="90" style="stroke:black;stroke-width:1" /><line x1="766" y1="120" x2="766" y2="90" style="stroke:black;stroke-width:1" /><line x1="773" y1="120" x2="773" y2="90" style="stroke:black;stroke-width:1" /><line x1="780" y1="120" x2="780" y2="90" style="stroke:black;stroke-width:1" /><line x1="788" y1="120" x2="788" y2="70" style="stroke:black;stroke-width:1" /><text x="782" y="65" fill="black" font-size="14">5.5</text><line x1="795" y1="120" x2="795" y2="90" style="stroke:black;stroke-width:1" /><line x1="802" y1="120" x2="802" y2="90" style="stroke:black;stroke-width:1" /><line x1="808" y1="120" x2="808" y2="90" style="stroke:black;stroke-width:1" /><line x1="815" y1="120" x2="815" y2="90" style="stroke:black;stroke-width:1" /><line x1="822" y1="120" x2="822" y2="60" style="stroke:black;stroke-width:1" /><text x="818" y="50" fill="black" font-size="18">6</text><line x1="828" y1="120" x2="828" y2="90" style="stroke:black;stroke-width:1" /><line x1="834" y1="120" x2="834" y2="90" style="stroke:black;stroke-width:1" /><line x1="841" y1="120" x2="841" y2="90" style="stroke:black;stroke-width:1" /><line x1="847" y1="120" x2="847" y2="90" style="stroke:black;stroke-width:1" /><line x1="853" y1="120" x2="853" y2="70" style="stroke:black;stroke-width:1" /><text x="847" y="65" fill="black" font-size="14">6.5</text><line x1="859" y1="120" x2="859" y2="90" style="stroke:black;stroke-width:1" /><line x1="865" y1="120" x2="865" y2="90" style="stroke:black;stroke-width:1" /><line x1="871" y1="120" x2="871" y2="90" style="stroke:black;stroke-width:1" /><line x1="876" y1="120" x2="876" y2="90" style="stroke:black;stroke-width:1" /><line x1="882" y1="120" x2="882" y2="60" style="stroke:black;stroke-width:1" /><text x="878" y="50" fill="black" font-size="18">7</text><line x1="887" y1="120" x2="887" y2="90" style="stroke:black;stroke-width:1" /><line x1="893" y1="120" x2="893" y2="90" style="stroke:black;stroke-width:1" /><line x1="898" y1="120" x2="898" y2="90" style="stroke:black;stroke-width:1" /><line x1="904" y1="120" x2="904" y2="90" style="stroke:black;stroke-width:1" /><line x1="909" y1="120" x2="909" y2="70" style="stroke:black;stroke-width:1" /><text x="903" y="65" fill="black" font-size="14">7.5</text><line x1="914" y1="120" x2="914" y2="90" style="stroke:black;stroke-width:1" /><line x1="919" y1="120" x2="919" y2="90" style="stroke:black;stroke-width:1" /><line x1="924" y1="120" x2="924" y2="90" style="stroke:black;stroke-width:1" /><line x1="929" y1="120" x2="929" y2="90" style="stroke:black;stroke-width:1" /><line x1="934" y1="120" x2="934" y2="60" style="stroke:black;stroke-width:1" /><text x="930" y="50" fill="black" font-size="18">8</text><line x1="939" y1="120" x2="939" y2="90" style="stroke:black;stroke-width:1" /><line x1="944" y1="120" x2="944" y2="90" style="stroke:black;stroke-width:1" /><line x1="948" y1="120" x2="948" y2="90" style="stroke:black;stroke-width:1" /><line x1="953" y1="120" x2="953" y2="90" style="stroke:black;stroke-width:1" /><line x1="958" y1="120" x2="958" y2="70" style="stroke:black;stroke-width:1" /><text x="952" y="65" fill="black" font-size="14">8.5</text><line x1="962" y1="120" x2="962" y2="90" style="stroke:black;stroke-width:1" /><line x1="967" y1="120" x2="967" y2="90" style="stroke:black;stroke-width:1" /><line x1="971" y1="120" x2="971" y2="90" style="stroke:black;stroke-width:1" /><line x1="976" y1="120" x2="976" y2="90" style="stroke:black;stroke-width:1" /><line x1="980" y1="120" x2="980" y2="60" style="stroke:black;stroke-width:1" /><text x="976" y="50" fill="black" font-size="18">9</text><line x1="984" y1="120" x2="984" y2="90" style="stroke:black;stroke-width:1" /><line x1="989" y1="120" x2="989" y2="90" style="stroke:black;stroke-width:1" /><line x1="993" y1="120" x2="993" y2="90" style="stroke:black;stroke-width:1" /><line x1="997" y1="120" x2="997" y2="90" style="stroke:black;stroke-width:1" /><line x1="1001" y1="120" x2="1001" y2="70" style="stroke:black;stroke-width:1" /><text x="995" y="65" fill="black" font-size="14">9.5</text><line x1="1005" y1="120" x2="1005" y2="90" style="stroke:black;stroke-width:1" /><line x1="1009" y1="120" x2="1009" y2="90" style="stroke:black;stroke-width:1" /><line x1="1013" y1="120" x2="1013" y2="90" style="stroke:black;stroke-width:1" /><line x1="1017" y1="120" x2="1017" y2="90" style="stroke:black;stroke-width:1" /><line x1="1021" y1="120" x2="1021" y2="50" style="stroke:black;stroke-width:1" /><text x="1015" y="40" fill="black" font-size="18">10</text><rect width="980" height="120" x="0" y="120" fill="#f9fc69" /><line x1="0" y1="120" x2="980" y2="120" style="stroke:black;stroke-width:1" /><text x="8" y="160" fill="black" font-size="24">D</text><text x="493" y="175" fill="black" font-size="16">&#960;</text><line x1="497" y1="120" x2="497" y2="160" style="stroke:black;stroke-width:1" /><line x1="50" y1="120" x2="50" y2="190" style="stroke:black;stroke-width:1" /><text x="46" y="215" fill="black" font-size="18">1</text><line x1="69" y1="120" x2="69" y2="140" style="stroke:black;stroke-width:1" /><line x1="87" y1="120" x2="87" y2="150" style="stroke:black;stroke-width:1" /><text x="81" y="160" fill="black" font-size="12">1.1</text><line x1="105" y1="120" x2="105" y2="140" style="stroke:black;stroke-width:1" /><line x1="121" y1="120" x2="121" y2="150" style="stroke:black;stroke-width:1" /><text x="115" y="160" fill="black" font-size="12">1.2</text><line x1="137" y1="120" x2="137" y2="140" style="stroke:black;stroke-width:1" /><line x1="153" y1="120" x2="153" y2="150" style="stroke:black;stroke-width:1" /><text x="147" y="160" fill="black" font-size="12">1.3</text><line x1="167" y1="120" x2="167" y2="140" style="stroke:black;stroke-width:1" /><line x1="182" y1="120" x2="182" y2="150" style="stroke:black;stroke-width:1" /><text x="176" y="160" fill="black" font-size="12">1.4</text><line x1="195" y1="120" x2="195" y2="140" style="stroke:black;stroke-width:1" /><line x1="208" y1="120" x2="208" y2="170" style="stroke:black;stroke-width:1" /><text x="202" y="185" fill="black" font-size="14">1.5</text><line x1="221" y1="120" x2="221" y2="140" style="stroke:black;stroke-width:1" /><line x1="234" y1="120" x2="234" y2="150" style="stroke:black;stroke-width:1" /><text x="228" y="160" fill="black" font-size="12">1.6</text><line x1="246" y1="120" x2="246" y2="140" style="stroke:black;stroke-width:1" /><line x1="257" y1="120" x2="257" y2="150" style="stroke:black;stroke-width:1" /><text x="251" y="160" fill="black" font-size="12">1.7</text><line x1="269" y1="120" x2="269" y2="140" style="stroke:black;stroke-width:1" /><line x1="280" y1="120" x2="280" y2="150" style="stroke:black;stroke-width:1" /><text x="274" y="160" fill="black" font-size="12">1.8</text><line x1="290" y1="120" x2="290" y2="140" style="stroke:black;stroke-width:1" /><line x1="301" y1="120" x2="301" y2="150" style="stroke:black;stroke-width:1" /><text x="295" y="160" fill="black" font-size="12">1.9</text><line x1="311" y1="120" x2="311" y2="140" style="stroke:black;stroke-width:1" /><line x1="321" y1="120" x2="321" y2="180" style="stroke:black;stroke-width:1" /><text x="317" y="200" fill="black" font-size="18">2</text><line x1="331" y1="120" x2="331" y2="140" style="stroke:black;stroke-width:1" /><line x1="340" y1="120" x2="340" y2="150" style="stroke:black;stroke-width:1" /><line x1="349" y1="120" x2="349" y2="140" style="stroke:black;stroke-width:1" /><line x1="358" y1="120" x2="358" y2="150" style="stroke:black;stroke-width:1" /><line x1="367" y1="120" x2="367" y2="140" style="stroke:black;stroke-width:1" /><line x1="376" y1="120" x2="376" y2="150" style="stroke:black;stroke-width:1" /><line x1="384" y1="120" x2="384" y2="140" style="stroke:black;stroke-width:1" /><line x1="392" y1="120" x2="392" y2="150" style="stroke:black;stroke-width:1" /><line x1="400" y1="120" x2="400" y2="140" style="stroke:black;stroke-width:1" /><line x1="408" y1="120" x2="408" y2="170" style="stroke:black;stroke-width:1" /><text x="402" y="185" fill="black" font-size="14">2.5</text><line x1="416" y1="120" x2="416" y2="140" style="stroke:black;stroke-width:1" /><line x1="423" y1="120" x2="423" y2="150" style="stroke:black;stroke-width:1" /><line x1="431" y1="120" x2="431" y2="140" style="stroke:black;stroke-width:1" /><line x1="438" y1="120" x2="438" y2="150" style="stroke:black;stroke-width:1" /><line x1="445" y1="120" x2="445" y2="140" style="stroke:black;stroke-width:1" /><line x1="452" y1="120" x2="452" y2="150" style="stroke:black;stroke-width:1" /><line x1="459" y1="120" x2="459" y2="140" style="stroke:black;stroke-width:1" /><line x1="466" y1="120" x2="466" y2="150" style="stroke:black;stroke-width:1" /><line x1="473" y1="120" x2="473" y2="140" style="stroke:black;stroke-width:1" /><line x1="479" y1="120" x2="479" y2="180" style="stroke:black;stroke-width:1" /><text x="475" y="200" fill="black" font-size="18">3</text><line x1="492" y1="120" x2="492" y2="150" style="stroke:black;stroke-width:1" /><line x1="505" y1="120" x2="505" y2="150" style="stroke:black;stroke-width:1" /><line x1="517" y1="120" x2="517" y2="150" style="stroke:black;stroke-width:1" /><line x1="528" y1="120" x2="528" y2="150" style="stroke:black;stroke-width:1" /><line x1="540" y1="120" x2="540" y2="170" style="stroke:black;stroke-width:1" /><text x="534" y="185" fill="black" font-size="14">3.5</text><line x1="551" y1="120" x2="551" y2="150" style="stroke:black;stroke-width:1" /><line x1="561" y1="120" x2="561" y2="150" style="stroke:black;stroke-width:1" /><line x1="572" y1="120" x2="572" y2="150" style="stroke:black;stroke-width:1" /><line x1="582" y1="120" x2="582" y2="150" style="stroke:black;stroke-width:1" /><line x1="592" y1="120" x2="592" y2="180" style="stroke:black;stroke-width:1" /><text x="588" y="200" fill="black" font-size="18">4</text><line x1="602" y1="120" x2="602" y2="150" style="stroke:black;stroke-width:1" /><line x1="611" y1="120" x2="611" y2="150" style="stroke:black;stroke-width:1" /><line x1="620" y1="120" x2="620" y2="150" style="stroke:black;stroke-width:1" /><line x1="629" y1="120" x2="629" y2="150" style="stroke:black;stroke-width:1" /><line x1="638" y1="120" x2="638" y2="170" style="stroke:black;stroke-width:1" /><text x="632" y="185" fill="black" font-size="14">4.5</text><line x1="646" y1="120" x2="646" y2="150" style="stroke:black;stroke-width:1" /><line x1="655" y1="120" x2="655" y2="150" style="stroke:black;stroke-width:1" /><line x1="663" y1="120" x2="663" y2="150" style="stroke:black;stroke-width:1" /><line x1="671" y1="120" x2="671" y2="150" style="stroke:black;stroke-width:1" /><line x1="679" y1="120" x2="679" y2="180" style="stroke:black;stroke-width:1" /><text x="675" y="200" fill="black" font-size="18">5</text><line x1="687" y1="120" x2="687" y2="150" style="stroke:black;stroke-width:1" /><line x1="694" y1="120" x2="694" y2="150" style="stroke:black;stroke-width:1" /><line x1="702" y1="120" x2="702" y2="150" style="stroke:black;stroke-width:1" /><line x1="709" y1="120" x2="709" y2="150" style="stroke:black;stroke-width:1" /><line x1="716" y1="120" x2="716" y2="170" style="stroke:black;stroke-width:1" /><text x="710" y="185" fill="black" font-size="14">5.5</text><line x1="723" y1="120" x2="723" y2="150" style="stroke:black;stroke-width:1" /><line x1="730" y1="120" x2="730" y2="150" style="stroke:black;stroke-width:1" /><line x1="737" y1="120" x2="737" y2="150" style="stroke:black;stroke-width:1" /><line x1="744" y1="120" x2="744" y2="150" style="stroke:black;stroke-width:1" /><line x1="750" y1="120" x2="750" y2="180" style="stroke:black;stroke-width:1" /><text x="746" y="200" fill="black" font-size="18">6</text><line x1="757" y1="120" x2="757" y2="150" style="stroke:black;stroke-width:1" /><line x1="763" y1="120" x2="763" y2="150" style="stroke:black;stroke-width:1" /><line x1="769" y1="120" x2="769" y2="150" style="stroke:black;stroke-width:1" /><line x1="776" y1="120" x2="776" y2="150" style="stroke:black;stroke-width:1" /><line x1="782" y1="120" x2="782" y2="170" style="stroke:black;stroke-width:1" /><text x="776" y="185" fill="black" font-size="14">6.5</text><line x1="788" y1="120" x2="788" y2="150" style="stroke:black;stroke-width:1" /><line x1="793" y1="120" x2="793" y2="150" style="stroke:black;stroke-width:1" /><line x1="799" y1="120" x2="799" y2="150" style="stroke:black;stroke-width:1" /><line x1="805" y1="120" x2="805" y2="150" style="stroke:black;stroke-width:1" /><line x1="811" y1="120" x2="811" y2="180" style="stroke:black;stroke-width:1" /><text x="807" y="200" fill="black" font-size="18">7</text><line x1="816" y1="120" x2="816" y2="150" style="stroke:black;stroke-width:1" /><line x1="822" y1="120" x2="822" y2="150" style="stroke:black;stroke-width:1" /><line x1="827" y1="120" x2="827" y2="150" style="stroke:black;stroke-width:1" /><line x1="832" y1="120" x2="832" y2="150" style="stroke:black;stroke-width:1" /><line x1="838" y1="120" x2="838" y2="170" style="stroke:black;stroke-width:1" /><text x="832" y="185" fill="black" font-size="14">7.5</text><line x1="843" y1="120" x2="843" y2="150" style="stroke:black;stroke-width:1" /><line x1="848" y1="120" x2="848" y2="150" style="stroke:black;stroke-width:1" /><line x1="853" y1="120" x2="853" y2="150" style="stroke:black;stroke-width:1" /><line x1="858" y1="120" x2="858" y2="150" style="stroke:black;stroke-width:1" /><line x1="863" y1="120" x2="863" y2="180" style="stroke:black;stroke-width:1" /><text x="859" y="200" fill="black" font-size="18">8</text><line x1="868" y1="120" x2="868" y2="150" style="stroke:black;stroke-width:1" /><line x1="872" y1="120" x2="872" y2="150" style="stroke:black;stroke-width:1" /><line x1="877" y1="120" x2="877" y2="150" style="stroke:black;stroke-width:1" /><line x1="882" y1="120" x2="882" y2="150" style="stroke:black;stroke-width:1" /><line x1="886" y1="120" x2="886" y2="170" style="stroke:black;stroke-width:1" /><text x="880" y="185" fill="black" font-size="14">8.5</text><line x1="891" y1="120" x2="891" y2="150" style="stroke:black;stroke-width:1" /><line x1="896" y1="120" x2="896" y2="150" style="stroke:black;stroke-width:1" /><line x1="900" y1="120" x2="900" y2="150" style="stroke:black;stroke-width:1" /><line x1="904" y1="120" x2="904" y2="150" style="stroke:black;stroke-width:1" /><line x1="909" y1="120" x2="909" y2="180" style="stroke:black;stroke-width:1" /><text x="905" y="200" fill="black" font-size="18">9</text><line x1="913" y1="120" x2="913" y2="150" style="stroke:black;stroke-width:1" /><line x1="917" y1="120" x2="917" y2="150" style="stroke:black;stroke-width:1" /><line x1="922" y1="120" x2="922" y2="150" style="stroke:black;stroke-width:1" /><line x1="926" y1="120" x2="926" y2="150" style="stroke:black;stroke-width:1" /><line x1="930" y1="120" x2="930" y2="170" style="stroke:black;stroke-width:1" /><text x="924" y="185" fill="black" font-size="14">9.5</text><line x1="934" y1="120" x2="934" y2="150" style="stroke:black;stroke-width:1" /><line x1="938" y1="120" x2="938" y2="150" style="stroke:black;stroke-width:1" /><line x1="942" y1="120" x2="942" y2="150" style="stroke:black;stroke-width:1" /><line x1="946" y1="120" x2="946" y2="150" style="stroke:black;stroke-width:1" /><line x1="950" y1="120" x2="950" y2="190" style="stroke:black;stroke-width:1" /><text x="944" y="215" fill="black" font-size="18">10</text></svg>