<?xml version='1.0' encoding='us-ascii'?>
<svg width="1138.482133150113" height="240" version="1.1" xmlns="http://www.w3.org/2000/svg"><style>text {
      font-family: Arial, Helvetica, sans-serif;
      font-weight: Thin;
      }
</style><rect width="980" height="120" x="158.4821331501131" y="0" fill="#f9fc69" /><line x1="158.4821331501131" y1="120" x2="1138.482133150113" y2="120" style="stroke:black;stroke-width:1" /><text x="166.4821331501131" y="90" fill="black" font-size="24">C</text><text x="652" y="75" fill="black" font-size="16">&#960;</text><line x1="656" y1="120" x2="656" y2="80" style="stroke:black;stroke-width:1" /><line x1="208" y1="120" x2="208" y2="50" style="stroke:black;stroke-width:1" /><text x="204" y="40" fill="black" font-size="18">1</text><line x1="228" y1="120" x2="228" y2="100" style="stroke:black;stroke-width:1" /><line x1="246" y1="120" x2="246" y2="90" style="stroke:black;stroke-width:1" /><text x="240" y="85" fill="black" font-size="12">1.1</text><line x1="263" y1="120" x2="263" y2="100" style="stroke:black;stroke-width:1" /><line x1="280" y1="120" x2="280" y2="90" style="stroke:black;stroke-width:1" /><text x="274" y="85" fill="black" font-size="12">1.2</text><line x1="296" y1="120" x2="296" y2="100" style="stroke:black;stroke-width:1" /><line x1="311" y1="120" x2="311" y2="90" style="stroke:black;stroke-width:1" /><text x="305" y="85" fill="black" font-size="12">1.3</text><line x1="326" y1="120" x2="326" y2="100" style="stroke:black;stroke-width:1" /><line x1="340" y1="120" x2="340" y2="90" style="stroke:black;stroke-width:1" /><text x="334" y="85" fill="black" font-size="12">1.4</text><line x1="354" y1="120" x2="354" y2="100" style="stroke:black;stroke-width:1" /><line x1="367" y1="120" x2="367" y2="70" style="stroke:black;stroke-width:1" /><text x="361" y="65" fill="black" font-size="14">1.5</text><line x1="380" y1="120" x2="380" y2="100" style="stroke:black;stroke-width:1" /><line x1="392" y1="120" x2="392" y2="90" style="stroke:black;stroke-width:1" /><text x="386" y="85" fill="black" font-size="12">1.6</text><line x1="404" y1="120" x2="404" y2="100" style="stroke:black;stroke-width:1" /><line x1="416" y1="120" x2="416" y2="90" style="stroke:black;stroke-width:1" /><text x="410" y="85" fill="black" font-size="12">1.7</text><line x1="427" y1="120" x2="427" y2="100" style="stroke:black;stroke-width:1" /><line x1="438" y1="120" x2="438" y2="90" style="stroke:black;stroke-width:1" /><text x="432" y="85" fill="black" font-size="12">1.8</text><line x1="449" y1="120" x2="449" y2="100" style="stroke:black;stroke-width:1" /><line x1="459" y1="120" x2="459" y2="90" style="stroke:black;stroke-width:1" /><text x="453" y="85" fill="black" font-size="12">1.9</text><line x1="470" y1="120" x2="470" y2="100" style="stroke:black;stroke-width:1" /><line x1="479" y1="120" x2="479" y2="60" style="stroke:black;stroke-width:1" /><text x="475" y="50" fill="black" font-size="18">2</text><line x1="489" y1="120" x2="489" y2="100" style="stroke:black;stroke-width:1" /><line x1="498" y1="120" x2="498" y2="90" style="stroke:black;stroke-width:1" /><line x1="508" y1="120" x2="508" y2="100" style="stroke:black;stroke-width:1" /><line x1="517" y1="120" x2="517" y2="90" style="stroke:black;stroke-width:1" /><line x1="525" y1="120" x2="525" y2="100" style="stroke:black;stroke-width:1" /><line x1="534" y1="120" x2="534" y2="90" style="stroke:black;stroke-width:1" /><line x1="542" y1="120" x2="542" y2="100" style="stroke:black;stroke-width:1" /><line x1="551" y1="120" x2="551" y2="90" style="stroke:black;stroke-width:1" /><line x1="559" y1="120" x2="559" y2="100" style="stroke:black;stroke-width:1" /><line x1="567" y1="120" x2="567" y2="70" style="stroke:black;stroke-width:1" /><text x="561" y="65" fill="black" font-size="14">2.5</text><line x1="574" y1="120" x2="574" y2="100" style="stroke:black;stroke-width:1" /><line x1="582" y1="120" x2="582" y2="90" style="stroke:black;stroke-width:1" /><line x1="589" y1="120" x2="589" y2="100" style="stroke:black;stroke-width:1" /><line x1="597" y1="120" x2="597" y2="90" style="stroke:black;stroke-width:1" /><line x1="604" y1="120" x2="604" y2="100" style="stroke:black;stroke-width:1" /><line x1="611" y1="120" x2="611" y2="90" style="stroke:black;stroke-width:1" /><line x1="618" y1="120" x2="618" y2="100" style="stroke:black;stroke-width:1" /><line x1="625" y1="120" x2="625" y2="90" style="stroke:black;stroke-width:1" /><line x1="631" y1="120" x2="631" y2="100" style="stroke:black;stroke-width:1" /><line x1="638" y1="120" x2="638" y2="60" style="stroke:black;stroke-width:1" /><text x="634" y="50" fill="black" font-size="18">3</text><line x1="651" y1="120" x2="651" y2="90" style="stroke:black;stroke-width:1" /><line x1="663" y1="120" x2="663" y2="90" style="stroke:black;stroke-width:1" /><line x1="675" y1="120" x2="675" y2="90" style="stroke:black;stroke-width:1" /><line x1="687" y1="120" x2="687" y2="90" style="stroke:black;stroke-width:1" /><line x1="698" y1="120" x2="698" y2="70" style="stroke:black;stroke-width:1" /><text x="692" y="65" fill="black" font-size="14">3.5</text><line x1="709" y1="120" x2="709" y2="90" style="stroke:black;stroke-width:1" /><line x1="720" y1="120" x2="720" y2="90" style="stroke:black;stroke-width:1" /><line x1="730" y1="120" x2="730" y2="90" style="stroke:black;stroke-width:1" /><line x1="740" y1="120" x2="740" y2="90" style="stroke:black;stroke-width:1" /><line x1="750" y1="120" x2="750" y2="60" style="stroke:black;stroke-width:1" /><text x="746" y="50" fill="black" font-size="18">4</text><line x1="760" y1="120" x2="760" y2="90" style="stroke:black;stroke-width:1" /><line x1="769" y1="120" x2="769" y2="90" style="stroke:black;stroke-width:1" /><line x1="779" y1="120" x2="779" y2="90" style="stroke:black;stroke-width:1" /><line x1="788" y1="120" x2="788" y2="90" style="stroke:black;stroke-width:1" /><line x1="796" y1="120" x2="796" y2="70" style="stroke:black;stroke-width:1" /><text x="790" y="65" fill="black" font-size="14">4.5</text><line x1="805" y1="120" x2="805" y2="90" style="stroke:black;stroke-width:1" /><line x1="813" y1="120" x2="813" y2="90" style="stroke:black;stroke-width:1" /><line x1="822" y1="120" x2="822" y2="90" style="stroke:black;stroke-width:1" /><line x1="830" y1="120" x2="830" y2="90" style="stroke:black;stroke-width:1" /><line x1="838" y1="120" x2="838" y2="60" style="stroke:black;stroke-width:1" /><text x="834" y="50" fill="black" font-size="18">5</text><line x1="845" y1="120" x2="845" y2="90" style="stroke:black;stroke-width:1" /><line x1="853" y1="120" x2="853" y2="90" style="stroke:black;stroke-width:1" /><line x1="860" y1="120" x2="860" y2="90" style="stroke:black;stroke-width:1" /><line x1="868" y1="120" x2="868" y2="90" style="stroke:black;stroke-width:1" /><line x1="875" y1="120" x2="875" y2="70" style="stroke:black;stroke-width:1" /><text x="869" y="65" fill="black" font-size="14">5.5</text><line x1="882" y1="120" x2="882" y2="90" style="stroke:black;stroke-width:1" /><line x1="889" y1="120" x2="889" y2="90" style="stroke:black;stroke-width:1" /><line x1="896" y1="120" x2="896" y2="90" style="stroke:black;stroke-width:1" /><line x1="902" y1="120" x2="902" y2="90" style="stroke:black;stroke-width:1" /><line x1="909" y1="120" x2="909" y2="60" style="stroke:black;stroke-width:1" /><text x="905" y="50" fill="black" font-size="18">6</text><line x1="915" y1="120" x2="915" y2="90" style="stroke:black;stroke-width:1" /><line x1="922" y1="120" x2="922" y2="90" style="stroke:black;stroke-width:1" /><line x1="928" y1="120" x2="928" y2="90" style="stroke:black;stroke-width:1" /><line x1="934" y1="120" x2="934" y2="90" style="stroke:black;stroke-width:1" /><line x1="940" y1="120" x2="940" y2="70" style="stroke:black;stroke-width:1" /><text x="934" y="65" fill="black" font-size="14">6.5</text><line x1="946" y1="120" x2="946" y2="90" style="stroke:black;stroke-width:1" /><line x1="952" y1="120" x2="952" y2="90" style="stroke:black;stroke-width:1" /><line x1="958" y1="120" x2="958" y2="90" style="stroke:black;stroke-width:1" /><line x1="963" y1="120" x2="963" y2="90" style="stroke:black;stroke-width:1" /><line x1="969" y1="120" x2="969" y2="60" style="stroke:black;stroke-width:1" /><text x="965" y="50" fill="black" font-size="18">7</text><line x1="975" y1="120" x2="975" y2="90" style="stroke:black;stroke-width:1" /><line x1="980" y1="120" x2="980" y2="90" style="stroke:black;stroke-width:1" /><line x1="985" y1="120" x2="985" y2="90" style="stroke:black;stroke-width:1" /><line x1="991" y1="120" x2="991" y2="90" style="stroke:black;stroke-width:1" /><line x1="996" y1="120" x2="996" y2="70" style="stroke:black;stroke-width:1" /><text x="990" y="65" fill="black" font-size="14">7.5</text><line x1="1001" y1="120" x2="1001" y2="90" style="stroke:black;stroke-width:1" /><line x1="1006" y1="120" x2="1006" y2="90" style="stroke:black;stroke-width:1" /><line x1="1011" y1="120" x2="1011" y2="90" style="stroke:black;stroke-width:1" /><line x1="1016" y1="120" x2="1016" y2="90" style="stroke:black;stroke-width:1" /><line x1="1021" y1="120" x2="1021" y2="60" style="stroke:black;stroke-width:1" /><text x="1017" y="50" fill="black" font-size="18">8</text><line x1="1026" y1="120" x2="1026" y2="90" style="stroke:black;stroke-width:1" /><line x1="1031" y1="120" x2="1031" y2="90" style="stroke:black;stroke-width:1" /><line x1="1036" y1="120" x2="1036" y2="90" style="stroke:black;stroke-width:1" /><line x1="1040" y1="120" x2="1040" y2="90" style="stroke:black;stroke-width:1" /><line x1="1045" y1="120" x2="1045" y2="70" style="stroke:black;stroke-width:1" /><text x="1039" y="65" fill="black" font-size="14">8.5</text><line x1="1050" y1="120" x2="1050" y2="90" style="stroke:black;stroke-width:1" /><line x1="1054" y1="120" x2="1054" y2="90" style="stroke:black;stroke-width:1" /><line x1="1059" y1="120" x2="1059" y2="90" style="stroke:black;stroke-width:1" /><line x1="1063" y1="120" x2="1063" y2="90" style="stroke:black;stroke-width:1" /><line x1="1067" y1="120" x2="1067" y2="60" style="stroke:black;stroke-width:1" /><text x="1063" y="50" fill="black" font-size="18">9</text><line x1="1072" y1="120" x2="1072" y2="90" style="stroke:black;stroke-width:1" /><line x1="1076" y1="120" x2="1076" y2="90" style="stroke:black;stroke-width:1" /><line x1="1080" y1="120" x2="1080" y2="90" style="stroke:black;stroke-width:1" /><line x1="1084" y1="120" x2="1084" y2="90" style="stroke:black;stroke-width:1" /><line x1="1088" y1="120" x2="1088" y2="70" style="stroke:black;stroke-width:1" /><text x="1082" y="65" fill="black" font-size="14">9.5</text><line x1="1093" y1="120" x2="1093" y2="90" style="stroke:black;stroke-width:1" /><line x1="1097" y1="120" x2="1097" y2="90" style="stroke:black;stroke-width:1" /><line x1="1101" y1="120" x2="1101" y2="90" style="stroke:black;stroke-width:1" /><line x1="1105" y1="120" x2="1105" y2="90" style="stroke:black;stroke-width:1" /><line x1="1108" y1="120" x2="1108" y2="50" style="stroke:black;stroke-width:1" /><text x="1102" y="40" fill="black" font-size="18">10</text><rect width="980" height="120" x="0" y="120" fill="#f9fc69" /><line x1="0" y1="120" x2="980" y2="120" style="stroke:black;stroke-width:1" /><text x="8" y="160" fill="black" font-size="24">D</text><text x="493" y="175" fill="black" font-size="16">&#960;</text><line x1="497" y1="120" x2="497" y2="160" style="stroke:black;stroke-width:1" /><line x1="50" y1="120" x2="50" y2="190" style="stroke:black;stroke-width:1" /><text x="46" y="215" fill="black" font-size="18">1</text><line x1="69" y1="120" x2="69" y2="140" style="stroke:black;stroke-width:1" /><line x1="87" y1="120" x2="87" y2="150" style="stroke:black;stroke-width:1" /><text x="81" y="160" fill="black" font-size="12">1.1</text><line x1="105" y1="120" x2="105" y2="140" style="stroke:black;stroke-width:1" /><line x1="121" y1="120" x2="121" y2="150" style="stroke:black;stroke-width:1" /><text x="115" y="160" fill="black" font-size="12">1.2</text><line x1="137" y1="120" x2="137" y2="140" style="stroke:black;stroke-width:1" /><line x1="153" y1="120" x2="153" y2="150" style="stroke:black;stroke-width:1" /><text x="147" y="160" fill="black" font-size="12">1.3</text><line x1="167" y1="120" x2="167" y2="140" style="stroke:black;stroke-width:1" /><line x1="182" y1="120" x2="182" y2="150" style="stroke:black;stroke-width:1" /><text x="176" y="160" fill="black" font-size="12">1.4</text><line x1="195" y1="120" x2="195" y2="140" style="stroke:black;stroke-width:1" /><line x1="208" y1="120" x2="208" y2="170" style="stroke:black;stroke-width:1" /><text x="202" y="185" fill="black" font-size="14">1.5</text><line x1="221" y1="120" x2="221" y2="140" style="stroke:black;stroke-width:1" /><line x1="234" y1="120" x2="234" y2="150" style="stroke:black;stroke-width:1" /><text x="228" y="160" fill="black" font-size="12">1.6</text><line x1="246" y1="120" x2="246" y2="140" style="stroke:black;stroke-width:1" /><line x1="257" y1="120" x2="257" y2="150" style="stroke:black;stroke-width:1" /><text x="251" y="160" fill="black" font-size="12">1.7</text><line x1="269" y1="120" x2="269" y2="140" style="stroke:black;stroke-width:1" /><line x1="280" y1="120" x2="280" y2="150" style="stroke:black;stroke-width:1" /><text x="274" y="160" fill="black" font-size="12">1.8</text><line x1="290" y1="120" x2="290" y2="140" style="stroke:black;stroke-width:1" /><line x1="301" y1="120" x2="301" y2="150" style="stroke:black;stroke-width:1" /><text x="295" y="160" fill="black" font-size="12">1.9</text><line x1="311" y1="120" x2="311" y2="140" style="stroke:black;stroke-width:1" /><line x1="321" y1="120" x2="321" y2="180" style="stroke:black;stroke-width:1" /><text x="317" y="200" fill="black" font-size="18">2</text><line x1="331" y1="120" x2="331" y2="140" style="stroke:black;stroke-width:1" /><line x1="340" y1="120" x2="340" y2="150" style="stroke:black;stroke-width:1" /><line x1="349" y1="120" x2="349" y2="140" style="stroke:black;stroke-width:1" /><line x1="358" y1="120" x2="358" y2="150" style="stroke:black;stroke-width:1" /><line x1="367" y1="120" x2="367" y2="140" style="stroke:black;stroke-width:1" /><line x1="376" y1="120" x2="376" y2="150" style="stroke:black;stroke-width:1" /><line x1="384" y1="120" x2="384" y2="140" style="stroke:black;stroke-width:1" /><line x1="392" y1="120" x2="392" y2="150" style="stroke:black;stroke-width:1" /><line x1="400" y1="120" x2="400" y2="140" style="stroke:black;stroke-width:1" /><line x1="408" y1="120" x2="408" y2="170" style="stroke:black;stroke-width:1" /><text x="402" y="185" fill="black" font-size="14">2.5</text><line x1="416" y1="120" x2="416" y2="140" style="stroke:black;stroke-width:1" /><line x1="423" y1="120" x2="423" y2="150" style="stroke:black;stroke-width:1" /><line x1="431" y1="120" x2="431" y2="140" style="stroke:black;stroke-width:1" /><line x1="438" y1="120" x2="438" y2="150" style="stroke:black;stroke-width:1" /><line x1="445" y1="120" x2="445" y2="140" style="stroke:black;stroke-width:1" /><line x1="452" y1="120" x2="452" y2="150" style="stroke:black;stroke-width:1" /><line x1="459" y1="120" x2="459" y2="140" style="stroke:black;stroke-width:1" /><line x1="466" y1="120" x2="466" y2="150" style="stroke:black;stroke-width:1" /><line x1="473" y1="120" x2="473" y2="140" style="stroke:black;stroke-width:1" /><line x1="479" y1="120" x2="479" y2="180" style="stroke:black;stroke-width:1" /><text x="475" y="200" fill="black" font-size="18">3</text><line x1="492" y1="120" x2="492" y2="150" style="stroke:black;stroke-width:1" /><line x1="505" y1="120" x2="505" y2="150" style="stroke:black;stroke-width:1" /><line x1="517" y1="120" x2="517" y2="150" style="stroke:black;stroke-width:1" /><line x1="528" y1="120" x2="528" y2="150" style="stroke:black;stroke-width:1" /><line x1="540" y1="120" x2="540" y2="170" style="stroke:black;stroke-width:1" /><text x="534" y="185" fill="black" font-size="14">3.5</text><line x1="551" y1="120" x2="551" y2="150" style="stroke:black;stroke-width:1" /><line x1="561" y1="120" x2="561" y2="150" style="stroke:black;stroke-width:1" /><line x1="572" y1="120" x2="572" y2="150" style="stroke:black;stroke-width:1" /><line x1="582" y1="120" x2="582" y2="150" style="stroke:black;stroke-width:1" /><line x1="592" y1="120" x2="592" y2="180" style="stroke:black;stroke-width:1" /><text x="588" y="200" fill="black" font-size="18">4</text><line x1="602" y1="120" x2="602" y2="150" style="stroke:black;stroke-width:1" /><line x1="611" y1="120" x2="611" y2="150" style="stroke:black;stroke-width:1" /><line x1="620" y1="120" x2="620" y2="150" style="stroke:black;stroke-width:1" /><line x1="629" y1="120" x2="629" y2="150" style="stroke:black;stroke-width:1" /><line x1="638" y1="120" x2="638" y2="170" style="stroke:black;stroke-width:1" /><text x="632" y="185" fill="black" font-size="14">4.5</text><line x1="646" y1="120" x2="646" y2="150" style="stroke:black;stroke-width:1" /><line x1="655" y1="120" x2="655" y2="150" style="stroke:black;stroke-width:1" /><line x1="663" y1="120" x2="663" y2="150" style="stroke:black;stroke-width:1" /><line x1="671" y1="120" x2="671" y2="150" style="stroke:black;stroke-width:1" /><line x1="679" y1="120" x2="679" y2="180" style="stroke:black;stroke-width:1" /><text x="675" y="200" fill="black" font-size="18">5</text><line x1="687" y1="120" x2="687" y2="150" style="stroke:black;stroke-width:1" /><line x1="694" y1="120" x2="694" y2="150" style="stroke:black;stroke-width:1" /><line x1="702" y1="120" x2="702" y2="150" style="stroke:black;stroke-width:1" /><line x1="709" y1="120" x2="709" y2="150" style="stroke:black;stroke-width:1" /><line x1="716" y1="120" x2="716" y2="170" style="stroke:black;stroke-width:1" /><text x="710" y="185" fill="black" font-size="14">5.5</text><line x1="723" y1="120" x2="723" y2="150" style="stroke:black;stroke-width:1" /><line x1="730" y1="120" x2="730" y2="150" style="stroke:black;stroke-width:1" /><line x1="737" y1="120" x2="737" y2="150" style="stroke:black;stroke-width:1" /><line x1="744" y1="120" x2="744" y2="150" style="stroke:black;stroke-width:1" /><line x1="750" y1="120" x2="750" y2="180" style="stroke:black;stroke-width:1" /><text x="746" y="200" fill="black" font-size="18">6</text><line x1="757" y1="120" x2="757" y2="150" style="stroke:black;stroke-width:1" /><line x1="763" y1="120" x2="763" y2="150" style="stroke:black;stroke-width:1" /><line x1="769" y1="120" x2="769" y2="150" style="stroke:black;stroke-width:1" /><line x1="776" y1="120" x2="776" y2="150" style="stroke:black;stroke-width:1" /><line x1="782" y1="120" x2="782" y2="170" style="stroke:black;stroke-width:1" /><text x="776" y="185" fill="black" font-size="14">6.5</text><line x1="788" y1="120" x2="788" y2="150" style="stroke:black;stroke-width:1" /><line x1="793" y1="120" x2="793" y2="150" style="stroke:black;stroke-width:1" /><line x1="799" y1="120" x2="799" y2="150" style="stroke:black;stroke-width:1" /><line x1="805" y1="120" x2="805" y2="150" style="stroke:black;stroke-width:1" /><line x1="811" y1="120" x2="811" y2="180" style="stroke:black;stroke-width:1" /><text x="807" y="200" fill="black" font-size="18">7</text><line x1="816" y1="120" x2="816" y2="150" style="stroke:black;stroke-width:1" /><line x1="822" y1="120" x2="822" y2="150" style="stroke:black;stroke-width:1" /><line x1="827" y1="120" x2="827" y2="150" style="stroke:black;stroke-width:1" /><line x1="832" y1="120" x2="832" y2="150" style="stroke:black;stroke-width:1" /><line x1="838" y1="120" x2="838" y2="170" style="stroke:black;stroke-width:1" /><text x="832" y="185" fill="black" font-size="14">7.5</text><line x1="843" y1="120" x2="843" y2="150" style="stroke:black;stroke-width:1" /><line x1="848" y1="120" x2="848" y2="150" style="stroke:black;stroke-width:1" /><line x1="853" y1="120" x2="853" y2="150" style="stroke:black;stroke-width:1" /><line x1="858" y1="120" x2="858" y2="150" style="stroke:black;stroke-width:1" /><line x1="863" y1="120" x2="863" y2="180" style="stroke:black;stroke-width:1" /><text x="859" y="200" fill="black" font-size="18">8</text><line x1="868" y1="120" x2="868" y2="150" style="stroke:black;stroke-width:1" /><line x1="872" y1="120" x2="872" y2="150" style="stroke:black;stroke-width:1" /><line x1="877" y1="120" x2="877" y2="150" style="stroke:black;stroke-width:1" /><line x1="882" y1="120" x2="882" y2="150" style="stroke:black;stroke-width:1" /><line x1="886" y1="120" x2="886" y2="170" style="stroke:black;stroke-width:1" /><text x="880" y="185" fill="black" font-size="14">8.5</text><line x1="891" y1="120" x2="891" y2="150" style="stroke:black;stroke-width:1" /><line x1="896" y1="120" x2="896" y2="150" style="stroke:black;stroke-width:1" /><line x1="900" y1="120" x2="900" y2="150" style="stroke:black;stroke-width:1" /><line x1="904" y1="120" x2="904" y2="150" style="stroke:black;stroke-width:1" /><line x1="909" y1="120" x2="909" y2="180" style="stroke:black;stroke-width:1" /><text x="905" y="200" fill="black" font-size="18">9</text><line x1="913" y1="120" x2="913" y2="150" style="stroke:black;stroke-width:1" /><line x1="917" y1="120" x2="917" y2="150" style="stroke:black;stroke-width:1" /><line x1="922" y1="120" x2="922" y2="150" style="stroke:black;stroke-width:1" /><line x1="926" y1="120" x2="926" y2="150" style="stroke:black;stroke-width:1" /><line x1="930" y1="120" x2="930" y2="170" style="stroke:black;stroke-width:1" /><text x="924" y="185" fill="black" font-size="14">9.5</text><line x1="934" y1="120" x2="934" y2="150" style="stroke:black;stroke-width:1" /><line x1="938" y1="120" x2="938" y2="150" style="stroke:black;stroke-width:1" /><line x1="942" y1="120" x2="942" y2="150" style="stroke:black;stroke-width:1" /><line x1="946" y1="120" x2="946" y2="150" style="stroke:black;stroke-width:1" /><line x1="950" y1="120" x2="950" y2="190" style="stroke:black;stroke-width:1" /><text x="944" y="215" fill="black" font-size="18">10</text></svg>