<?xml version='1.0' encoding='us-ascii'?>
<svg width="1127.6699110382076" height="300" version="1.1" xmlns="http://www.w3.org/2000/svg"><style>text {
          font-family: Arial, Helvetica, sans-serif;
          font-weight: Thin;
          }
    </style><rect width="1000" height="120" x="127.66991103820763" y="0" style="fill:#f9fc69;stroke-width:1;stroke:black" /><rect width="1000" height="180" x="0.0" y="120" style="fill:#f9fc69;stroke-width:1;stroke:black" /><line x1="607.0790402859037" y1="0" x2="607.0790402859037" y2="300" style="stroke:grey;stroke-width:1" /><g transform="translate(0 120)"><text x="8.0" y="40" fill="black" font-size="24">D</text><text x="493.5" y="55" fill="black" font-size="16">&#960;</text><line x1="497.5" y1="0" x2="497.5" y2="40" style="stroke:black;stroke-width:1" /><text x="962.0" y="40" fill="black" font-size="16">x</text><line x1="50.0" y1="0" x2="50.0" y2="70" style="stroke:black;stroke-width:1" /><text x="46" y="95" fill="black" font-size="18">1</text><line x1="69.0" y1="0" x2="69.0" y2="20" style="stroke:black;stroke-width:1" /><line x1="87.25" y1="0" x2="87.25" y2="30" style="stroke:black;stroke-width:1" /><text x="81" y="40" fill="black" font-size="12">1.1</text><line x1="104.75" y1="0" x2="104.75" y2="20" style="stroke:black;stroke-width:1" /><line x1="121.25" y1="0" x2="121.25" y2="30" style="stroke:black;stroke-width:1" /><text x="115" y="40" fill="black" font-size="12">1.2</text><line x1="137.25" y1="0" x2="137.25" y2="20" style="stroke:black;stroke-width:1" /><line x1="152.5" y1="0" x2="152.5" y2="30" style="stroke:black;stroke-width:1" /><text x="147" y="40" fill="black" font-size="12">1.3</text><line x1="167.25" y1="0" x2="167.25" y2="20" style="stroke:black;stroke-width:1" /><line x1="181.5" y1="0" x2="181.5" y2="30" style="stroke:black;stroke-width:1" /><text x="176" y="40" fill="black" font-size="12">1.4</text><line x1="195.25" y1="0" x2="195.25" y2="20" style="stroke:black;stroke-width:1" /><line x1="208.5" y1="0" x2="208.5" y2="50" style="stroke:black;stroke-width:1" /><text x="202" y="65" fill="black" font-size="14">1.5</text><line x1="221.25" y1="0" x2="221.25" y2="20" style="stroke:black;stroke-width:1" /><line x1="233.75" y1="0" x2="233.75" y2="30" style="stroke:black;stroke-width:1" /><text x="228" y="40" fill="black" font-size="12">1.6</text><line x1="245.75" y1="0" x2="245.75" y2="20" style="stroke:black;stroke-width:1" /><line x1="257.5" y1="0" x2="257.5" y2="30" style="stroke:black;stroke-width:1" /><text x="251" y="40" fill="black" font-size="12">1.7</text><line x1="268.75" y1="0" x2="268.75" y2="20" style="stroke:black;stroke-width:1" /><line x1="279.75" y1="0" x2="279.75" y2="30" style="stroke:black;stroke-width:1" /><text x="274" y="40" fill="black" font-size="12">1.8</text><line x1="290.5" y1="0" x2="290.5" y2="20" style="stroke:black;stroke-width:1" /><line x1="301.0" y1="0" x2="301.0" y2="30" style="stroke:black;stroke-width:1" /><text x="295" y="40" fill="black" font-size="12">1.9</text><line x1="311.0" y1="0" x2="311.0" y2="20" style="stroke:black;stroke-width:1" /><line x1="321.0" y1="0" x2="321.0" y2="60" style="stroke:black;stroke-width:1" /><text x="317" y="80" fill="black" font-size="18">2</text><line x1="330.5" y1="0" x2="330.5" y2="20" style="stroke:black;stroke-width:1" /><line x1="340.0" y1="0" x2="340.0" y2="30" style="stroke:black;stroke-width:1" /><line x1="349.25" y1="0" x2="349.25" y2="20" style="stroke:black;stroke-width:1" /><line x1="358.25" y1="0" x2="358.25" y2="30" style="stroke:black;stroke-width:1" /><line x1="367.0" y1="0" x2="367.0" y2="20" style="stroke:black;stroke-width:1" /><line x1="375.5" y1="0" x2="375.5" y2="30" style="stroke:black;stroke-width:1" /><line x1="384.0" y1="0" x2="384.0" y2="20" style="stroke:black;stroke-width:1" /><line x1="392.25" y1="0" x2="392.25" y2="30" style="stroke:black;stroke-width:1" /><line x1="400.25" y1="0" x2="400.25" y2="20" style="stroke:black;stroke-width:1" /><line x1="408.25" y1="0" x2="408.25" y2="50" style="stroke:black;stroke-width:1" /><text x="402" y="65" fill="black" font-size="14">2.5</text><line x1="416.0" y1="0" x2="416.0" y2="20" style="stroke:black;stroke-width:1" /><line x1="423.5" y1="0" x2="423.5" y2="30" style="stroke:black;stroke-width:1" /><line x1="431.0" y1="0" x2="431.0" y2="20" style="stroke:black;stroke-width:1" /><line x1="438.25" y1="0" x2="438.25" y2="30" style="stroke:black;stroke-width:1" /><line x1="445.5" y1="0" x2="445.5" y2="20" style="stroke:black;stroke-width:1" /><line x1="452.5" y1="0" x2="452.5" y2="30" style="stroke:black;stroke-width:1" /><line x1="459.25" y1="0" x2="459.25" y2="20" style="stroke:black;stroke-width:1" /><line x1="466.25" y1="0" x2="466.25" y2="30" style="stroke:black;stroke-width:1" /><line x1="472.75" y1="0" x2="472.75" y2="20" style="stroke:black;stroke-width:1" /><line x1="479.5" y1="0" x2="479.5" y2="60" style="stroke:black;stroke-width:1" /><text x="475" y="80" fill="black" font-size="18">3</text><line x1="485.75" y1="0" x2="485.75" y2="20" style="stroke:black;stroke-width:1" /><line x1="492.25" y1="0" x2="492.25" y2="30" style="stroke:black;stroke-width:1" /><line x1="498.5" y1="0" x2="498.5" y2="20" style="stroke:black;stroke-width:1" /><line x1="504.75" y1="0" x2="504.75" y2="30" style="stroke:black;stroke-width:1" /><line x1="510.75" y1="0" x2="510.75" y2="20" style="stroke:black;stroke-width:1" /><line x1="516.75" y1="0" x2="516.75" y2="30" style="stroke:black;stroke-width:1" /><line x1="522.5" y1="0" x2="522.5" y2="20" style="stroke:black;stroke-width:1" /><line x1="528.25" y1="0" x2="528.25" y2="30" style="stroke:black;stroke-width:1" /><line x1="534.0" y1="0" x2="534.0" y2="20" style="stroke:black;stroke-width:1" /><line x1="539.75" y1="0" x2="539.75" y2="50" style="stroke:black;stroke-width:1" /><text x="534" y="65" fill="black" font-size="14">3.5</text><line x1="545.25" y1="0" x2="545.25" y2="20" style="stroke:black;stroke-width:1" /><line x1="550.75" y1="0" x2="550.75" y2="30" style="stroke:black;stroke-width:1" /><line x1="556.0" y1="0" x2="556.0" y2="20" style="stroke:black;stroke-width:1" /><line x1="561.5" y1="0" x2="561.5" y2="30" style="stroke:black;stroke-width:1" /><line x1="566.75" y1="0" x2="566.75" y2="20" style="stroke:black;stroke-width:1" /><line x1="571.75" y1="0" x2="571.75" y2="30" style="stroke:black;stroke-width:1" /><line x1="577.0" y1="0" x2="577.0" y2="20" style="stroke:black;stroke-width:1" /><line x1="582.0" y1="0" x2="582.0" y2="30" style="stroke:black;stroke-width:1" /><line x1="587.0" y1="0" x2="587.0" y2="20" style="stroke:black;stroke-width:1" /><line x1="591.75" y1="0" x2="591.75" y2="60" style="stroke:black;stroke-width:1" /><text x="588" y="80" fill="black" font-size="18">4</text><line x1="601.5" y1="0" x2="601.5" y2="30" style="stroke:black;stroke-width:1" /><line x1="611.0" y1="0" x2="611.0" y2="30" style="stroke:black;stroke-width:1" /><line x1="620.0" y1="0" x2="620.0" y2="30" style="stroke:black;stroke-width:1" /><line x1="629.0" y1="0" x2="629.0" y2="30" style="stroke:black;stroke-width:1" /><line x1="638.0" y1="0" x2="638.0" y2="50" style="stroke:black;stroke-width:1" /><text x="632" y="65" fill="black" font-size="14">4.5</text><line x1="646.5" y1="0" x2="646.5" y2="30" style="stroke:black;stroke-width:1" /><line x1="655.0" y1="0" x2="655.0" y2="30" style="stroke:black;stroke-width:1" /><line x1="663.0" y1="0" x2="663.0" y2="30" style="stroke:black;stroke-width:1" /><line x1="671.25" y1="0" x2="671.25" y2="30" style="stroke:black;stroke-width:1" /><line x1="679.0" y1="0" x2="679.0" y2="60" style="stroke:black;stroke-width:1" /><text x="675" y="80" fill="black" font-size="18">5</text><line x1="686.75" y1="0" x2="686.75" y2="30" style="stroke:black;stroke-width:1" /><line x1="694.5" y1="0" x2="694.5" y2="30" style="stroke:black;stroke-width:1" /><line x1="701.75" y1="0" x2="701.75" y2="30" style="stroke:black;stroke-width:1" /><line x1="709.25" y1="0" x2="709.25" y2="30" style="stroke:black;stroke-width:1" /><line x1="716.25" y1="0" x2="716.25" y2="50" style="stroke:black;stroke-width:1" /><text x="710" y="65" fill="black" font-size="14">5.5</text><line x1="723.25" y1="0" x2="723.25" y2="30" style="stroke:black;stroke-width:1" /><line x1="730.25" y1="0" x2="730.25" y2="30" style="stroke:black;stroke-width:1" /><line x1="737.0" y1="0" x2="737.0" y2="30" style="stroke:black;stroke-width:1" /><line x1="743.75" y1="0" x2="743.75" y2="30" style="stroke:black;stroke-width:1" /><line x1="750.25" y1="0" x2="750.25" y2="60" style="stroke:black;stroke-width:1" /><text x="746" y="80" fill="black" font-size="18">6</text><line x1="756.75" y1="0" x2="756.75" y2="30" style="stroke:black;stroke-width:1" /><line x1="763.25" y1="0" x2="763.25" y2="30" style="stroke:black;stroke-width:1" /><line x1="769.5" y1="0" x2="769.5" y2="30" style="stroke:black;stroke-width:1" /><line x1="775.5" y1="0" x2="775.5" y2="30" style="stroke:black;stroke-width:1" /><line x1="781.5" y1="0" x2="781.5" y2="50" style="stroke:black;stroke-width:1" /><text x="776" y="65" fill="black" font-size="14">6.5</text><line x1="787.5" y1="0" x2="787.5" y2="30" style="stroke:black;stroke-width:1" /><line x1="793.5" y1="0" x2="793.5" y2="30" style="stroke:black;stroke-width:1" /><line x1="799.25" y1="0" x2="799.25" y2="30" style="stroke:black;stroke-width:1" /><line x1="805.0" y1="0" x2="805.0" y2="30" style="stroke:black;stroke-width:1" /><line x1="810.5" y1="0" x2="810.5" y2="60" style="stroke:black;stroke-width:1" /><text x="807" y="80" fill="black" font-size="18">7</text><line x1="816.25" y1="0" x2="816.25" y2="30" style="stroke:black;stroke-width:1" /><line x1="821.5" y1="0" x2="821.5" y2="30" style="stroke:black;stroke-width:1" /><line x1="827.0" y1="0" x2="827.0" y2="30" style="stroke:black;stroke-width:1" /><line x1="832.25" y1="0" x2="832.25" y2="30" style="stroke:black;stroke-width:1" /><line x1="837.5" y1="0" x2="837.5" y2="50" style="stroke:black;stroke-width:1" /><text x="832" y="65" fill="black" font-size="14">7.5</text><line x1="842.75" y1="0" x2="842.75" y2="30" style="stroke:black;stroke-width:1" /><line x1="847.75" y1="0" x2="847.75" y2="30" style="stroke:black;stroke-width:1" /><line x1="853.0" y1="0" x2="853.0" y2="30" style="stroke:black;stroke-width:1" /><line x1="857.75" y1="0" x2="857.75" y2="30" style="stroke:black;stroke-width:1" /><line x1="862.75" y1="0" x2="862.75" y2="60" style="stroke:black;stroke-width:1" /><text x="859" y="80" fill="black" font-size="18">8</text><line x1="867.75" y1="0" x2="867.75" y2="30" style="stroke:black;stroke-width:1" /><line x1="872.5" y1="0" x2="872.5" y2="30" style="stroke:black;stroke-width:1" /><line x1="877.25" y1="0" x2="877.25" y2="30" style="stroke:black;stroke-width:1" /><line x1="881.75" y1="0" x2="881.75" y2="30" style="stroke:black;stroke-width:1" /><line x1="886.5" y1="0" x2="886.5" y2="50" style="stroke:black;stroke-width:1" /><text x="880" y="65" fill="black" font-size="14">8.5</text><line x1="891.0" y1="0" x2="891.0" y2="30" style="stroke:black;stroke-width:1" /><line x1="895.5" y1="0" x2="895.5" y2="30" style="stroke:black;stroke-width:1" /><line x1="900.0" y1="0" x2="900.0" y2="30" style="stroke:black;stroke-width:1" /><line x1="904.5" y1="0" x2="904.5" y2="30" style="stroke:black;stroke-width:1" /><line x1="908.75" y1="0" x2="908.75" y2="60" style="stroke:black;stroke-width:1" /><text x="905" y="80" fill="black" font-size="18">9</text><line x1="913.25" y1="0" x2="913.25" y2="30" style="stroke:black;stroke-width:1" /><line x1="917.5" y1="0" x2="917.5" y2="30" style="stroke:black;stroke-width:1" /><line x1="921.75" y1="0" x2="921.75" y2="30" style="stroke:black;stroke-width:1" /><line x1="925.75" y1="0" x2="925.75" y2="30" style="stroke:black;stroke-width:1" /><line x1="930.0" y1="0" x2="930.0" y2="50" style="stroke:black;stroke-width:1" /><text x="924" y="65" fill="black" font-size="14">9.5</text><line x1="934.0" y1="0" x2="934.0" y2="30" style="stroke:black;stroke-width:1" /><line x1="938.0" y1="0" x2="938.0" y2="30" style="stroke:black;stroke-width:1" /><line x1="942.0" y1="0" x2="942.0" y2="30" style="stroke:black;stroke-width:1" /><line x1="946.0" y1="0" x2="946.0" y2="30" style="stroke:black;stroke-width:1" /><line x1="950.0" y1="0" x2="950.0" y2="70" style="stroke:black;stroke-width:1" /><text x="944" y="95" fill="black" font-size="18">10</text></g><g transform="translate(0 20)"><text x="135.66991103820763" y="70" fill="black" font-size="24">C</text><text x="621.0" y="53" fill="black" font-size="16">&#960;</text><line x1="625.0" y1="100" x2="625.0" y2="60" style="stroke:black;stroke-width:1" /><text x="1089.6699110382076" y="68" fill="black" font-size="16">x</text><line x1="177.75" y1="100" x2="177.75" y2="30" style="stroke:black;stroke-width:1" /><text x="174" y="20" fill="black" font-size="18">1</text><line x1="196.75" y1="100" x2="196.75" y2="80" style="stroke:black;stroke-width:1" /><line x1="215.0" y1="100" x2="215.0" y2="70" style="stroke:black;stroke-width:1" /><text x="208.92332768061019" y="67" fill="black" font-size="12">1.1</text><line x1="232.25" y1="100" x2="232.25" y2="80" style="stroke:black;stroke-width:1" /><line x1="249.0" y1="100" x2="249.0" y2="70" style="stroke:black;stroke-width:1" /><text x="242.93303248106997" y="67" fill="black" font-size="12">1.2</text><line x1="265.0" y1="100" x2="265.0" y2="80" style="stroke:black;stroke-width:1" /><line x1="280.25" y1="100" x2="280.25" y2="70" style="stroke:black;stroke-width:1" /><text x="274.2189281143607" y="67" fill="black" font-size="12">1.3</text><line x1="295.0" y1="100" x2="295.0" y2="80" style="stroke:black;stroke-width:1" /><line x1="309.25" y1="100" x2="309.25" y2="70" style="stroke:black;stroke-width:1" /><text x="303.1851431486218" y="67" fill="black" font-size="12">1.4</text><line x1="323.0" y1="100" x2="323.0" y2="80" style="stroke:black;stroke-width:1" /><line x1="336.25" y1="100" x2="336.25" y2="50" style="stroke:black;stroke-width:1" /><text x="330.1520441883207" y="45" fill="black" font-size="14">1.5</text><line x1="349.0" y1="100" x2="349.0" y2="80" style="stroke:black;stroke-width:1" /><line x1="361.5" y1="100" x2="361.5" y2="70" style="stroke:black;stroke-width:1" /><text x="355.37789542854" y="67" fill="black" font-size="12">1.6</text><line x1="373.5" y1="100" x2="373.5" y2="80" style="stroke:black;stroke-width:1" /><line x1="385.0" y1="100" x2="385.0" y2="70" style="stroke:black;stroke-width:1" /><text x="379.07394027865416" y="67" fill="black" font-size="12">1.7</text><line x1="396.5" y1="100" x2="396.5" y2="80" style="stroke:black;stroke-width:1" /><line x1="407.5" y1="100" x2="407.5" y2="70" style="stroke:black;stroke-width:1" /><text x="401.4151656311831" y="67" fill="black" font-size="12">1.8</text><line x1="418.0" y1="100" x2="418.0" y2="80" style="stroke:black;stroke-width:1" /><line x1="428.5" y1="100" x2="428.5" y2="70" style="stroke:black;stroke-width:1" /><text x="422.5481518957537" y="67" fill="black" font-size="12">1.9</text><line x1="438.75" y1="100" x2="438.75" y2="80" style="stroke:black;stroke-width:1" /><line x1="448.5" y1="100" x2="448.5" y2="40" style="stroke:black;stroke-width:1" /><text x="445" y="34" fill="black" font-size="18">2</text><line x1="458.25" y1="100" x2="458.25" y2="80" style="stroke:black;stroke-width:1" /><line x1="467.75" y1="100" x2="467.75" y2="70" style="stroke:black;stroke-width:1" /><line x1="476.75" y1="100" x2="476.75" y2="80" style="stroke:black;stroke-width:1" /><line x1="485.75" y1="100" x2="485.75" y2="70" style="stroke:black;stroke-width:1" /><line x1="494.75" y1="100" x2="494.75" y2="80" style="stroke:black;stroke-width:1" /><line x1="503.25" y1="100" x2="503.25" y2="70" style="stroke:black;stroke-width:1" /><line x1="511.75" y1="100" x2="511.75" y2="80" style="stroke:black;stroke-width:1" /><line x1="519.75" y1="100" x2="519.75" y2="70" style="stroke:black;stroke-width:1" /><line x1="528.0" y1="100" x2="528.0" y2="80" style="stroke:black;stroke-width:1" /><line x1="535.75" y1="100" x2="535.75" y2="50" style="stroke:black;stroke-width:1" /><text x="529.8159188430415" y="45" fill="black" font-size="14">2.5</text><line x1="543.5" y1="100" x2="543.5" y2="80" style="stroke:black;stroke-width:1" /><line x1="551.25" y1="100" x2="551.25" y2="70" style="stroke:black;stroke-width:1" /><line x1="558.5" y1="100" x2="558.5" y2="80" style="stroke:black;stroke-width:1" /><line x1="566.0" y1="100" x2="566.0" y2="70" style="stroke:black;stroke-width:1" /><line x1="573.0" y1="100" x2="573.0" y2="80" style="stroke:black;stroke-width:1" /><line x1="580.0" y1="100" x2="580.0" y2="70" style="stroke:black;stroke-width:1" /><line x1="587.0" y1="100" x2="587.0" y2="80" style="stroke:black;stroke-width:1" /><line x1="593.75" y1="100" x2="593.75" y2="70" style="stroke:black;stroke-width:1" /><line x1="600.5" y1="100" x2="600.5" y2="80" style="stroke:black;stroke-width:1" /><line x1="607.0" y1="100" x2="607.0" y2="40" style="stroke:black;stroke-width:1" /><text x="603" y="34" fill="black" font-size="18">3</text><line x1="613.5" y1="100" x2="613.5" y2="80" style="stroke:black;stroke-width:1" /><line x1="620.0" y1="100" x2="620.0" y2="70" style="stroke:black;stroke-width:1" /><line x1="626.25" y1="100" x2="626.25" y2="80" style="stroke:black;stroke-width:1" /><line x1="632.25" y1="100" x2="632.25" y2="70" style="stroke:black;stroke-width:1" /><line x1="638.25" y1="100" x2="638.25" y2="80" style="stroke:black;stroke-width:1" /><line x1="644.25" y1="100" x2="644.25" y2="70" style="stroke:black;stroke-width:1" /><line x1="650.25" y1="100" x2="650.25" y2="80" style="stroke:black;stroke-width:1" /><line x1="656.0" y1="100" x2="656.0" y2="70" style="stroke:black;stroke-width:1" /><line x1="661.75" y1="100" x2="661.75" y2="80" style="stroke:black;stroke-width:1" /><line x1="667.25" y1="100" x2="667.25" y2="50" style="stroke:black;stroke-width:1" /><text x="661.3311509534557" y="45" fill="black" font-size="14">3.5</text><line x1="673.0" y1="100" x2="673.0" y2="80" style="stroke:black;stroke-width:1" /><line x1="678.25" y1="100" x2="678.25" y2="70" style="stroke:black;stroke-width:1" /><line x1="683.75" y1="100" x2="683.75" y2="80" style="stroke:black;stroke-width:1" /><line x1="689.0" y1="100" x2="689.0" y2="70" style="stroke:black;stroke-width:1" /><line x1="694.25" y1="100" x2="694.25" y2="80" style="stroke:black;stroke-width:1" /><line x1="699.5" y1="100" x2="699.5" y2="70" style="stroke:black;stroke-width:1" /><line x1="704.5" y1="100" x2="704.5" y2="80" style="stroke:black;stroke-width:1" /><line x1="709.75" y1="100" x2="709.75" y2="70" style="stroke:black;stroke-width:1" /><line x1="714.5" y1="100" x2="714.5" y2="80" style="stroke:black;stroke-width:1" /><line x1="719.5" y1="100" x2="719.5" y2="40" style="stroke:black;stroke-width:1" /><text x="716" y="34" fill="black" font-size="18">4</text><line x1="729.25" y1="100" x2="729.25" y2="70" style="stroke:black;stroke-width:1" /><line x1="738.5" y1="100" x2="738.5" y2="70" style="stroke:black;stroke-width:1" /><line x1="747.75" y1="100" x2="747.75" y2="70" style="stroke:black;stroke-width:1" /><line x1="756.75" y1="100" x2="756.75" y2="70" style="stroke:black;stroke-width:1" /><line x1="765.5" y1="100" x2="765.5" y2="50" style="stroke:black;stroke-width:1" /><text x="759.5611734360169" y="45" fill="black" font-size="14">4.5</text><line x1="774.25" y1="100" x2="774.25" y2="70" style="stroke:black;stroke-width:1" /><line x1="782.5" y1="100" x2="782.5" y2="70" style="stroke:black;stroke-width:1" /><line x1="790.75" y1="100" x2="790.75" y2="70" style="stroke:black;stroke-width:1" /><line x1="798.75" y1="100" x2="798.75" y2="70" style="stroke:black;stroke-width:1" /><line x1="806.75" y1="100" x2="806.75" y2="40" style="stroke:black;stroke-width:1" /><text x="803" y="34" fill="black" font-size="18">5</text><line x1="814.5" y1="100" x2="814.5" y2="70" style="stroke:black;stroke-width:1" /><line x1="822.0" y1="100" x2="822.0" y2="70" style="stroke:black;stroke-width:1" /><line x1="829.5" y1="100" x2="829.5" y2="70" style="stroke:black;stroke-width:1" /><line x1="836.75" y1="100" x2="836.75" y2="70" style="stroke:black;stroke-width:1" /><line x1="844.0" y1="100" x2="844.0" y2="50" style="stroke:black;stroke-width:1" /><text x="837.9963315830271" y="45" fill="black" font-size="14">5.5</text><line x1="851.0" y1="100" x2="851.0" y2="70" style="stroke:black;stroke-width:1" /><line x1="858.0" y1="100" x2="858.0" y2="70" style="stroke:black;stroke-width:1" /><line x1="864.75" y1="100" x2="864.75" y2="70" style="stroke:black;stroke-width:1" /><line x1="871.5" y1="100" x2="871.5" y2="70" style="stroke:black;stroke-width:1" /><line x1="878.0" y1="100" x2="878.0" y2="40" style="stroke:black;stroke-width:1" /><text x="874" y="34" fill="black" font-size="18">6</text><line x1="884.5" y1="100" x2="884.5" y2="70" style="stroke:black;stroke-width:1" /><line x1="890.75" y1="100" x2="890.75" y2="70" style="stroke:black;stroke-width:1" /><line x1="897.0" y1="100" x2="897.0" y2="70" style="stroke:black;stroke-width:1" /><line x1="903.25" y1="100" x2="903.25" y2="70" style="stroke:black;stroke-width:1" /><line x1="909.25" y1="100" x2="909.25" y2="50" style="stroke:black;stroke-width:1" /><text x="903.2919320167777" y="45" fill="black" font-size="14">6.5</text><line x1="915.25" y1="100" x2="915.25" y2="70" style="stroke:black;stroke-width:1" /><line x1="921.25" y1="100" x2="921.25" y2="70" style="stroke:black;stroke-width:1" /><line x1="927.0" y1="100" x2="927.0" y2="70" style="stroke:black;stroke-width:1" /><line x1="932.75" y1="100" x2="932.75" y2="70" style="stroke:black;stroke-width:1" /><line x1="938.25" y1="100" x2="938.25" y2="40" style="stroke:black;stroke-width:1" /><text x="934" y="34" fill="black" font-size="18">7</text><line x1="943.75" y1="100" x2="943.75" y2="70" style="stroke:black;stroke-width:1" /><line x1="949.25" y1="100" x2="949.25" y2="70" style="stroke:black;stroke-width:1" /><line x1="954.75" y1="100" x2="954.75" y2="70" style="stroke:black;stroke-width:1" /><line x1="960.0" y1="100" x2="960.0" y2="70" style="stroke:black;stroke-width:1" /><line x1="965.25" y1="100" x2="965.25" y2="50" style="stroke:black;stroke-width:1" /><text x="959.2250480907377" y="45" fill="black" font-size="14">7.5</text><line x1="970.5" y1="100" x2="970.5" y2="70" style="stroke:black;stroke-width:1" /><line x1="975.5" y1="100" x2="975.5" y2="70" style="stroke:black;stroke-width:1" /><line x1="980.5" y1="100" x2="980.5" y2="70" style="stroke:black;stroke-width:1" /><line x1="985.5" y1="100" x2="985.5" y2="70" style="stroke:black;stroke-width:1" /><line x1="990.5" y1="100" x2="990.5" y2="40" style="stroke:black;stroke-width:1" /><text x="986" y="34" fill="black" font-size="18">8</text><line x1="995.25" y1="100" x2="995.25" y2="70" style="stroke:black;stroke-width:1" /><line x1="1000.0" y1="100" x2="1000.0" y2="70" style="stroke:black;stroke-width:1" /><line x1="1004.75" y1="100" x2="1004.75" y2="70" style="stroke:black;stroke-width:1" /><line x1="1009.5" y1="100" x2="1009.5" y2="70" style="stroke:black;stroke-width:1" /><line x1="1014.25" y1="100" x2="1014.25" y2="50" style="stroke:black;stroke-width:1" /><text x="1008.146944181071" y="45" fill="black" font-size="14">8.5</text><line x1="1018.75" y1="100" x2="1018.75" y2="70" style="stroke:black;stroke-width:1" /><line x1="1023.25" y1="100" x2="1023.25" y2="70" style="stroke:black;stroke-width:1" /><line x1="1027.75" y1="100" x2="1027.75" y2="70" style="stroke:black;stroke-width:1" /><line x1="1032.0" y1="100" x2="1032.0" y2="70" style="stroke:black;stroke-width:1" /><line x1="1036.5" y1="100" x2="1036.5" y2="40" style="stroke:black;stroke-width:1" /><text x="1032" y="34" fill="black" font-size="18">9</text><line x1="1040.75" y1="100" x2="1040.75" y2="70" style="stroke:black;stroke-width:1" /><line x1="1045.0" y1="100" x2="1045.0" y2="70" style="stroke:black;stroke-width:1" /><line x1="1049.25" y1="100" x2="1049.25" y2="70" style="stroke:black;stroke-width:1" /><line x1="1053.5" y1="100" x2="1053.5" y2="70" style="stroke:black;stroke-width:1" /><line x1="1057.5" y1="100" x2="1057.5" y2="50" style="stroke:black;stroke-width:1" /><text x="1051.6211557981705" y="45" fill="black" font-size="14">9.5</text><line x1="1061.75" y1="100" x2="1061.75" y2="70" style="stroke:black;stroke-width:1" /><line x1="1065.75" y1="100" x2="1065.75" y2="70" style="stroke:black;stroke-width:1" /><line x1="1069.75" y1="100" x2="1069.75" y2="70" style="stroke:black;stroke-width:1" /><line x1="1073.75" y1="100" x2="1073.75" y2="70" style="stroke:black;stroke-width:1" /><line x1="1077.75" y1="100" x2="1077.75" y2="30" style="stroke:black;stroke-width:1" /><text x="1071.6699110382076" y="20" fill="black" font-size="18">10</text></g><g transform="translate(0 190)"><text x="6.0" y="70" fill="black" font-size="24">LL</text><text x="34.0" y="72" fill="black" font-size="12">3</text><text x="964.0" y="64" fill="black" font-size="16">e</text><text x="972.0" y="56" fill="black" font-size="12">x</text><line x1="50.0" y1="100" x2="50.0" y2="65" style="stroke:black;stroke-width:1" /><text x="46" y="60" fill="black" font-size="18">e</text><line x1="54.5" y1="100" x2="54.5" y2="86" style="stroke:black;stroke-width:1" /><line x1="61.5" y1="100" x2="61.5" y2="80" style="stroke:black;stroke-width:1" /><line x1="68.0" y1="100" x2="68.0" y2="86" style="stroke:black;stroke-width:1" /><line x1="74.5" y1="100" x2="74.5" y2="80" style="stroke:black;stroke-width:1" /><line x1="80.75" y1="100" x2="80.75" y2="86" style="stroke:black;stroke-width:1" /><line x1="86.75" y1="100" x2="86.75" y2="65" style="stroke:black;stroke-width:1" /><text x="83" y="60" fill="black" font-size="16">3</text><line x1="92.5" y1="100" x2="92.5" y2="86" style="stroke:black;stroke-width:1" /><line x1="98.25" y1="100" x2="98.25" y2="80" style="stroke:black;stroke-width:1" /><line x1="103.75" y1="100" x2="103.75" y2="86" style="stroke:black;stroke-width:1" /><line x1="109.0" y1="100" x2="109.0" y2="80" style="stroke:black;stroke-width:1" /><line x1="114.25" y1="100" x2="114.25" y2="86" style="stroke:black;stroke-width:1" /><line x1="119.25" y1="100" x2="119.25" y2="80" style="stroke:black;stroke-width:1" /><line x1="124.25" y1="100" x2="124.25" y2="86" style="stroke:black;stroke-width:1" /><line x1="129.0" y1="100" x2="129.0" y2="80" style="stroke:black;stroke-width:1" /><line x1="133.5" y1="100" x2="133.5" y2="86" style="stroke:black;stroke-width:1" /><line x1="138.0" y1="100" x2="138.0" y2="75" style="stroke:black;stroke-width:1" /><text x="132" y="70" fill="black" font-size="16">3.5</text><line x1="142.5" y1="100" x2="142.5" y2="86" style="stroke:black;stroke-width:1" /><line x1="146.75" y1="100" x2="146.75" y2="80" style="stroke:black;stroke-width:1" /><line x1="151.0" y1="100" x2="151.0" y2="86" style="stroke:black;stroke-width:1" /><line x1="155.0" y1="100" x2="155.0" y2="80" style="stroke:black;stroke-width:1" /><line x1="159.0" y1="100" x2="159.0" y2="86" style="stroke:black;stroke-width:1" /><line x1="163.0" y1="100" x2="163.0" y2="80" style="stroke:black;stroke-width:1" /><line x1="166.75" y1="100" x2="166.75" y2="86" style="stroke:black;stroke-width:1" /><line x1="170.5" y1="100" x2="170.5" y2="80" style="stroke:black;stroke-width:1" /><line x1="174.0" y1="100" x2="174.0" y2="86" style="stroke:black;stroke-width:1" /><line x1="177.75" y1="100" x2="177.75" y2="65" style="stroke:black;stroke-width:1" /><text x="174" y="60" fill="black" font-size="16">4</text><line x1="184.5" y1="100" x2="184.5" y2="86" style="stroke:black;stroke-width:1" /><line x1="191.25" y1="100" x2="191.25" y2="86" style="stroke:black;stroke-width:1" /><line x1="197.5" y1="100" x2="197.5" y2="86" style="stroke:black;stroke-width:1" /><line x1="203.75" y1="100" x2="203.75" y2="86" style="stroke:black;stroke-width:1" /><line x1="209.5" y1="100" x2="209.5" y2="75" style="stroke:black;stroke-width:1" /><line x1="215.25" y1="100" x2="215.25" y2="86" style="stroke:black;stroke-width:1" /><line x1="220.75" y1="100" x2="220.75" y2="86" style="stroke:black;stroke-width:1" /><line x1="226.0" y1="100" x2="226.0" y2="86" style="stroke:black;stroke-width:1" /><line x1="231.0" y1="100" x2="231.0" y2="86" style="stroke:black;stroke-width:1" /><line x1="236.0" y1="100" x2="236.0" y2="65" style="stroke:black;stroke-width:1" /><text x="232" y="60" fill="black" font-size="16">5</text><line x1="240.75" y1="100" x2="240.75" y2="86" style="stroke:black;stroke-width:1" /><line x1="245.5" y1="100" x2="245.5" y2="86" style="stroke:black;stroke-width:1" /><line x1="250.0" y1="100" x2="250.0" y2="86" style="stroke:black;stroke-width:1" /><line x1="254.25" y1="100" x2="254.25" y2="86" style="stroke:black;stroke-width:1" /><line x1="258.5" y1="100" x2="258.5" y2="75" style="stroke:black;stroke-width:1" /><line x1="262.5" y1="100" x2="262.5" y2="86" style="stroke:black;stroke-width:1" /><line x1="266.5" y1="100" x2="266.5" y2="86" style="stroke:black;stroke-width:1" /><line x1="270.5" y1="100" x2="270.5" y2="86" style="stroke:black;stroke-width:1" /><line x1="274.25" y1="100" x2="274.25" y2="86" style="stroke:black;stroke-width:1" /><line x1="278.0" y1="100" x2="278.0" y2="65" style="stroke:black;stroke-width:1" /><text x="274" y="60" fill="black" font-size="16">6</text><line x1="281.5" y1="100" x2="281.5" y2="86" style="stroke:black;stroke-width:1" /><line x1="285.0" y1="100" x2="285.0" y2="86" style="stroke:black;stroke-width:1" /><line x1="288.5" y1="100" x2="288.5" y2="86" style="stroke:black;stroke-width:1" /><line x1="291.75" y1="100" x2="291.75" y2="86" style="stroke:black;stroke-width:1" /><line x1="295.0" y1="100" x2="295.0" y2="75" style="stroke:black;stroke-width:1" /><line x1="298.25" y1="100" x2="298.25" y2="86" style="stroke:black;stroke-width:1" /><line x1="301.25" y1="100" x2="301.25" y2="86" style="stroke:black;stroke-width:1" /><line x1="304.25" y1="100" x2="304.25" y2="86" style="stroke:black;stroke-width:1" /><line x1="307.25" y1="100" x2="307.25" y2="86" style="stroke:black;stroke-width:1" /><line x1="310.25" y1="100" x2="310.25" y2="65" style="stroke:black;stroke-width:1" /><text x="306" y="60" fill="black" font-size="16">7</text><line x1="317.25" y1="100" x2="317.25" y2="80" style="stroke:black;stroke-width:1" /><line x1="323.75" y1="100" x2="323.75" y2="75" style="stroke:black;stroke-width:1" /><line x1="330.25" y1="100" x2="330.25" y2="80" style="stroke:black;stroke-width:1" /><line x1="336.25" y1="100" x2="336.25" y2="65" style="stroke:black;stroke-width:1" /><text x="332" y="60" fill="black" font-size="16">8</text><line x1="342.0" y1="100" x2="342.0" y2="80" style="stroke:black;stroke-width:1" /><line x1="347.5" y1="100" x2="347.5" y2="75" style="stroke:black;stroke-width:1" /><line x1="352.75" y1="100" x2="352.75" y2="80" style="stroke:black;stroke-width:1" /><line x1="357.75" y1="100" x2="357.75" y2="65" style="stroke:black;stroke-width:1" /><text x="354" y="60" fill="black" font-size="16">9</text><line x1="362.5" y1="100" x2="362.5" y2="80" style="stroke:black;stroke-width:1" /><line x1="367.25" y1="100" x2="367.25" y2="75" style="stroke:black;stroke-width:1" /><line x1="371.75" y1="100" x2="371.75" y2="80" style="stroke:black;stroke-width:1" /><line x1="376.0" y1="100" x2="376.0" y2="65" style="stroke:black;stroke-width:1" /><text x="370" y="60" fill="black" font-size="16">10</text><line x1="391.75" y1="100" x2="391.75" y2="86" style="stroke:black;stroke-width:1" /><line x1="405.75" y1="100" x2="405.75" y2="86" style="stroke:black;stroke-width:1" /><line x1="418.25" y1="100" x2="418.25" y2="86" style="stroke:black;stroke-width:1" /><line x1="429.25" y1="100" x2="429.25" y2="86" style="stroke:black;stroke-width:1" /><line x1="439.5" y1="100" x2="439.5" y2="75" style="stroke:black;stroke-width:1" /><text x="433" y="70" fill="black" font-size="16">15</text><line x1="448.5" y1="100" x2="448.5" y2="86" style="stroke:black;stroke-width:1" /><line x1="457.0" y1="100" x2="457.0" y2="86" style="stroke:black;stroke-width:1" /><line x1="464.75" y1="100" x2="464.75" y2="86" style="stroke:black;stroke-width:1" /><line x1="472.0" y1="100" x2="472.0" y2="86" style="stroke:black;stroke-width:1" /><line x1="478.75" y1="100" x2="478.75" y2="65" style="stroke:black;stroke-width:1" /><text x="473" y="60" fill="black" font-size="16">20</text><line x1="485.25" y1="100" x2="485.25" y2="86" style="stroke:black;stroke-width:1" /><line x1="491.0" y1="100" x2="491.0" y2="86" style="stroke:black;stroke-width:1" /><line x1="496.75" y1="100" x2="496.75" y2="86" style="stroke:black;stroke-width:1" /><line x1="502.0" y1="100" x2="502.0" y2="86" style="stroke:black;stroke-width:1" /><line x1="507.0" y1="100" x2="507.0" y2="75" style="stroke:black;stroke-width:1" /><line x1="511.75" y1="100" x2="511.75" y2="86" style="stroke:black;stroke-width:1" /><line x1="516.25" y1="100" x2="516.25" y2="86" style="stroke:black;stroke-width:1" /><line x1="520.5" y1="100" x2="520.5" y2="86" style="stroke:black;stroke-width:1" /><line x1="524.5" y1="100" x2="524.5" y2="86" style="stroke:black;stroke-width:1" /><line x1="528.5" y1="100" x2="528.5" y2="65" style="stroke:black;stroke-width:1" /><text x="522" y="60" fill="black" font-size="16">30</text><line x1="532.25" y1="100" x2="532.25" y2="86" style="stroke:black;stroke-width:1" /><line x1="535.75" y1="100" x2="535.75" y2="86" style="stroke:black;stroke-width:1" /><line x1="539.25" y1="100" x2="539.25" y2="86" style="stroke:black;stroke-width:1" /><line x1="542.5" y1="100" x2="542.5" y2="86" style="stroke:black;stroke-width:1" /><line x1="545.75" y1="100" x2="545.75" y2="75" style="stroke:black;stroke-width:1" /><line x1="549.0" y1="100" x2="549.0" y2="86" style="stroke:black;stroke-width:1" /><line x1="551.75" y1="100" x2="551.75" y2="86" style="stroke:black;stroke-width:1" /><line x1="554.75" y1="100" x2="554.75" y2="86" style="stroke:black;stroke-width:1" /><line x1="557.5" y1="100" x2="557.5" y2="86" style="stroke:black;stroke-width:1" /><line x1="560.25" y1="100" x2="560.25" y2="65" style="stroke:black;stroke-width:1" /><text x="554" y="60" fill="black" font-size="16">40</text><line x1="572.5" y1="100" x2="572.5" y2="75" style="stroke:black;stroke-width:1" /><line x1="583.25" y1="100" x2="583.25" y2="65" style="stroke:black;stroke-width:1" /><text x="577" y="60" fill="black" font-size="16">50</text><line x1="592.5" y1="100" x2="592.5" y2="80" style="stroke:black;stroke-width:1" /><line x1="601.0" y1="100" x2="601.0" y2="75" style="stroke:black;stroke-width:1" /><line x1="608.5" y1="100" x2="608.5" y2="80" style="stroke:black;stroke-width:1" /><line x1="615.5" y1="100" x2="615.5" y2="75" style="stroke:black;stroke-width:1" /><line x1="621.75" y1="100" x2="621.75" y2="80" style="stroke:black;stroke-width:1" /><line x1="627.5" y1="100" x2="627.5" y2="75" style="stroke:black;stroke-width:1" /><line x1="633.0" y1="100" x2="633.0" y2="80" style="stroke:black;stroke-width:1" /><line x1="637.75" y1="100" x2="637.75" y2="75" style="stroke:black;stroke-width:1" /><line x1="642.5" y1="100" x2="642.5" y2="80" style="stroke:black;stroke-width:1" /><line x1="647.0" y1="100" x2="647.0" y2="65" style="stroke:black;stroke-width:1" /><text x="631" y="60" fill="black" font-size="16">100</text><line x1="655.0" y1="100" x2="655.0" y2="86" style="stroke:black;stroke-width:1" /><line x1="662.0" y1="100" x2="662.0" y2="86" style="stroke:black;stroke-width:1" /><line x1="668.5" y1="100" x2="668.5" y2="86" style="stroke:black;stroke-width:1" /><line x1="674.5" y1="100" x2="674.5" y2="86" style="stroke:black;stroke-width:1" /><line x1="680.0" y1="100" x2="680.0" y2="80" style="stroke:black;stroke-width:1" /><line x1="685.0" y1="100" x2="685.0" y2="86" style="stroke:black;stroke-width:1" /><line x1="689.5" y1="100" x2="689.5" y2="86" style="stroke:black;stroke-width:1" /><line x1="693.75" y1="100" x2="693.75" y2="86" style="stroke:black;stroke-width:1" /><line x1="698.0" y1="100" x2="698.0" y2="86" style="stroke:black;stroke-width:1" /><line x1="701.75" y1="100" x2="701.75" y2="65" style="stroke:black;stroke-width:1" /><text x="686" y="60" fill="black" font-size="16">200</text><line x1="717.75" y1="100" x2="717.75" y2="80" style="stroke:black;stroke-width:1" /><line x1="730.5" y1="100" x2="730.5" y2="75" style="stroke:black;stroke-width:1" /><line x1="741.0" y1="100" x2="741.0" y2="80" style="stroke:black;stroke-width:1" /><line x1="749.75" y1="100" x2="749.75" y2="75" style="stroke:black;stroke-width:1" /><line x1="757.5" y1="100" x2="757.5" y2="80" style="stroke:black;stroke-width:1" /><line x1="764.0" y1="100" x2="764.0" y2="65" style="stroke:black;stroke-width:1" /><text x="748" y="60" fill="black" font-size="16">500</text><line x1="770.0" y1="100" x2="770.0" y2="80" style="stroke:black;stroke-width:1" /><line x1="775.25" y1="100" x2="775.25" y2="75" style="stroke:black;stroke-width:1" /><line x1="780.25" y1="100" x2="780.25" y2="80" style="stroke:black;stroke-width:1" /><line x1="784.75" y1="100" x2="784.75" y2="75" style="stroke:black;stroke-width:1" /><line x1="788.75" y1="100" x2="788.75" y2="80" style="stroke:black;stroke-width:1" /><line x1="792.5" y1="100" x2="792.5" y2="75" style="stroke:black;stroke-width:1" /><line x1="796.0" y1="100" x2="796.0" y2="80" style="stroke:black;stroke-width:1" /><line x1="799.5" y1="100" x2="799.5" y2="75" style="stroke:black;stroke-width:1" /><line x1="802.5" y1="100" x2="802.5" y2="80" style="stroke:black;stroke-width:1" /><line x1="805.5" y1="100" x2="805.5" y2="65" style="stroke:black;stroke-width:1" /><text x="799" y="60" fill="black" font-size="16">1k</text><line x1="810.75" y1="100" x2="810.75" y2="86" style="stroke:black;stroke-width:1" /><line x1="815.5" y1="100" x2="815.5" y2="86" style="stroke:black;stroke-width:1" /><line x1="820.0" y1="100" x2="820.0" y2="86" style="stroke:black;stroke-width:1" /><line x1="824.0" y1="100" x2="824.0" y2="86" style="stroke:black;stroke-width:1" /><line x1="827.75" y1="100" x2="827.75" y2="80" style="stroke:black;stroke-width:1" /><line x1="831.25" y1="100" x2="831.25" y2="86" style="stroke:black;stroke-width:1" /><line x1="834.25" y1="100" x2="834.25" y2="86" style="stroke:black;stroke-width:1" /><line x1="837.25" y1="100" x2="837.25" y2="86" style="stroke:black;stroke-width:1" /><line x1="840.25" y1="100" x2="840.25" y2="86" style="stroke:black;stroke-width:1" /><line x1="842.75" y1="100" x2="842.75" y2="65" style="stroke:black;stroke-width:1" /><text x="837" y="60" fill="black" font-size="16">2k</text><line x1="854.0" y1="100" x2="854.0" y2="80" style="stroke:black;stroke-width:1" /><line x1="863.0" y1="100" x2="863.0" y2="65" style="stroke:black;stroke-width:1" /><text x="857" y="60" fill="black" font-size="16">3k</text><line x1="870.5" y1="100" x2="870.5" y2="80" style="stroke:black;stroke-width:1" /><line x1="877.0" y1="100" x2="877.0" y2="75" style="stroke:black;stroke-width:1" /><line x1="882.5" y1="100" x2="882.5" y2="80" style="stroke:black;stroke-width:1" /><line x1="887.25" y1="100" x2="887.25" y2="65" style="stroke:black;stroke-width:1" /><text x="881" y="60" fill="black" font-size="16">5k</text><line x1="895.5" y1="100" x2="895.5" y2="86" style="stroke:black;stroke-width:1" /><line x1="902.5" y1="100" x2="902.5" y2="86" style="stroke:black;stroke-width:1" /><line x1="908.25" y1="100" x2="908.25" y2="86" style="stroke:black;stroke-width:1" /><line x1="913.25" y1="100" x2="913.25" y2="86" style="stroke:black;stroke-width:1" /><line x1="917.75" y1="100" x2="917.75" y2="65" style="stroke:black;stroke-width:1" /><text x="902" y="60" fill="black" font-size="16">10k</text><line x1="921.75" y1="100" x2="921.75" y2="86" style="stroke:black;stroke-width:1" /><line x1="925.5" y1="100" x2="925.5" y2="86" style="stroke:black;stroke-width:1" /><line x1="928.75" y1="100" x2="928.75" y2="86" style="stroke:black;stroke-width:1" /><line x1="931.75" y1="100" x2="931.75" y2="86" style="stroke:black;stroke-width:1" /><line x1="934.75" y1="100" x2="934.75" y2="80" style="stroke:black;stroke-width:1" /><line x1="937.25" y1="100" x2="937.25" y2="86" style="stroke:black;stroke-width:1" /><line x1="939.75" y1="100" x2="939.75" y2="86" style="stroke:black;stroke-width:1" /><line x1="942.0" y1="100" x2="942.0" y2="86" style="stroke:black;stroke-width:1" /><line x1="944.25" y1="100" x2="944.25" y2="86" style="stroke:black;stroke-width:1" /><line x1="946.25" y1="100" x2="946.25" y2="65" style="stroke:black;stroke-width:1" /><text x="930" y="60" fill="black" font-size="16">20k</text></g></svg>