<?xml version='1.0' encoding='us-ascii'?>
<svg width="1250.926996097583" height="240" version="1.1" xmlns="http://www.w3.org/2000/svg"><style>text {
      font-family: Arial, Helvetica, sans-serif;
      font-weight: Thin;
      }
</style><rect width="980" height="120" x="270.92699609758307" y="0" fill="#f9fc69" /><line x1="270.92699609758307" y1="120" x2="1250.926996097583" y2="120" style="stroke:black;stroke-width:1" /><text x="278.92699609758307" y="90" fill="black" font-size="24">C</text><text x="764" y="75" fill="black" font-size="16">&#960;</text><line x1="768" y1="120" x2="768" y2="80" style="stroke:black;stroke-width:1" /><line x1="321" y1="120" x2="321" y2="50" style="stroke:black;stroke-width:1" /><text x="317" y="40" fill="black" font-size="18">1</text><line x1="340" y1="120" x2="340" y2="100" style="stroke:black;stroke-width:1" /><line x1="358" y1="120" x2="358" y2="90" style="stroke:black;stroke-width:1" /><text x="352" y="85" fill="black" font-size="12">1.1</text><line x1="376" y1="120" x2="376" y2="100" style="stroke:black;stroke-width:1" /><line x1="392" y1="120" x2="392" y2="90" style="stroke:black;stroke-width:1" /><text x="386" y="85" fill="black" font-size="12">1.2</text><line x1="408" y1="120" x2="408" y2="100" style="stroke:black;stroke-width:1" /><line x1="423" y1="120" x2="423" y2="90" style="stroke:black;stroke-width:1" /><text x="417" y="85" fill="black" font-size="12">1.3</text><line x1="438" y1="120" x2="438" y2="100" style="stroke:black;stroke-width:1" /><line x1="452" y1="120" x2="452" y2="90" style="stroke:black;stroke-width:1" /><text x="446" y="85" fill="black" font-size="12">1.4</text><line x1="466" y1="120" x2="466" y2="100" style="stroke:black;stroke-width:1" /><line x1="479" y1="120" x2="479" y2="70" style="stroke:black;stroke-width:1" /><text x="473" y="65" fill="black" font-size="14">1.5</text><line x1="492" y1="120" x2="492" y2="100" style="stroke:black;stroke-width:1" /><line x1="505" y1="120" x2="505" y2="90" style="stroke:black;stroke-width:1" /><text x="499" y="85" fill="black" font-size="12">1.6</text><line x1="517" y1="120" x2="517" y2="100" style="stroke:black;stroke-width:1" /><line x1="528" y1="120" x2="528" y2="90" style="stroke:black;stroke-width:1" /><text x="522" y="85" fill="black" font-size="12">1.7</text><line x1="540" y1="120" x2="540" y2="100" style="stroke:black;stroke-width:1" /><line x1="551" y1="120" x2="551" y2="90" style="stroke:black;stroke-width:1" /><text x="545" y="85" fill="black" font-size="12">1.8</text><line x1="561" y1="120" x2="561" y2="100" style="stroke:black;stroke-width:1" /><line x1="572" y1="120" x2="572" y2="90" style="stroke:black;stroke-width:1" /><text x="566" y="85" fill="black" font-size="12">1.9</text><line x1="582" y1="120" x2="582" y2="100" style="stroke:black;stroke-width:1" /><line x1="592" y1="120" x2="592" y2="60" style="stroke:black;stroke-width:1" /><text x="588" y="50" fill="black" font-size="18">2</text><line x1="602" y1="120" x2="602" y2="100" style="stroke:black;stroke-width:1" /><line x1="611" y1="120" x2="611" y2="90" style="stroke:black;stroke-width:1" /><line x1="620" y1="120" x2="620" y2="100" style="stroke:black;stroke-width:1" /><line x1="629" y1="120" x2="629" y2="90" style="stroke:black;stroke-width:1" /><line x1="638" y1="120" x2="638" y2="100" style="stroke:black;stroke-width:1" /><line x1="646" y1="120" x2="646" y2="90" style="stroke:black;stroke-width:1" /><line x1="655" y1="120" x2="655" y2="100" style="stroke:black;stroke-width:1" /><line x1="663" y1="120" x2="663" y2="90" style="stroke:black;stroke-width:1" /><line x1="671" y1="120" x2="671" y2="100" style="stroke:black;stroke-width:1" /><line x1="679" y1="120" x2="679" y2="70" style="stroke:black;stroke-width:1" /><text x="673" y="65" fill="black" font-size="14">2.5</text><line x1="687" y1="120" x2="687" y2="100" style="stroke:black;stroke-width:1" /><line x1="694" y1="120" x2="694" y2="90" style="stroke:black;stroke-width:1" /><line x1="702" y1="120" x2="702" y2="100" style="stroke:black;stroke-width:1" /><line x1="709" y1="120" x2="709" y2="90" style="stroke:black;stroke-width:1" /><line x1="716" y1="120" x2="716" y2="100" style="stroke:black;stroke-width:1" /><line x1="723" y1="120" x2="723" y2="90" style="stroke:black;stroke-width:1" /><line x1="730" y1="120" x2="730" y2="100" style="stroke:black;stroke-width:1" /><line x1="737" y1="120" x2="737" y2="90" style="stroke:black;stroke-width:1" /><line x1="744" y1="120" x2="744" y2="100" style="stroke:black;stroke-width:1" /><line x1="750" y1="120" x2="750" y2="60" style="stroke:black;stroke-width:1" /><text x="746" y="50" fill="black" font-size="18">3</text><line x1="763" y1="120" x2="763" y2="90" style="stroke:black;stroke-width:1" /><line x1="776" y1="120" x2="776" y2="90" style="stroke:black;stroke-width:1" /><line x1="788" y1="120" x2="788" y2="90" style="stroke:black;stroke-width:1" /><line x1="799" y1="120" x2="799" y2="90" style="stroke:black;stroke-width:1" /><line x1="811" y1="120" x2="811" y2="70" style="stroke:black;stroke-width:1" /><text x="805" y="65" fill="black" font-size="14">3.5</text><line x1="822" y1="120" x2="822" y2="90" style="stroke:black;stroke-width:1" /><line x1="832" y1="120" x2="832" y2="90" style="stroke:black;stroke-width:1" /><line x1="843" y1="120" x2="843" y2="90" style="stroke:black;stroke-width:1" /><line x1="853" y1="120" x2="853" y2="90" style="stroke:black;stroke-width:1" /><line x1="863" y1="120" x2="863" y2="60" style="stroke:black;stroke-width:1" /><text x="859" y="50" fill="black" font-size="18">4</text><line x1="872" y1="120" x2="872" y2="90" style="stroke:black;stroke-width:1" /><line x1="882" y1="120" x2="882" y2="90" style="stroke:black;stroke-width:1" /><line x1="891" y1="120" x2="891" y2="90" style="stroke:black;stroke-width:1" /><line x1="900" y1="120" x2="900" y2="90" style="stroke:black;stroke-width:1" /><line x1="909" y1="120" x2="909" y2="70" style="stroke:black;stroke-width:1" /><text x="903" y="65" fill="black" font-size="14">4.5</text><line x1="917" y1="120" x2="917" y2="90" style="stroke:black;stroke-width:1" /><line x1="926" y1="120" x2="926" y2="90" style="stroke:black;stroke-width:1" /><line x1="934" y1="120" x2="934" y2="90" style="stroke:black;stroke-width:1" /><line x1="942" y1="120" x2="942" y2="90" style="stroke:black;stroke-width:1" /><line x1="950" y1="120" x2="950" y2="60" style="stroke:black;stroke-width:1" /><text x="946" y="50" fill="black" font-size="18">5</text><line x1="958" y1="120" x2="958" y2="90" style="stroke:black;stroke-width:1" /><line x1="965" y1="120" x2="965" y2="90" style="stroke:black;stroke-width:1" /><line x1="973" y1="120" x2="973" y2="90" style="stroke:black;stroke-width:1" /><line x1="980" y1="120" x2="980" y2="90" style="stroke:black;stroke-width:1" /><line x1="987" y1="120" x2="987" y2="70" style="stroke:black;stroke-width:1" /><text x="981" y="65" fill="black" font-size="14">5.5</text><line x1="994" y1="120" x2="994" y2="90" style="stroke:black;stroke-width:1" /><line x1="1001" y1="120" x2="1001" y2="90" style="stroke:black;stroke-width:1" /><line x1="1008" y1="120" x2="1008" y2="90" style="stroke:black;stroke-width:1" /><line x1="1015" y1="120" x2="1015" y2="90" style="stroke:black;stroke-width:1" /><line x1="1021" y1="120" x2="1021" y2="60" style="stroke:black;stroke-width:1" /><text x="1017" y="50" fill="black" font-size="18">6</text><line x1="1028" y1="120" x2="1028" y2="90" style="stroke:black;stroke-width:1" /><line x1="1034" y1="120" x2="1034" y2="90" style="stroke:black;stroke-width:1" /><line x1="1040" y1="120" x2="1040" y2="90" style="stroke:black;stroke-width:1" /><line x1="1046" y1="120" x2="1046" y2="90" style="stroke:black;stroke-width:1" /><line x1="1053" y1="120" x2="1053" y2="70" style="stroke:black;stroke-width:1" /><text x="1047" y="65" fill="black" font-size="14">6.5</text><line x1="1059" y1="120" x2="1059" y2="90" style="stroke:black;stroke-width:1" /><line x1="1064" y1="120" x2="1064" y2="90" style="stroke:black;stroke-width:1" /><line x1="1070" y1="120" x2="1070" y2="90" style="stroke:black;stroke-width:1" /><line x1="1076" y1="120" x2="1076" y2="90" style="stroke:black;stroke-width:1" /><line x1="1082" y1="120" x2="1082" y2="60" style="stroke:black;stroke-width:1" /><text x="1078" y="50" fill="black" font-size="18">7</text><line x1="1087" y1="120" x2="1087" y2="90" style="stroke:black;stroke-width:1" /><line x1="1093" y1="120" x2="1093" y2="90" style="stroke:black;stroke-width:1" /><line x1="1098" y1="120" x2="1098" y2="90" style="stroke:black;stroke-width:1" /><line x1="1103" y1="120" x2="1103" y2="90" style="stroke:black;stroke-width:1" /><line x1="1108" y1="120" x2="1108" y2="70" style="stroke:black;stroke-width:1" /><text x="1102" y="65" fill="black" font-size="14">7.5</text><line x1="1114" y1="120" x2="1114" y2="90" style="stroke:black;stroke-width:1" /><line x1="1119" y1="120" x2="1119" y2="90" style="stroke:black;stroke-width:1" /><line x1="1124" y1="120" x2="1124" y2="90" style="stroke:black;stroke-width:1" /><line x1="1129" y1="120" x2="1129" y2="90" style="stroke:black;stroke-width:1" /><line x1="1134" y1="120" x2="1134" y2="60" style="stroke:black;stroke-width:1" /><text x="1130" y="50" fill="black" font-size="18">8</text><line x1="1139" y1="120" x2="1139" y2="90" style="stroke:black;stroke-width:1" /><line x1="1143" y1="120" x2="1143" y2="90" style="stroke:black;stroke-width:1" /><line x1="1148" y1="120" x2="1148" y2="90" style="stroke:black;stroke-width:1" /><line x1="1153" y1="120" x2="1153" y2="90" style="stroke:black;stroke-width:1" /><line x1="1157" y1="120" x2="1157" y2="70" style="stroke:black;stroke-width:1" /><text x="1151" y="65" fill="black" font-size="14">8.5</text><line x1="1162" y1="120" x2="1162" y2="90" style="stroke:black;stroke-width:1" /><line x1="1166" y1="120" x2="1166" y2="90" style="stroke:black;stroke-width:1" /><line x1="1171" y1="120" x2="1171" y2="90" style="stroke:black;stroke-width:1" /><line x1="1175" y1="120" x2="1175" y2="90" style="stroke:black;stroke-width:1" /><line x1="1180" y1="120" x2="1180" y2="60" style="stroke:black;stroke-width:1" /><text x="1176" y="50" fill="black" font-size="18">9</text><line x1="1184" y1="120" x2="1184" y2="90" style="stroke:black;stroke-width:1" /><line x1="1188" y1="120" x2="1188" y2="90" style="stroke:black;stroke-width:1" /><line x1="1193" y1="120" x2="1193" y2="90" style="stroke:black;stroke-width:1" /><line x1="1197" y1="120" x2="1197" y2="90" style="stroke:black;stroke-width:1" /><line x1="1201" y1="120" x2="1201" y2="70" style="stroke:black;stroke-width:1" /><text x="1195" y="65" fill="black" font-size="14">9.5</text><line x1="1205" y1="120" x2="1205" y2="90" style="stroke:black;stroke-width:1" /><line x1="1209" y1="120" x2="1209" y2="90" style="stroke:black;stroke-width:1" /><line x1="1213" y1="120" x2="1213" y2="90" style="stroke:black;stroke-width:1" /><line x1="1217" y1="120" x2="1217" y2="90" style="stroke:black;stroke-width:1" /><line x1="1221" y1="120" x2="1221" y2="50" style="stroke:black;stroke-width:1" /><text x="1215" y="40" fill="black" font-size="18">10</text><rect width="980" height="120" x="0" y="120" fill="#f9fc69" /><line x1="0" y1="120" x2="980" y2="120" style="stroke:black;stroke-width:1" /><text x="8" y="160" fill="black" font-size="24">D</text><text x="493" y="175" fill="black" font-size="16">&#960;</text><line x1="497" y1="120" x2="497" y2="160" style="stroke:black;stroke-width:1" /><line x1="50" y1="120" x2="50" y2="190" style="stroke:black;stroke-width:1" /><text x="46" y="215" fill="black" font-size="18">1</text><line x1="69" y1="120" x2="69" y2="140" style="stroke:black;stroke-width:1" /><line x1="87" y1="120" x2="87" y2="150" style="stroke:black;stroke-width:1" /><text x="81" y="160" fill="black" font-size="12">1.1</text><line x1="105" y1="120" x2="105" y2="140" style="stroke:black;stroke-width:1" /><line x1="121" y1="120" x2="121" y2="150" style="stroke:black;stroke-width:1" /><text x="115" y="160" fill="black" font-size="12">1.2</text><line x1="137" y1="120" x2="137" y2="140" style="stroke:black;stroke-width:1" /><line x1="153" y1="120" x2="153" y2="150" style="stroke:black;stroke-width:1" /><text x="147" y="160" fill="black" font-size="12">1.3</text><line x1="167" y1="120" x2="167" y2="140" style="stroke:black;stroke-width:1" /><line x1="182" y1="120" x2="182" y2="150" style="stroke:black;stroke-width:1" /><text x="176" y="160" fill="black" font-size="12">1.4</text><line x1="195" y1="120" x2="195" y2="140" style="stroke:black;stroke-width:1" /><line x1="208" y1="120" x2="208" y2="170" style="stroke:black;stroke-width:1" /><text x="202" y="185" fill="black" font-size="14">1.5</text><line x1="221" y1="120" x2="221" y2="140" style="stroke:black;stroke-width:1" /><line x1="234" y1="120" x2="234" y2="150" style="stroke:black;stroke-width:1" /><text x="228" y="160" fill="black" font-size="12">1.6</text><line x1="246" y1="120" x2="246" y2="140" style="stroke:black;stroke-width:1" /><line x1="257" y1="120" x2="257" y2="150" style="stroke:black;stroke-width:1" /><text x="251" y="160" fill="black" font-size="12">1.7</text><line x1="269" y1="120" x2="269" y2="140" style="stroke:black;stroke-width:1" /><line x1="280" y1="120" x2="280" y2="150" style="stroke:black;stroke-width:1" /><text x="274" y="160" fill="black" font-size="12">1.8</text><line x1="290" y1="120" x2="290" y2="140" style="stroke:black;stroke-width:1" /><line x1="301" y1="120" x2="301" y2="150" style="stroke:black;stroke-width:1" /><text x="295" y="160" fill="black" font-size="12">1.9</text><line x1="311" y1="120" x2="311" y2="140" style="stroke:black;stroke-width:1" /><line x1="321" y1="120" x2="321" y2="180" style="stroke:black;stroke-width:1" /><text x="317" y="200" fill="black" font-size="18">2</text><line x1="331" y1="120" x2="331" y2="140" style="stroke:black;stroke-width:1" /><line x1="340" y1="120" x2="340" y2="150" style="stroke:black;stroke-width:1" /><line x1="349" y1="120" x2="349" y2="140" style="stroke:black;stroke-width:1" /><line x1="358" y1="120" x2="358" y2="150" style="stroke:black;stroke-width:1" /><line x1="367" y1="120" x2="367" y2="140" style="stroke:black;stroke-width:1" /><line x1="376" y1="120" x2="376" y2="150" style="stroke:black;stroke-width:1" /><line x1="384" y1="120" x2="384" y2="140" style="stroke:black;stroke-width:1" /><line x1="392" y1="120" x2="392" y2="150" style="stroke:black;stroke-width:1" /><line x1="400" y1="120" x2="400" y2="140" style="stroke:black;stroke-width:1" /><line x1="408" y1="120" x2="408" y2="170" style="stroke:black;stroke-width:1" /><text x="402" y="185" fill="black" font-size="14">2.5</text><line x1="416" y1="120" x2="416" y2="140" style="stroke:black;stroke-width:1" /><line x1="423" y1="120" x2="423" y2="150" style="stroke:black;stroke-width:1" /><line x1="431" y1="120" x2="431" y2="140" style="stroke:black;stroke-width:1" /><line x1="438" y1="120" x2="438" y2="150" style="stroke:black;stroke-width:1" /><line x1="445" y1="120" x2="445" y2="140" style="stroke:black;stroke-width:1" /><line x1="452" y1="120" x2="452" y2="150" style="stroke:black;stroke-width:1" /><line x1="459" y1="120" x2="459" y2="140" style="stroke:black;stroke-width:1" /><line x1="466" y1="120" x2="466" y2="150" style="stroke:black;stroke-width:1" /><line x1="473" y1="120" x2="473" y2="140" style="stroke:black;stroke-width:1" /><line x1="479" y1="120" x2="479" y2="180" style="stroke:black;stroke-width:1" /><text x="475" y="200" fill="black" font-size="18">3</text><line x1="492" y1="120" x2="492" y2="150" style="stroke:black;stroke-width:1" /><line x1="505" y1="120" x2="505" y2="150" style="stroke:black;stroke-width:1" /><line x1="517" y1="120" x2="517" y2="150" style="stroke:black;stroke-width:1" /><line x1="528" y1="120" x2="528" y2="150" style="stroke:black;stroke-width:1" /><line x1="540" y1="120" x2="540" y2="170" style="stroke:black;stroke-width:1" /><text x="534" y="185" fill="black" font-size="14">3.5</text><line x1="551" y1="120" x2="551" y2="150" style="stroke:black;stroke-width:1" /><line x1="561" y1="120" x2="561" y2="150" style="stroke:black;stroke-width:1" /><line x1="572" y1="120" x2="572" y2="150" style="stroke:black;stroke-width:1" /><line x1="582" y1="120" x2="582" y2="150" style="stroke:black;stroke-width:1" /><line x1="592" y1="120" x2="592" y2="180" style="stroke:black;stroke-width:1" /><text x="588" y="200" fill="black" font-size="18">4</text><line x1="602" y1="120" x2="602" y2="150" style="stroke:black;stroke-width:1" /><line x1="611" y1="120" x2="611" y2="150" style="stroke:black;stroke-width:1" /><line x1="620" y1="120" x2="620" y2="150" style="stroke:black;stroke-width:1" /><line x1="629" y1="120" x2="629" y2="150" style="stroke:black;stroke-width:1" /><line x1="638" y1="120" x2="638" y2="170" style="stroke:black;stroke-width:1" /><text x="632" y="185" fill="black" font-size="14">4.5</text><line x1="646" y1="120" x2="646" y2="150" style="stroke:black;stroke-width:1" /><line x1="655" y1="120" x2="655" y2="150" style="stroke:black;stroke-width:1" /><line x1="663" y1="120" x2="663" y2="150" style="stroke:black;stroke-width:1" /><line x1="671" y1="120" x2="671" y2="150" style="stroke:black;stroke-width:1" /><line x1="679" y1="120" x2="679" y2="180" style="stroke:black;stroke-width:1" /><text x="675" y="200" fill="black" font-size="18">5</text><line x1="687" y1="120" x2="687" y2="150" style="stroke:black;stroke-width:1" /><line x1="694" y1="120" x2="694" y2="150" style="stroke:black;stroke-width:1" /><line x1="702" y1="120" x2="702" y2="150" style="stroke:black;stroke-width:1" /><line x1="709" y1="120" x2="709" y2="150" style="stroke:black;stroke-width:1" /><line x1="716" y1="120" x2="716" y2="170" style="stroke:black;stroke-width:1" /><text x="710" y="185" fill="black" font-size="14">5.5</text><line x1="723" y1="120" x2="723" y2="150" style="stroke:black;stroke-width:1" /><line x1="730" y1="120" x2="730" y2="150" style="stroke:black;stroke-width:1" /><line x1="737" y1="120" x2="737" y2="150" style="stroke:black;stroke-width:1" /><line x1="744" y1="120" x2="744" y2="150" style="stroke:black;stroke-width:1" /><line x1="750" y1="120" x2="750" y2="180" style="stroke:black;stroke-width:1" /><text x="746" y="200" fill="black" font-size="18">6</text><line x1="757" y1="120" x2="757" y2="150" style="stroke:black;stroke-width:1" /><line x1="763" y1="120" x2="763" y2="150" style="stroke:black;stroke-width:1" /><line x1="769" y1="120" x2="769" y2="150" style="stroke:black;stroke-width:1" /><line x1="776" y1="120" x2="776" y2="150" style="stroke:black;stroke-width:1" /><line x1="782" y1="120" x2="782" y2="170" style="stroke:black;stroke-width:1" /><text x="776" y="185" fill="black" font-size="14">6.5</text><line x1="788" y1="120" x2="788" y2="150" style="stroke:black;stroke-width:1" /><line x1="793" y1="120" x2="793" y2="150" style="stroke:black;stroke-width:1" /><line x1="799" y1="120" x2="799" y2="150" style="stroke:black;stroke-width:1" /><line x1="805" y1="120" x2="805" y2="150" style="stroke:black;stroke-width:1" /><line x1="811" y1="120" x2="811" y2="180" style="stroke:black;stroke-width:1" /><text x="807" y="200" fill="black" font-size="18">7</text><line x1="816" y1="120" x2="816" y2="150" style="stroke:black;stroke-width:1" /><line x1="822" y1="120" x2="822" y2="150" style="stroke:black;stroke-width:1" /><line x1="827" y1="120" x2="827" y2="150" style="stroke:black;stroke-width:1" /><line x1="832" y1="120" x2="832" y2="150" style="stroke:black;stroke-width:1" /><line x1="838" y1="120" x2="838" y2="170" style="stroke:black;stroke-width:1" /><text x="832" y="185" fill="black" font-size="14">7.5</text><line x1="843" y1="120" x2="843" y2="150" style="stroke:black;stroke-width:1" /><line x1="848" y1="120" x2="848" y2="150" style="stroke:black;stroke-width:1" /><line x1="853" y1="120" x2="853" y2="150" style="stroke:black;stroke-width:1" /><line x1="858" y1="120" x2="858" y2="150" style="stroke:black;stroke-width:1" /><line x1="863" y1="120" x2="863" y2="180" style="stroke:black;stroke-width:1" /><text x="859" y="200" fill="black" font-size="18">8</text><line x1="868" y1="120" x2="868" y2="150" style="stroke:black;stroke-width:1" /><line x1="872" y1="120" x2="872" y2="150" style="stroke:black;stroke-width:1" /><line x1="877" y1="120" x2="877" y2="150" style="stroke:black;stroke-width:1" /><line x1="882" y1="120" x2="882" y2="150" style="stroke:black;stroke-width:1" /><line x1="886" y1="120" x2="886" y2="170" style="stroke:black;stroke-width:1" /><text x="880" y="185" fill="black" font-size="14">8.5</text><line x1="891" y1="120" x2="891" y2="150" style="stroke:black;stroke-width:1" /><line x1="896" y1="120" x2="896" y2="150" style="stroke:black;stroke-width:1" /><line x1="900" y1="120" x2="900" y2="150" style="stroke:black;stroke-width:1" /><line x1="904" y1="120" x2="904" y2="150" style="stroke:black;stroke-width:1" /><line x1="909" y1="120" x2="909" y2="180" style="stroke:black;stroke-width:1" /><text x="905" y="200" fill="black" font-size="18">9</text><line x1="913" y1="120" x2="913" y2="150" style="stroke:black;stroke-width:1" /><line x1="917" y1="120" x2="917" y2="150" style="stroke:black;stroke-width:1" /><line x1="922" y1="120" x2="922" y2="150" style="stroke:black;stroke-width:1" /><line x1="926" y1="120" x2="926" y2="150" style="stroke:black;stroke-width:1" /><line x1="930" y1="120" x2="930" y2="170" style="stroke:black;stroke-width:1" /><text x="924" y="185" fill="black" font-size="14">9.5</text><line x1="934" y1="120" x2="934" y2="150" style="stroke:black;stroke-width:1" /><line x1="938" y1="120" x2="938" y2="150" style="stroke:black;stroke-width:1" /><line x1="942" y1="120" x2="942" y2="150" style="stroke:black;stroke-width:1" /><line x1="946" y1="120" x2="946" y2="150" style="stroke:black;stroke-width:1" /><line x1="950" y1="120" x2="950" y2="190" style="stroke:black;stroke-width:1" /><text x="944" y="215" fill="black" font-size="18">10</text></svg>