<?xml version='1.0' encoding='us-ascii'?>
<svg width="1087.2190117072507" height="440" version="1.1" xmlns="http://www.w3.org/2000/svg"><style>text {
      font-family: Arial, Helvetica, sans-serif;
      font-weight: Thin;
      }
</style><rect width="1000" height="120" x="87.21901170725077" y="0" fill="#f9fc69" /><line x1="87.21901170725077" y1="120" x2="1087.2190117072507" y2="120" style="stroke:black;stroke-width:1" /><rect width="1000" height="200" x="0" y="120" fill="#f9fc69" /><line x1="0" y1="120" x2="1000" y2="120" style="stroke:black;stroke-width:1" /><line x1="0" y1="320" x2="1000" y2="320" style="stroke:black;stroke-width:1" /><rect width="1000" height="120" x="87.21901170725077" y="320" fill="#f9fc69" /><line x1="87.21901170725077" y1="320" x2="1087.2190117072507" y2="320" style="stroke:black;stroke-width:1" /><line x1="837.55513705253" y1="0" x2="837.55513705253" y2="440" style="stroke:grey;stroke-width:1" /><text x="95.21901170725077" y="360" fill="black" font-size="24">D</text><text x="581" y="375" fill="black" font-size="16">&#960;</text><line x1="585" y1="320" x2="585" y2="360" style="stroke:black;stroke-width:1" /><text x="1049.2190117072507" y="360" fill="black" font-size="16">x</text><line x1="137" y1="320" x2="137" y2="390" style="stroke:black;stroke-width:1" /><text x="133" y="415" fill="black" font-size="18">1</text><line x1="156" y1="320" x2="156" y2="340" style="stroke:black;stroke-width:1" /><line x1="174" y1="320" x2="174" y2="350" style="stroke:black;stroke-width:1" /><text x="168" y="360" fill="black" font-size="12">1.1</text><line x1="192" y1="320" x2="192" y2="340" style="stroke:black;stroke-width:1" /><line x1="208" y1="320" x2="208" y2="350" style="stroke:black;stroke-width:1" /><text x="202" y="360" fill="black" font-size="12">1.2</text><line x1="224" y1="320" x2="224" y2="340" style="stroke:black;stroke-width:1" /><line x1="240" y1="320" x2="240" y2="350" style="stroke:black;stroke-width:1" /><text x="234" y="360" fill="black" font-size="12">1.3</text><line x1="255" y1="320" x2="255" y2="340" style="stroke:black;stroke-width:1" /><line x1="269" y1="320" x2="269" y2="350" style="stroke:black;stroke-width:1" /><text x="263" y="360" fill="black" font-size="12">1.4</text><line x1="282" y1="320" x2="282" y2="340" style="stroke:black;stroke-width:1" /><line x1="296" y1="320" x2="296" y2="370" style="stroke:black;stroke-width:1" /><text x="290" y="385" fill="black" font-size="14">1.5</text><line x1="309" y1="320" x2="309" y2="340" style="stroke:black;stroke-width:1" /><line x1="321" y1="320" x2="321" y2="350" style="stroke:black;stroke-width:1" /><text x="315" y="360" fill="black" font-size="12">1.6</text><line x1="333" y1="320" x2="333" y2="340" style="stroke:black;stroke-width:1" /><line x1="345" y1="320" x2="345" y2="350" style="stroke:black;stroke-width:1" /><text x="339" y="360" fill="black" font-size="12">1.7</text><line x1="356" y1="320" x2="356" y2="340" style="stroke:black;stroke-width:1" /><line x1="367" y1="320" x2="367" y2="350" style="stroke:black;stroke-width:1" /><text x="361" y="360" fill="black" font-size="12">1.8</text><line x1="378" y1="320" x2="378" y2="340" style="stroke:black;stroke-width:1" /><line x1="388" y1="320" x2="388" y2="350" style="stroke:black;stroke-width:1" /><text x="382" y="360" fill="black" font-size="12">1.9</text><line x1="398" y1="320" x2="398" y2="340" style="stroke:black;stroke-width:1" /><line x1="408" y1="320" x2="408" y2="380" style="stroke:black;stroke-width:1" /><text x="404" y="400" fill="black" font-size="18">2</text><line x1="418" y1="320" x2="418" y2="340" style="stroke:black;stroke-width:1" /><line x1="427" y1="320" x2="427" y2="350" style="stroke:black;stroke-width:1" /><line x1="436" y1="320" x2="436" y2="340" style="stroke:black;stroke-width:1" /><line x1="445" y1="320" x2="445" y2="350" style="stroke:black;stroke-width:1" /><line x1="454" y1="320" x2="454" y2="340" style="stroke:black;stroke-width:1" /><line x1="463" y1="320" x2="463" y2="350" style="stroke:black;stroke-width:1" /><line x1="471" y1="320" x2="471" y2="340" style="stroke:black;stroke-width:1" /><line x1="479" y1="320" x2="479" y2="350" style="stroke:black;stroke-width:1" /><line x1="487" y1="320" x2="487" y2="340" style="stroke:black;stroke-width:1" /><line x1="495" y1="320" x2="495" y2="370" style="stroke:black;stroke-width:1" /><text x="489" y="385" fill="black" font-size="14">2.5</text><line x1="503" y1="320" x2="503" y2="340" style="stroke:black;stroke-width:1" /><line x1="511" y1="320" x2="511" y2="350" style="stroke:black;stroke-width:1" /><line x1="518" y1="320" x2="518" y2="340" style="stroke:black;stroke-width:1" /><line x1="525" y1="320" x2="525" y2="350" style="stroke:black;stroke-width:1" /><line x1="533" y1="320" x2="533" y2="340" style="stroke:black;stroke-width:1" /><line x1="540" y1="320" x2="540" y2="350" style="stroke:black;stroke-width:1" /><line x1="547" y1="320" x2="547" y2="340" style="stroke:black;stroke-width:1" /><line x1="553" y1="320" x2="553" y2="350" style="stroke:black;stroke-width:1" /><line x1="560" y1="320" x2="560" y2="340" style="stroke:black;stroke-width:1" /><line x1="567" y1="320" x2="567" y2="380" style="stroke:black;stroke-width:1" /><text x="563" y="400" fill="black" font-size="18">3</text><line x1="579" y1="320" x2="579" y2="350" style="stroke:black;stroke-width:1" /><line x1="592" y1="320" x2="592" y2="350" style="stroke:black;stroke-width:1" /><line x1="604" y1="320" x2="604" y2="350" style="stroke:black;stroke-width:1" /><line x1="616" y1="320" x2="616" y2="350" style="stroke:black;stroke-width:1" /><line x1="627" y1="320" x2="627" y2="370" style="stroke:black;stroke-width:1" /><text x="621" y="385" fill="black" font-size="14">3.5</text><line x1="638" y1="320" x2="638" y2="350" style="stroke:black;stroke-width:1" /><line x1="649" y1="320" x2="649" y2="350" style="stroke:black;stroke-width:1" /><line x1="659" y1="320" x2="659" y2="350" style="stroke:black;stroke-width:1" /><line x1="669" y1="320" x2="669" y2="350" style="stroke:black;stroke-width:1" /><line x1="679" y1="320" x2="679" y2="380" style="stroke:black;stroke-width:1" /><text x="675" y="400" fill="black" font-size="18">4</text><line x1="689" y1="320" x2="689" y2="350" style="stroke:black;stroke-width:1" /><line x1="698" y1="320" x2="698" y2="350" style="stroke:black;stroke-width:1" /><line x1="707" y1="320" x2="707" y2="350" style="stroke:black;stroke-width:1" /><line x1="716" y1="320" x2="716" y2="350" style="stroke:black;stroke-width:1" /><line x1="725" y1="320" x2="725" y2="370" style="stroke:black;stroke-width:1" /><text x="719" y="385" fill="black" font-size="14">4.5</text><line x1="734" y1="320" x2="734" y2="350" style="stroke:black;stroke-width:1" /><line x1="742" y1="320" x2="742" y2="350" style="stroke:black;stroke-width:1" /><line x1="750" y1="320" x2="750" y2="350" style="stroke:black;stroke-width:1" /><line x1="758" y1="320" x2="758" y2="350" style="stroke:black;stroke-width:1" /><line x1="766" y1="320" x2="766" y2="380" style="stroke:black;stroke-width:1" /><text x="762" y="400" fill="black" font-size="18">5</text><line x1="774" y1="320" x2="774" y2="350" style="stroke:black;stroke-width:1" /><line x1="782" y1="320" x2="782" y2="350" style="stroke:black;stroke-width:1" /><line x1="789" y1="320" x2="789" y2="350" style="stroke:black;stroke-width:1" /><line x1="796" y1="320" x2="796" y2="350" style="stroke:black;stroke-width:1" /><line x1="804" y1="320" x2="804" y2="370" style="stroke:black;stroke-width:1" /><text x="798" y="385" fill="black" font-size="14">5.5</text><line x1="811" y1="320" x2="811" y2="350" style="stroke:black;stroke-width:1" /><line x1="818" y1="320" x2="818" y2="350" style="stroke:black;stroke-width:1" /><line x1="824" y1="320" x2="824" y2="350" style="stroke:black;stroke-width:1" /><line x1="831" y1="320" x2="831" y2="350" style="stroke:black;stroke-width:1" /><line x1="838" y1="320" x2="838" y2="380" style="stroke:black;stroke-width:1" /><text x="834" y="400" fill="black" font-size="18">6</text><line x1="844" y1="320" x2="844" y2="350" style="stroke:black;stroke-width:1" /><line x1="850" y1="320" x2="850" y2="350" style="stroke:black;stroke-width:1" /><line x1="857" y1="320" x2="857" y2="350" style="stroke:black;stroke-width:1" /><line x1="863" y1="320" x2="863" y2="350" style="stroke:black;stroke-width:1" /><line x1="869" y1="320" x2="869" y2="370" style="stroke:black;stroke-width:1" /><text x="863" y="385" fill="black" font-size="14">6.5</text><line x1="875" y1="320" x2="875" y2="350" style="stroke:black;stroke-width:1" /><line x1="881" y1="320" x2="881" y2="350" style="stroke:black;stroke-width:1" /><line x1="886" y1="320" x2="886" y2="350" style="stroke:black;stroke-width:1" /><line x1="892" y1="320" x2="892" y2="350" style="stroke:black;stroke-width:1" /><line x1="898" y1="320" x2="898" y2="380" style="stroke:black;stroke-width:1" /><text x="894" y="400" fill="black" font-size="18">7</text><line x1="903" y1="320" x2="903" y2="350" style="stroke:black;stroke-width:1" /><line x1="909" y1="320" x2="909" y2="350" style="stroke:black;stroke-width:1" /><line x1="914" y1="320" x2="914" y2="350" style="stroke:black;stroke-width:1" /><line x1="920" y1="320" x2="920" y2="350" style="stroke:black;stroke-width:1" /><line x1="925" y1="320" x2="925" y2="370" style="stroke:black;stroke-width:1" /><text x="919" y="385" fill="black" font-size="14">7.5</text><line x1="930" y1="320" x2="930" y2="350" style="stroke:black;stroke-width:1" /><line x1="935" y1="320" x2="935" y2="350" style="stroke:black;stroke-width:1" /><line x1="940" y1="320" x2="940" y2="350" style="stroke:black;stroke-width:1" /><line x1="945" y1="320" x2="945" y2="350" style="stroke:black;stroke-width:1" /><line x1="950" y1="320" x2="950" y2="380" style="stroke:black;stroke-width:1" /><text x="946" y="400" fill="black" font-size="18">8</text><line x1="955" y1="320" x2="955" y2="350" style="stroke:black;stroke-width:1" /><line x1="960" y1="320" x2="960" y2="350" style="stroke:black;stroke-width:1" /><line x1="964" y1="320" x2="964" y2="350" style="stroke:black;stroke-width:1" /><line x1="969" y1="320" x2="969" y2="350" style="stroke:black;stroke-width:1" /><line x1="974" y1="320" x2="974" y2="370" style="stroke:black;stroke-width:1" /><text x="968" y="385" fill="black" font-size="14">8.5</text><line x1="978" y1="320" x2="978" y2="350" style="stroke:black;stroke-width:1" /><line x1="983" y1="320" x2="983" y2="350" style="stroke:black;stroke-width:1" /><line x1="987" y1="320" x2="987" y2="350" style="stroke:black;stroke-width:1" /><line x1="992" y1="320" x2="992" y2="350" style="stroke:black;stroke-width:1" /><line x1="996" y1="320" x2="996" y2="380" style="stroke:black;stroke-width:1" /><text x="992" y="400" fill="black" font-size="18">9</text><line x1="1000" y1="320" x2="1000" y2="350" style="stroke:black;stroke-width:1" /><line x1="1005" y1="320" x2="1005" y2="350" style="stroke:black;stroke-width:1" /><line x1="1009" y1="320" x2="1009" y2="350" style="stroke:black;stroke-width:1" /><line x1="1013" y1="320" x2="1013" y2="350" style="stroke:black;stroke-width:1" /><line x1="1017" y1="320" x2="1017" y2="370" style="stroke:black;stroke-width:1" /><text x="1011" y="385" fill="black" font-size="14">9.5</text><line x1="1021" y1="320" x2="1021" y2="350" style="stroke:black;stroke-width:1" /><line x1="1025" y1="320" x2="1025" y2="350" style="stroke:black;stroke-width:1" /><line x1="1029" y1="320" x2="1029" y2="350" style="stroke:black;stroke-width:1" /><line x1="1033" y1="320" x2="1033" y2="350" style="stroke:black;stroke-width:1" /><line x1="1037" y1="320" x2="1037" y2="390" style="stroke:black;stroke-width:1" /><text x="1031" y="415" fill="black" font-size="18">10</text><text x="8" y="290" fill="black" font-size="24">C</text><text x="493" y="273" fill="black" font-size="16">&#960;</text><line x1="497" y1="320" x2="497" y2="280" style="stroke:black;stroke-width:1" /><text x="962" y="288" fill="black" font-size="16">x</text><line x1="50" y1="320" x2="50" y2="250" style="stroke:black;stroke-width:1" /><text x="46" y="240" fill="black" font-size="18">1</text><line x1="69" y1="320" x2="69" y2="300" style="stroke:black;stroke-width:1" /><line x1="87" y1="320" x2="87" y2="290" style="stroke:black;stroke-width:1" /><text x="81" y="287" fill="black" font-size="12">1.1</text><line x1="105" y1="320" x2="105" y2="300" style="stroke:black;stroke-width:1" /><line x1="121" y1="320" x2="121" y2="290" style="stroke:black;stroke-width:1" /><text x="115" y="287" fill="black" font-size="12">1.2</text><line x1="137" y1="320" x2="137" y2="300" style="stroke:black;stroke-width:1" /><line x1="153" y1="320" x2="153" y2="290" style="stroke:black;stroke-width:1" /><text x="147" y="287" fill="black" font-size="12">1.3</text><line x1="167" y1="320" x2="167" y2="300" style="stroke:black;stroke-width:1" /><line x1="182" y1="320" x2="182" y2="290" style="stroke:black;stroke-width:1" /><text x="176" y="287" fill="black" font-size="12">1.4</text><line x1="195" y1="320" x2="195" y2="300" style="stroke:black;stroke-width:1" /><line x1="208" y1="320" x2="208" y2="270" style="stroke:black;stroke-width:1" /><text x="202" y="265" fill="black" font-size="14">1.5</text><line x1="221" y1="320" x2="221" y2="300" style="stroke:black;stroke-width:1" /><line x1="234" y1="320" x2="234" y2="290" style="stroke:black;stroke-width:1" /><text x="228" y="287" fill="black" font-size="12">1.6</text><line x1="246" y1="320" x2="246" y2="300" style="stroke:black;stroke-width:1" /><line x1="257" y1="320" x2="257" y2="290" style="stroke:black;stroke-width:1" /><text x="251" y="287" fill="black" font-size="12">1.7</text><line x1="269" y1="320" x2="269" y2="300" style="stroke:black;stroke-width:1" /><line x1="280" y1="320" x2="280" y2="290" style="stroke:black;stroke-width:1" /><text x="274" y="287" fill="black" font-size="12">1.8</text><line x1="290" y1="320" x2="290" y2="300" style="stroke:black;stroke-width:1" /><line x1="301" y1="320" x2="301" y2="290" style="stroke:black;stroke-width:1" /><text x="295" y="287" fill="black" font-size="12">1.9</text><line x1="311" y1="320" x2="311" y2="300" style="stroke:black;stroke-width:1" /><line x1="321" y1="320" x2="321" y2="260" style="stroke:black;stroke-width:1" /><text x="317" y="254" fill="black" font-size="18">2</text><line x1="331" y1="320" x2="331" y2="300" style="stroke:black;stroke-width:1" /><line x1="340" y1="320" x2="340" y2="290" style="stroke:black;stroke-width:1" /><line x1="349" y1="320" x2="349" y2="300" style="stroke:black;stroke-width:1" /><line x1="358" y1="320" x2="358" y2="290" style="stroke:black;stroke-width:1" /><line x1="367" y1="320" x2="367" y2="300" style="stroke:black;stroke-width:1" /><line x1="376" y1="320" x2="376" y2="290" style="stroke:black;stroke-width:1" /><line x1="384" y1="320" x2="384" y2="300" style="stroke:black;stroke-width:1" /><line x1="392" y1="320" x2="392" y2="290" style="stroke:black;stroke-width:1" /><line x1="400" y1="320" x2="400" y2="300" style="stroke:black;stroke-width:1" /><line x1="408" y1="320" x2="408" y2="270" style="stroke:black;stroke-width:1" /><text x="402" y="265" fill="black" font-size="14">2.5</text><line x1="416" y1="320" x2="416" y2="300" style="stroke:black;stroke-width:1" /><line x1="423" y1="320" x2="423" y2="290" style="stroke:black;stroke-width:1" /><line x1="431" y1="320" x2="431" y2="300" style="stroke:black;stroke-width:1" /><line x1="438" y1="320" x2="438" y2="290" style="stroke:black;stroke-width:1" /><line x1="445" y1="320" x2="445" y2="300" style="stroke:black;stroke-width:1" /><line x1="452" y1="320" x2="452" y2="290" style="stroke:black;stroke-width:1" /><line x1="459" y1="320" x2="459" y2="300" style="stroke:black;stroke-width:1" /><line x1="466" y1="320" x2="466" y2="290" style="stroke:black;stroke-width:1" /><line x1="473" y1="320" x2="473" y2="300" style="stroke:black;stroke-width:1" /><line x1="479" y1="320" x2="479" y2="260" style="stroke:black;stroke-width:1" /><text x="475" y="254" fill="black" font-size="18">3</text><line x1="492" y1="320" x2="492" y2="290" style="stroke:black;stroke-width:1" /><line x1="505" y1="320" x2="505" y2="290" style="stroke:black;stroke-width:1" /><line x1="517" y1="320" x2="517" y2="290" style="stroke:black;stroke-width:1" /><line x1="528" y1="320" x2="528" y2="290" style="stroke:black;stroke-width:1" /><line x1="540" y1="320" x2="540" y2="270" style="stroke:black;stroke-width:1" /><text x="534" y="265" fill="black" font-size="14">3.5</text><line x1="551" y1="320" x2="551" y2="290" style="stroke:black;stroke-width:1" /><line x1="561" y1="320" x2="561" y2="290" style="stroke:black;stroke-width:1" /><line x1="572" y1="320" x2="572" y2="290" style="stroke:black;stroke-width:1" /><line x1="582" y1="320" x2="582" y2="290" style="stroke:black;stroke-width:1" /><line x1="592" y1="320" x2="592" y2="260" style="stroke:black;stroke-width:1" /><text x="588" y="254" fill="black" font-size="18">4</text><line x1="602" y1="320" x2="602" y2="290" style="stroke:black;stroke-width:1" /><line x1="611" y1="320" x2="611" y2="290" style="stroke:black;stroke-width:1" /><line x1="620" y1="320" x2="620" y2="290" style="stroke:black;stroke-width:1" /><line x1="629" y1="320" x2="629" y2="290" style="stroke:black;stroke-width:1" /><line x1="638" y1="320" x2="638" y2="270" style="stroke:black;stroke-width:1" /><text x="632" y="265" fill="black" font-size="14">4.5</text><line x1="646" y1="320" x2="646" y2="290" style="stroke:black;stroke-width:1" /><line x1="655" y1="320" x2="655" y2="290" style="stroke:black;stroke-width:1" /><line x1="663" y1="320" x2="663" y2="290" style="stroke:black;stroke-width:1" /><line x1="671" y1="320" x2="671" y2="290" style="stroke:black;stroke-width:1" /><line x1="679" y1="320" x2="679" y2="260" style="stroke:black;stroke-width:1" /><text x="675" y="254" fill="black" font-size="18">5</text><line x1="687" y1="320" x2="687" y2="290" style="stroke:black;stroke-width:1" /><line x1="694" y1="320" x2="694" y2="290" style="stroke:black;stroke-width:1" /><line x1="702" y1="320" x2="702" y2="290" style="stroke:black;stroke-width:1" /><line x1="709" y1="320" x2="709" y2="290" style="stroke:black;stroke-width:1" /><line x1="716" y1="320" x2="716" y2="270" style="stroke:black;stroke-width:1" /><text x="710" y="265" fill="black" font-size="14">5.5</text><line x1="723" y1="320" x2="723" y2="290" style="stroke:black;stroke-width:1" /><line x1="730" y1="320" x2="730" y2="290" style="stroke:black;stroke-width:1" /><line x1="737" y1="320" x2="737" y2="290" style="stroke:black;stroke-width:1" /><line x1="744" y1="320" x2="744" y2="290" style="stroke:black;stroke-width:1" /><line x1="750" y1="320" x2="750" y2="260" style="stroke:black;stroke-width:1" /><text x="746" y="254" fill="black" font-size="18">6</text><line x1="757" y1="320" x2="757" y2="290" style="stroke:black;stroke-width:1" /><line x1="763" y1="320" x2="763" y2="290" style="stroke:black;stroke-width:1" /><line x1="769" y1="320" x2="769" y2="290" style="stroke:black;stroke-width:1" /><line x1="776" y1="320" x2="776" y2="290" style="stroke:black;stroke-width:1" /><line x1="782" y1="320" x2="782" y2="270" style="stroke:black;stroke-width:1" /><text x="776" y="265" fill="black" font-size="14">6.5</text><line x1="788" y1="320" x2="788" y2="290" style="stroke:black;stroke-width:1" /><line x1="793" y1="320" x2="793" y2="290" style="stroke:black;stroke-width:1" /><line x1="799" y1="320" x2="799" y2="290" style="stroke:black;stroke-width:1" /><line x1="805" y1="320" x2="805" y2="290" style="stroke:black;stroke-width:1" /><line x1="811" y1="320" x2="811" y2="260" style="stroke:black;stroke-width:1" /><text x="807" y="254" fill="black" font-size="18">7</text><line x1="816" y1="320" x2="816" y2="290" style="stroke:black;stroke-width:1" /><line x1="822" y1="320" x2="822" y2="290" style="stroke:black;stroke-width:1" /><line x1="827" y1="320" x2="827" y2="290" style="stroke:black;stroke-width:1" /><line x1="832" y1="320" x2="832" y2="290" style="stroke:black;stroke-width:1" /><line x1="838" y1="320" x2="838" y2="270" style="stroke:black;stroke-width:1" /><text x="832" y="265" fill="black" font-size="14">7.5</text><line x1="843" y1="320" x2="843" y2="290" style="stroke:black;stroke-width:1" /><line x1="848" y1="320" x2="848" y2="290" style="stroke:black;stroke-width:1" /><line x1="853" y1="320" x2="853" y2="290" style="stroke:black;stroke-width:1" /><line x1="858" y1="320" x2="858" y2="290" style="stroke:black;stroke-width:1" /><line x1="863" y1="320" x2="863" y2="260" style="stroke:black;stroke-width:1" /><text x="859" y="254" fill="black" font-size="18">8</text><line x1="868" y1="320" x2="868" y2="290" style="stroke:black;stroke-width:1" /><line x1="872" y1="320" x2="872" y2="290" style="stroke:black;stroke-width:1" /><line x1="877" y1="320" x2="877" y2="290" style="stroke:black;stroke-width:1" /><line x1="882" y1="320" x2="882" y2="290" style="stroke:black;stroke-width:1" /><line x1="886" y1="320" x2="886" y2="270" style="stroke:black;stroke-width:1" /><text x="880" y="265" fill="black" font-size="14">8.5</text><line x1="891" y1="320" x2="891" y2="290" style="stroke:black;stroke-width:1" /><line x1="896" y1="320" x2="896" y2="290" style="stroke:black;stroke-width:1" /><line x1="900" y1="320" x2="900" y2="290" style="stroke:black;stroke-width:1" /><line x1="904" y1="320" x2="904" y2="290" style="stroke:black;stroke-width:1" /><line x1="909" y1="320" x2="909" y2="260" style="stroke:black;stroke-width:1" /><text x="905" y="254" fill="black" font-size="18">9</text><line x1="913" y1="320" x2="913" y2="290" style="stroke:black;stroke-width:1" /><line x1="917" y1="320" x2="917" y2="290" style="stroke:black;stroke-width:1" /><line x1="922" y1="320" x2="922" y2="290" style="stroke:black;stroke-width:1" /><line x1="926" y1="320" x2="926" y2="290" style="stroke:black;stroke-width:1" /><line x1="930" y1="320" x2="930" y2="270" style="stroke:black;stroke-width:1" /><text x="924" y="265" fill="black" font-size="14">9.5</text><line x1="934" y1="320" x2="934" y2="290" style="stroke:black;stroke-width:1" /><line x1="938" y1="320" x2="938" y2="290" style="stroke:black;stroke-width:1" /><line x1="942" y1="320" x2="942" y2="290" style="stroke:black;stroke-width:1" /><line x1="946" y1="320" x2="946" y2="290" style="stroke:black;stroke-width:1" /><line x1="950" y1="320" x2="950" y2="250" style="stroke:black;stroke-width:1" /><text x="944" y="240" fill="black" font-size="18">10</text><text x="8" y="160" fill="black" font-size="24">CF</text><text x="46" y="175" fill="black" font-size="16">&#960;</text><line x1="50" y1="120" x2="50" y2="160" style="stroke:black;stroke-width:1" /><text x="962" y="160" fill="black" font-size="16">&#960;x</text><line x1="57" y1="120" x2="57" y2="150" style="stroke:black;stroke-width:1" /><line x1="69" y1="120" x2="69" y2="150" style="stroke:black;stroke-width:1" /><line x1="81" y1="120" x2="81" y2="150" style="stroke:black;stroke-width:1" /><line x1="92" y1="120" x2="92" y2="170" style="stroke:black;stroke-width:1" /><text x="86" y="185" fill="black" font-size="14">3.5</text><line x1="103" y1="120" x2="103" y2="150" style="stroke:black;stroke-width:1" /><line x1="114" y1="120" x2="114" y2="150" style="stroke:black;stroke-width:1" /><line x1="124" y1="120" x2="124" y2="150" style="stroke:black;stroke-width:1" /><line x1="135" y1="120" x2="135" y2="150" style="stroke:black;stroke-width:1" /><line x1="144" y1="120" x2="144" y2="180" style="stroke:black;stroke-width:1" /><text x="140" y="200" fill="black" font-size="18">4</text><line x1="154" y1="120" x2="154" y2="150" style="stroke:black;stroke-width:1" /><line x1="163" y1="120" x2="163" y2="150" style="stroke:black;stroke-width:1" /><line x1="173" y1="120" x2="173" y2="150" style="stroke:black;stroke-width:1" /><line x1="182" y1="120" x2="182" y2="150" style="stroke:black;stroke-width:1" /><line x1="190" y1="120" x2="190" y2="170" style="stroke:black;stroke-width:1" /><text x="184" y="185" fill="black" font-size="14">4.5</text><line x1="199" y1="120" x2="199" y2="150" style="stroke:black;stroke-width:1" /><line x1="207" y1="120" x2="207" y2="150" style="stroke:black;stroke-width:1" /><line x1="216" y1="120" x2="216" y2="150" style="stroke:black;stroke-width:1" /><line x1="224" y1="120" x2="224" y2="150" style="stroke:black;stroke-width:1" /><line x1="232" y1="120" x2="232" y2="180" style="stroke:black;stroke-width:1" /><text x="228" y="200" fill="black" font-size="18">5</text><line x1="239" y1="120" x2="239" y2="150" style="stroke:black;stroke-width:1" /><line x1="247" y1="120" x2="247" y2="150" style="stroke:black;stroke-width:1" /><line x1="254" y1="120" x2="254" y2="150" style="stroke:black;stroke-width:1" /><line x1="262" y1="120" x2="262" y2="150" style="stroke:black;stroke-width:1" /><line x1="269" y1="120" x2="269" y2="170" style="stroke:black;stroke-width:1" /><text x="263" y="185" fill="black" font-size="14">5.5</text><line x1="276" y1="120" x2="276" y2="150" style="stroke:black;stroke-width:1" /><line x1="283" y1="120" x2="283" y2="150" style="stroke:black;stroke-width:1" /><line x1="290" y1="120" x2="290" y2="150" style="stroke:black;stroke-width:1" /><line x1="296" y1="120" x2="296" y2="150" style="stroke:black;stroke-width:1" /><line x1="303" y1="120" x2="303" y2="180" style="stroke:black;stroke-width:1" /><text x="299" y="200" fill="black" font-size="18">6</text><line x1="309" y1="120" x2="309" y2="150" style="stroke:black;stroke-width:1" /><line x1="316" y1="120" x2="316" y2="150" style="stroke:black;stroke-width:1" /><line x1="322" y1="120" x2="322" y2="150" style="stroke:black;stroke-width:1" /><line x1="328" y1="120" x2="328" y2="150" style="stroke:black;stroke-width:1" /><line x1="334" y1="120" x2="334" y2="170" style="stroke:black;stroke-width:1" /><text x="328" y="185" fill="black" font-size="14">6.5</text><line x1="340" y1="120" x2="340" y2="150" style="stroke:black;stroke-width:1" /><line x1="346" y1="120" x2="346" y2="150" style="stroke:black;stroke-width:1" /><line x1="352" y1="120" x2="352" y2="150" style="stroke:black;stroke-width:1" /><line x1="358" y1="120" x2="358" y2="150" style="stroke:black;stroke-width:1" /><line x1="363" y1="120" x2="363" y2="180" style="stroke:black;stroke-width:1" /><text x="359" y="200" fill="black" font-size="18">7</text><line x1="369" y1="120" x2="369" y2="150" style="stroke:black;stroke-width:1" /><line x1="374" y1="120" x2="374" y2="150" style="stroke:black;stroke-width:1" /><line x1="380" y1="120" x2="380" y2="150" style="stroke:black;stroke-width:1" /><line x1="385" y1="120" x2="385" y2="150" style="stroke:black;stroke-width:1" /><line x1="390" y1="120" x2="390" y2="170" style="stroke:black;stroke-width:1" /><text x="384" y="185" fill="black" font-size="14">7.5</text><line x1="395" y1="120" x2="395" y2="150" style="stroke:black;stroke-width:1" /><line x1="400" y1="120" x2="400" y2="150" style="stroke:black;stroke-width:1" /><line x1="405" y1="120" x2="405" y2="150" style="stroke:black;stroke-width:1" /><line x1="410" y1="120" x2="410" y2="150" style="stroke:black;stroke-width:1" /><line x1="415" y1="120" x2="415" y2="180" style="stroke:black;stroke-width:1" /><text x="411" y="200" fill="black" font-size="18">8</text><line x1="420" y1="120" x2="420" y2="150" style="stroke:black;stroke-width:1" /><line x1="425" y1="120" x2="425" y2="150" style="stroke:black;stroke-width:1" /><line x1="430" y1="120" x2="430" y2="150" style="stroke:black;stroke-width:1" /><line x1="434" y1="120" x2="434" y2="150" style="stroke:black;stroke-width:1" /><line x1="439" y1="120" x2="439" y2="170" style="stroke:black;stroke-width:1" /><text x="433" y="185" fill="black" font-size="14">8.5</text><line x1="444" y1="120" x2="444" y2="150" style="stroke:black;stroke-width:1" /><line x1="448" y1="120" x2="448" y2="150" style="stroke:black;stroke-width:1" /><line x1="453" y1="120" x2="453" y2="150" style="stroke:black;stroke-width:1" /><line x1="457" y1="120" x2="457" y2="150" style="stroke:black;stroke-width:1" /><line x1="461" y1="120" x2="461" y2="180" style="stroke:black;stroke-width:1" /><text x="457" y="200" fill="black" font-size="18">9</text><line x1="466" y1="120" x2="466" y2="150" style="stroke:black;stroke-width:1" /><line x1="470" y1="120" x2="470" y2="150" style="stroke:black;stroke-width:1" /><line x1="474" y1="120" x2="474" y2="150" style="stroke:black;stroke-width:1" /><line x1="478" y1="120" x2="478" y2="150" style="stroke:black;stroke-width:1" /><line x1="483" y1="120" x2="483" y2="170" style="stroke:black;stroke-width:1" /><text x="477" y="185" fill="black" font-size="14">9.5</text><line x1="487" y1="120" x2="487" y2="150" style="stroke:black;stroke-width:1" /><line x1="491" y1="120" x2="491" y2="150" style="stroke:black;stroke-width:1" /><line x1="495" y1="120" x2="495" y2="150" style="stroke:black;stroke-width:1" /><line x1="499" y1="120" x2="499" y2="150" style="stroke:black;stroke-width:1" /><line x1="503" y1="120" x2="503" y2="190" style="stroke:black;stroke-width:1" /><text x="497" y="210" fill="black" font-size="18">10</text><line x1="522" y1="120" x2="522" y2="140" style="stroke:black;stroke-width:1" /><line x1="540" y1="120" x2="540" y2="150" style="stroke:black;stroke-width:1" /><text x="534" y="165" fill="black" font-size="12">11</text><line x1="557" y1="120" x2="557" y2="140" style="stroke:black;stroke-width:1" /><line x1="574" y1="120" x2="574" y2="150" style="stroke:black;stroke-width:1" /><text x="568" y="165" fill="black" font-size="12">12</text><line x1="590" y1="120" x2="590" y2="140" style="stroke:black;stroke-width:1" /><line x1="605" y1="120" x2="605" y2="150" style="stroke:black;stroke-width:1" /><text x="599" y="165" fill="black" font-size="12">13</text><line x1="620" y1="120" x2="620" y2="140" style="stroke:black;stroke-width:1" /><line x1="634" y1="120" x2="634" y2="150" style="stroke:black;stroke-width:1" /><text x="628" y="165" fill="black" font-size="12">14</text><line x1="648" y1="120" x2="648" y2="140" style="stroke:black;stroke-width:1" /><line x1="661" y1="120" x2="661" y2="180" style="stroke:black;stroke-width:1" /><text x="655" y="195" fill="black" font-size="14">15</text><line x1="674" y1="120" x2="674" y2="140" style="stroke:black;stroke-width:1" /><line x1="686" y1="120" x2="686" y2="150" style="stroke:black;stroke-width:1" /><text x="680" y="165" fill="black" font-size="12">16</text><line x1="698" y1="120" x2="698" y2="140" style="stroke:black;stroke-width:1" /><line x1="710" y1="120" x2="710" y2="150" style="stroke:black;stroke-width:1" /><text x="704" y="165" fill="black" font-size="12">17</text><line x1="721" y1="120" x2="721" y2="140" style="stroke:black;stroke-width:1" /><line x1="732" y1="120" x2="732" y2="150" style="stroke:black;stroke-width:1" /><text x="726" y="165" fill="black" font-size="12">18</text><line x1="743" y1="120" x2="743" y2="140" style="stroke:black;stroke-width:1" /><line x1="753" y1="120" x2="753" y2="150" style="stroke:black;stroke-width:1" /><text x="747" y="165" fill="black" font-size="12">19</text><line x1="764" y1="120" x2="764" y2="140" style="stroke:black;stroke-width:1" /><line x1="773" y1="120" x2="773" y2="190" style="stroke:black;stroke-width:1" /><text x="767" y="210" fill="black" font-size="18">20</text><line x1="783" y1="120" x2="783" y2="140" style="stroke:black;stroke-width:1" /><line x1="793" y1="120" x2="793" y2="150" style="stroke:black;stroke-width:1" /><line x1="802" y1="120" x2="802" y2="140" style="stroke:black;stroke-width:1" /><line x1="811" y1="120" x2="811" y2="150" style="stroke:black;stroke-width:1" /><line x1="820" y1="120" x2="820" y2="140" style="stroke:black;stroke-width:1" /><line x1="828" y1="120" x2="828" y2="150" style="stroke:black;stroke-width:1" /><line x1="837" y1="120" x2="837" y2="140" style="stroke:black;stroke-width:1" /><line x1="845" y1="120" x2="845" y2="150" style="stroke:black;stroke-width:1" /><line x1="853" y1="120" x2="853" y2="140" style="stroke:black;stroke-width:1" /><line x1="861" y1="120" x2="861" y2="180" style="stroke:black;stroke-width:1" /><text x="855" y="195" fill="black" font-size="14">25</text><line x1="868" y1="120" x2="868" y2="140" style="stroke:black;stroke-width:1" /><line x1="876" y1="120" x2="876" y2="150" style="stroke:black;stroke-width:1" /><line x1="883" y1="120" x2="883" y2="140" style="stroke:black;stroke-width:1" /><line x1="891" y1="120" x2="891" y2="150" style="stroke:black;stroke-width:1" /><line x1="898" y1="120" x2="898" y2="140" style="stroke:black;stroke-width:1" /><line x1="905" y1="120" x2="905" y2="150" style="stroke:black;stroke-width:1" /><line x1="912" y1="120" x2="912" y2="140" style="stroke:black;stroke-width:1" /><line x1="919" y1="120" x2="919" y2="150" style="stroke:black;stroke-width:1" /><line x1="925" y1="120" x2="925" y2="140" style="stroke:black;stroke-width:1" /><line x1="932" y1="120" x2="932" y2="190" style="stroke:black;stroke-width:1" /><text x="926" y="210" fill="black" font-size="18">30</text><line x1="938" y1="120" x2="938" y2="140" style="stroke:black;stroke-width:1" /><line x1="945" y1="120" x2="945" y2="150" style="stroke:black;stroke-width:1" /><text x="95.21901170725077" y="95" fill="black" font-size="24">DF</text><text x="133" y="75" fill="black" font-size="16">&#960;</text><line x1="137" y1="120" x2="137" y2="80" style="stroke:black;stroke-width:1" /><text x="1049.2190117072507" y="90" fill="black" font-size="16">&#960;x</text><line x1="144" y1="120" x2="144" y2="90" style="stroke:black;stroke-width:1" /><line x1="156" y1="120" x2="156" y2="90" style="stroke:black;stroke-width:1" /><line x1="168" y1="120" x2="168" y2="90" style="stroke:black;stroke-width:1" /><line x1="179" y1="120" x2="179" y2="70" style="stroke:black;stroke-width:1" /><text x="173" y="65" fill="black" font-size="14">3.5</text><line x1="190" y1="120" x2="190" y2="90" style="stroke:black;stroke-width:1" /><line x1="201" y1="120" x2="201" y2="90" style="stroke:black;stroke-width:1" /><line x1="212" y1="120" x2="212" y2="90" style="stroke:black;stroke-width:1" /><line x1="222" y1="120" x2="222" y2="90" style="stroke:black;stroke-width:1" /><line x1="232" y1="120" x2="232" y2="60" style="stroke:black;stroke-width:1" /><text x="228" y="53" fill="black" font-size="18">4</text><line x1="241" y1="120" x2="241" y2="90" style="stroke:black;stroke-width:1" /><line x1="251" y1="120" x2="251" y2="90" style="stroke:black;stroke-width:1" /><line x1="260" y1="120" x2="260" y2="90" style="stroke:black;stroke-width:1" /><line x1="269" y1="120" x2="269" y2="90" style="stroke:black;stroke-width:1" /><line x1="278" y1="120" x2="278" y2="70" style="stroke:black;stroke-width:1" /><text x="272" y="65" fill="black" font-size="14">4.5</text><line x1="286" y1="120" x2="286" y2="90" style="stroke:black;stroke-width:1" /><line x1="295" y1="120" x2="295" y2="90" style="stroke:black;stroke-width:1" /><line x1="303" y1="120" x2="303" y2="90" style="stroke:black;stroke-width:1" /><line x1="311" y1="120" x2="311" y2="90" style="stroke:black;stroke-width:1" /><line x1="319" y1="120" x2="319" y2="60" style="stroke:black;stroke-width:1" /><text x="315" y="53" fill="black" font-size="18">5</text><line x1="327" y1="120" x2="327" y2="90" style="stroke:black;stroke-width:1" /><line x1="334" y1="120" x2="334" y2="90" style="stroke:black;stroke-width:1" /><line x1="342" y1="120" x2="342" y2="90" style="stroke:black;stroke-width:1" /><line x1="349" y1="120" x2="349" y2="90" style="stroke:black;stroke-width:1" /><line x1="356" y1="120" x2="356" y2="70" style="stroke:black;stroke-width:1" /><text x="350" y="65" fill="black" font-size="14">5.5</text><line x1="363" y1="120" x2="363" y2="90" style="stroke:black;stroke-width:1" /><line x1="370" y1="120" x2="370" y2="90" style="stroke:black;stroke-width:1" /><line x1="377" y1="120" x2="377" y2="90" style="stroke:black;stroke-width:1" /><line x1="384" y1="120" x2="384" y2="90" style="stroke:black;stroke-width:1" /><line x1="390" y1="120" x2="390" y2="60" style="stroke:black;stroke-width:1" /><text x="386" y="53" fill="black" font-size="18">6</text><line x1="397" y1="120" x2="397" y2="90" style="stroke:black;stroke-width:1" /><line x1="403" y1="120" x2="403" y2="90" style="stroke:black;stroke-width:1" /><line x1="409" y1="120" x2="409" y2="90" style="stroke:black;stroke-width:1" /><line x1="415" y1="120" x2="415" y2="90" style="stroke:black;stroke-width:1" /><line x1="421" y1="120" x2="421" y2="70" style="stroke:black;stroke-width:1" /><text x="415" y="65" fill="black" font-size="14">6.5</text><line x1="427" y1="120" x2="427" y2="90" style="stroke:black;stroke-width:1" /><line x1="433" y1="120" x2="433" y2="90" style="stroke:black;stroke-width:1" /><line x1="439" y1="120" x2="439" y2="90" style="stroke:black;stroke-width:1" /><line x1="445" y1="120" x2="445" y2="90" style="stroke:black;stroke-width:1" /><line x1="450" y1="120" x2="450" y2="60" style="stroke:black;stroke-width:1" /><text x="446" y="53" fill="black" font-size="18">7</text><line x1="456" y1="120" x2="456" y2="90" style="stroke:black;stroke-width:1" /><line x1="461" y1="120" x2="461" y2="90" style="stroke:black;stroke-width:1" /><line x1="467" y1="120" x2="467" y2="90" style="stroke:black;stroke-width:1" /><line x1="472" y1="120" x2="472" y2="90" style="stroke:black;stroke-width:1" /><line x1="477" y1="120" x2="477" y2="70" style="stroke:black;stroke-width:1" /><text x="471" y="65" fill="black" font-size="14">7.5</text><line x1="483" y1="120" x2="483" y2="90" style="stroke:black;stroke-width:1" /><line x1="488" y1="120" x2="488" y2="90" style="stroke:black;stroke-width:1" /><line x1="493" y1="120" x2="493" y2="90" style="stroke:black;stroke-width:1" /><line x1="498" y1="120" x2="498" y2="90" style="stroke:black;stroke-width:1" /><line x1="503" y1="120" x2="503" y2="60" style="stroke:black;stroke-width:1" /><text x="499" y="53" fill="black" font-size="18">8</text><line x1="507" y1="120" x2="507" y2="90" style="stroke:black;stroke-width:1" /><line x1="512" y1="120" x2="512" y2="90" style="stroke:black;stroke-width:1" /><line x1="517" y1="120" x2="517" y2="90" style="stroke:black;stroke-width:1" /><line x1="522" y1="120" x2="522" y2="90" style="stroke:black;stroke-width:1" /><line x1="526" y1="120" x2="526" y2="70" style="stroke:black;stroke-width:1" /><text x="520" y="65" fill="black" font-size="14">8.5</text><line x1="531" y1="120" x2="531" y2="90" style="stroke:black;stroke-width:1" /><line x1="535" y1="120" x2="535" y2="90" style="stroke:black;stroke-width:1" /><line x1="540" y1="120" x2="540" y2="90" style="stroke:black;stroke-width:1" /><line x1="544" y1="120" x2="544" y2="90" style="stroke:black;stroke-width:1" /><line x1="549" y1="120" x2="549" y2="60" style="stroke:black;stroke-width:1" /><text x="545" y="53" fill="black" font-size="18">9</text><line x1="553" y1="120" x2="553" y2="90" style="stroke:black;stroke-width:1" /><line x1="557" y1="120" x2="557" y2="90" style="stroke:black;stroke-width:1" /><line x1="561" y1="120" x2="561" y2="90" style="stroke:black;stroke-width:1" /><line x1="566" y1="120" x2="566" y2="90" style="stroke:black;stroke-width:1" /><line x1="570" y1="120" x2="570" y2="70" style="stroke:black;stroke-width:1" /><text x="564" y="65" fill="black" font-size="14">9.5</text><line x1="574" y1="120" x2="574" y2="90" style="stroke:black;stroke-width:1" /><line x1="578" y1="120" x2="578" y2="90" style="stroke:black;stroke-width:1" /><line x1="582" y1="120" x2="582" y2="90" style="stroke:black;stroke-width:1" /><line x1="586" y1="120" x2="586" y2="90" style="stroke:black;stroke-width:1" /><line x1="590" y1="120" x2="590" y2="50" style="stroke:black;stroke-width:1" /><text x="584" y="44" fill="black" font-size="18">10</text><line x1="609" y1="120" x2="609" y2="100" style="stroke:black;stroke-width:1" /><line x1="627" y1="120" x2="627" y2="90" style="stroke:black;stroke-width:1" /><text x="621" y="85" fill="black" font-size="12">11</text><line x1="644" y1="120" x2="644" y2="100" style="stroke:black;stroke-width:1" /><line x1="661" y1="120" x2="661" y2="90" style="stroke:black;stroke-width:1" /><text x="655" y="85" fill="black" font-size="12">12</text><line x1="677" y1="120" x2="677" y2="100" style="stroke:black;stroke-width:1" /><line x1="692" y1="120" x2="692" y2="90" style="stroke:black;stroke-width:1" /><text x="686" y="85" fill="black" font-size="12">13</text><line x1="707" y1="120" x2="707" y2="100" style="stroke:black;stroke-width:1" /><line x1="721" y1="120" x2="721" y2="90" style="stroke:black;stroke-width:1" /><text x="715" y="85" fill="black" font-size="12">14</text><line x1="735" y1="120" x2="735" y2="100" style="stroke:black;stroke-width:1" /><line x1="748" y1="120" x2="748" y2="60" style="stroke:black;stroke-width:1" /><text x="742" y="55" fill="black" font-size="14">15</text><line x1="761" y1="120" x2="761" y2="100" style="stroke:black;stroke-width:1" /><line x1="773" y1="120" x2="773" y2="90" style="stroke:black;stroke-width:1" /><text x="767" y="85" fill="black" font-size="12">16</text><line x1="786" y1="120" x2="786" y2="100" style="stroke:black;stroke-width:1" /><line x1="797" y1="120" x2="797" y2="90" style="stroke:black;stroke-width:1" /><text x="791" y="85" fill="black" font-size="12">17</text><line x1="809" y1="120" x2="809" y2="100" style="stroke:black;stroke-width:1" /><line x1="820" y1="120" x2="820" y2="90" style="stroke:black;stroke-width:1" /><text x="814" y="85" fill="black" font-size="12">18</text><line x1="830" y1="120" x2="830" y2="100" style="stroke:black;stroke-width:1" /><line x1="841" y1="120" x2="841" y2="90" style="stroke:black;stroke-width:1" /><text x="835" y="85" fill="black" font-size="12">19</text><line x1="851" y1="120" x2="851" y2="100" style="stroke:black;stroke-width:1" /><line x1="861" y1="120" x2="861" y2="50" style="stroke:black;stroke-width:1" /><text x="855" y="44" fill="black" font-size="18">20</text><line x1="870" y1="120" x2="870" y2="100" style="stroke:black;stroke-width:1" /><line x1="880" y1="120" x2="880" y2="90" style="stroke:black;stroke-width:1" /><line x1="889" y1="120" x2="889" y2="100" style="stroke:black;stroke-width:1" /><line x1="898" y1="120" x2="898" y2="90" style="stroke:black;stroke-width:1" /><line x1="907" y1="120" x2="907" y2="100" style="stroke:black;stroke-width:1" /><line x1="915" y1="120" x2="915" y2="90" style="stroke:black;stroke-width:1" /><line x1="924" y1="120" x2="924" y2="100" style="stroke:black;stroke-width:1" /><line x1="932" y1="120" x2="932" y2="90" style="stroke:black;stroke-width:1" /><line x1="940" y1="120" x2="940" y2="100" style="stroke:black;stroke-width:1" /><line x1="948" y1="120" x2="948" y2="60" style="stroke:black;stroke-width:1" /><text x="942" y="55" fill="black" font-size="14">25</text><line x1="956" y1="120" x2="956" y2="100" style="stroke:black;stroke-width:1" /><line x1="963" y1="120" x2="963" y2="90" style="stroke:black;stroke-width:1" /><line x1="971" y1="120" x2="971" y2="100" style="stroke:black;stroke-width:1" /><line x1="978" y1="120" x2="978" y2="90" style="stroke:black;stroke-width:1" /><line x1="985" y1="120" x2="985" y2="100" style="stroke:black;stroke-width:1" /><line x1="992" y1="120" x2="992" y2="90" style="stroke:black;stroke-width:1" /><line x1="999" y1="120" x2="999" y2="100" style="stroke:black;stroke-width:1" /><line x1="1006" y1="120" x2="1006" y2="90" style="stroke:black;stroke-width:1" /><line x1="1013" y1="120" x2="1013" y2="100" style="stroke:black;stroke-width:1" /><line x1="1019" y1="120" x2="1019" y2="50" style="stroke:black;stroke-width:1" /><text x="1013" y="44" fill="black" font-size="18">30</text><line x1="1026" y1="120" x2="1026" y2="100" style="stroke:black;stroke-width:1" /><line x1="1032" y1="120" x2="1032" y2="90" style="stroke:black;stroke-width:1" /></svg>