<?xml version='1.0' encoding='us-ascii'?>
<svg width="1000.0" height="120" version="1.1" xmlns="http://www.w3.org/2000/svg"><style>text {
          font-family: Arial, Helvetica, sans-serif;
          font-weight: Thin;
          }
    </style><rect width="1000" height="120" x="0.0" y="0" style="fill:#f9fc69;stroke-width:1;stroke:black" /><g transform="translate(0 20)"><text x="8.0" y="75" fill="black" font-size="24">DF</text><text x="46.0" y="55" fill="black" font-size="16">&#960;</text><line x1="50.0" y1="100" x2="50.0" y2="60" style="stroke:black;stroke-width:1" /><text x="962.0" y="70" fill="black" font-size="16">&#960;x</text><line x1="57.25" y1="100" x2="57.25" y2="70" style="stroke:black;stroke-width:1" /><line x1="69.25" y1="100" x2="69.25" y2="70" style="stroke:black;stroke-width:1" /><line x1="81.0" y1="100" x2="81.0" y2="70" style="stroke:black;stroke-width:1" /><line x1="92.25" y1="100" x2="92.25" y2="50" style="stroke:black;stroke-width:1" /><text x="86" y="45" fill="black" font-size="14">3.5</text><line x1="103.25" y1="100" x2="103.25" y2="70" style="stroke:black;stroke-width:1" /><line x1="114.0" y1="100" x2="114.0" y2="70" style="stroke:black;stroke-width:1" /><line x1="124.25" y1="100" x2="124.25" y2="70" style="stroke:black;stroke-width:1" /><line x1="134.5" y1="100" x2="134.5" y2="70" style="stroke:black;stroke-width:1" /><line x1="144.5" y1="100" x2="144.5" y2="40" style="stroke:black;stroke-width:1" /><text x="140" y="33" fill="black" font-size="18">4</text><line x1="154.0" y1="100" x2="154.0" y2="70" style="stroke:black;stroke-width:1" /><line x1="163.5" y1="100" x2="163.5" y2="70" style="stroke:black;stroke-width:1" /><line x1="172.75" y1="100" x2="172.75" y2="70" style="stroke:black;stroke-width:1" /><line x1="181.75" y1="100" x2="181.75" y2="70" style="stroke:black;stroke-width:1" /><line x1="190.5" y1="100" x2="190.5" y2="50" style="stroke:black;stroke-width:1" /><text x="184" y="45" fill="black" font-size="14">4.5</text><line x1="199.0" y1="100" x2="199.0" y2="70" style="stroke:black;stroke-width:1" /><line x1="207.5" y1="100" x2="207.5" y2="70" style="stroke:black;stroke-width:1" /><line x1="215.75" y1="100" x2="215.75" y2="70" style="stroke:black;stroke-width:1" /><line x1="223.75" y1="100" x2="223.75" y2="70" style="stroke:black;stroke-width:1" /><line x1="231.75" y1="100" x2="231.75" y2="40" style="stroke:black;stroke-width:1" /><text x="228" y="33" fill="black" font-size="18">5</text><line x1="239.5" y1="100" x2="239.5" y2="70" style="stroke:black;stroke-width:1" /><line x1="247.0" y1="100" x2="247.0" y2="70" style="stroke:black;stroke-width:1" /><line x1="254.5" y1="100" x2="254.5" y2="70" style="stroke:black;stroke-width:1" /><line x1="261.75" y1="100" x2="261.75" y2="70" style="stroke:black;stroke-width:1" /><line x1="269.0" y1="100" x2="269.0" y2="50" style="stroke:black;stroke-width:1" /><text x="263" y="45" fill="black" font-size="14">5.5</text><line x1="276.0" y1="100" x2="276.0" y2="70" style="stroke:black;stroke-width:1" /><line x1="282.75" y1="100" x2="282.75" y2="70" style="stroke:black;stroke-width:1" /><line x1="289.75" y1="100" x2="289.75" y2="70" style="stroke:black;stroke-width:1" /><line x1="296.25" y1="100" x2="296.25" y2="70" style="stroke:black;stroke-width:1" /><line x1="303.0" y1="100" x2="303.0" y2="40" style="stroke:black;stroke-width:1" /><text x="299" y="33" fill="black" font-size="18">6</text><line x1="309.25" y1="100" x2="309.25" y2="70" style="stroke:black;stroke-width:1" /><line x1="315.75" y1="100" x2="315.75" y2="70" style="stroke:black;stroke-width:1" /><line x1="322.0" y1="100" x2="322.0" y2="70" style="stroke:black;stroke-width:1" /><line x1="328.25" y1="100" x2="328.25" y2="70" style="stroke:black;stroke-width:1" /><line x1="334.25" y1="100" x2="334.25" y2="50" style="stroke:black;stroke-width:1" /><text x="328" y="45" fill="black" font-size="14">6.5</text><line x1="340.25" y1="100" x2="340.25" y2="70" style="stroke:black;stroke-width:1" /><line x1="346.0" y1="100" x2="346.0" y2="70" style="stroke:black;stroke-width:1" /><line x1="351.75" y1="100" x2="351.75" y2="70" style="stroke:black;stroke-width:1" /><line x1="357.5" y1="100" x2="357.5" y2="70" style="stroke:black;stroke-width:1" /><line x1="363.25" y1="100" x2="363.25" y2="40" style="stroke:black;stroke-width:1" /><text x="359" y="33" fill="black" font-size="18">7</text><line x1="368.75" y1="100" x2="368.75" y2="70" style="stroke:black;stroke-width:1" /><line x1="374.25" y1="100" x2="374.25" y2="70" style="stroke:black;stroke-width:1" /><line x1="379.5" y1="100" x2="379.5" y2="70" style="stroke:black;stroke-width:1" /><line x1="384.75" y1="100" x2="384.75" y2="70" style="stroke:black;stroke-width:1" /><line x1="390.0" y1="100" x2="390.0" y2="50" style="stroke:black;stroke-width:1" /><text x="384" y="45" fill="black" font-size="14">7.5</text><line x1="395.25" y1="100" x2="395.25" y2="70" style="stroke:black;stroke-width:1" /><line x1="400.5" y1="100" x2="400.5" y2="70" style="stroke:black;stroke-width:1" /><line x1="405.5" y1="100" x2="405.5" y2="70" style="stroke:black;stroke-width:1" /><line x1="410.5" y1="100" x2="410.5" y2="70" style="stroke:black;stroke-width:1" /><line x1="415.25" y1="100" x2="415.25" y2="40" style="stroke:black;stroke-width:1" /><text x="411" y="33" fill="black" font-size="18">8</text><line x1="420.25" y1="100" x2="420.25" y2="70" style="stroke:black;stroke-width:1" /><line x1="425.0" y1="100" x2="425.0" y2="70" style="stroke:black;stroke-width:1" /><line x1="429.75" y1="100" x2="429.75" y2="70" style="stroke:black;stroke-width:1" /><line x1="434.5" y1="100" x2="434.5" y2="70" style="stroke:black;stroke-width:1" /><line x1="439.0" y1="100" x2="439.0" y2="50" style="stroke:black;stroke-width:1" /><text x="433" y="45" fill="black" font-size="14">8.5</text><line x1="443.5" y1="100" x2="443.5" y2="70" style="stroke:black;stroke-width:1" /><line x1="448.25" y1="100" x2="448.25" y2="70" style="stroke:black;stroke-width:1" /><line x1="452.5" y1="100" x2="452.5" y2="70" style="stroke:black;stroke-width:1" /><line x1="457.0" y1="100" x2="457.0" y2="70" style="stroke:black;stroke-width:1" /><line x1="461.5" y1="100" x2="461.5" y2="40" style="stroke:black;stroke-width:1" /><text x="457" y="33" fill="black" font-size="18">9</text><line x1="465.75" y1="100" x2="465.75" y2="70" style="stroke:black;stroke-width:1" /><line x1="470.0" y1="100" x2="470.0" y2="70" style="stroke:black;stroke-width:1" /><line x1="474.25" y1="100" x2="474.25" y2="70" style="stroke:black;stroke-width:1" /><line x1="478.5" y1="100" x2="478.5" y2="70" style="stroke:black;stroke-width:1" /><line x1="482.5" y1="100" x2="482.5" y2="50" style="stroke:black;stroke-width:1" /><text x="477" y="45" fill="black" font-size="14">9.5</text><line x1="486.5" y1="100" x2="486.5" y2="70" style="stroke:black;stroke-width:1" /><line x1="490.75" y1="100" x2="490.75" y2="70" style="stroke:black;stroke-width:1" /><line x1="494.75" y1="100" x2="494.75" y2="70" style="stroke:black;stroke-width:1" /><line x1="498.75" y1="100" x2="498.75" y2="70" style="stroke:black;stroke-width:1" /><line x1="502.5" y1="100" x2="502.5" y2="30" style="stroke:black;stroke-width:1" /><text x="499" y="24" fill="black" font-size="18">1</text><line x1="521.75" y1="100" x2="521.75" y2="80" style="stroke:black;stroke-width:1" /><line x1="539.75" y1="100" x2="539.75" y2="70" style="stroke:black;stroke-width:1" /><text x="534" y="65" fill="black" font-size="12">1.1</text><line x1="557.25" y1="100" x2="557.25" y2="80" style="stroke:black;stroke-width:1" /><line x1="573.75" y1="100" x2="573.75" y2="70" style="stroke:black;stroke-width:1" /><text x="568" y="65" fill="black" font-size="12">1.2</text><line x1="589.75" y1="100" x2="589.75" y2="80" style="stroke:black;stroke-width:1" /><line x1="605.0" y1="100" x2="605.0" y2="70" style="stroke:black;stroke-width:1" /><text x="599" y="65" fill="black" font-size="12">1.3</text><line x1="619.75" y1="100" x2="619.75" y2="80" style="stroke:black;stroke-width:1" /><line x1="634.0" y1="100" x2="634.0" y2="70" style="stroke:black;stroke-width:1" /><text x="628" y="65" fill="black" font-size="12">1.4</text><line x1="647.75" y1="100" x2="647.75" y2="80" style="stroke:black;stroke-width:1" /><line x1="661.0" y1="100" x2="661.0" y2="40" style="stroke:black;stroke-width:1" /><text x="655" y="35" fill="black" font-size="14">1.5</text><line x1="673.75" y1="100" x2="673.75" y2="80" style="stroke:black;stroke-width:1" /><line x1="686.25" y1="100" x2="686.25" y2="70" style="stroke:black;stroke-width:1" /><text x="680" y="65" fill="black" font-size="12">1.6</text><line x1="698.25" y1="100" x2="698.25" y2="80" style="stroke:black;stroke-width:1" /><line x1="710.0" y1="100" x2="710.0" y2="70" style="stroke:black;stroke-width:1" /><text x="704" y="65" fill="black" font-size="12">1.7</text><line x1="721.25" y1="100" x2="721.25" y2="80" style="stroke:black;stroke-width:1" /><line x1="732.25" y1="100" x2="732.25" y2="70" style="stroke:black;stroke-width:1" /><text x="726" y="65" fill="black" font-size="12">1.8</text><line x1="743.0" y1="100" x2="743.0" y2="80" style="stroke:black;stroke-width:1" /><line x1="753.5" y1="100" x2="753.5" y2="70" style="stroke:black;stroke-width:1" /><text x="747" y="65" fill="black" font-size="12">1.9</text><line x1="763.5" y1="100" x2="763.5" y2="80" style="stroke:black;stroke-width:1" /><line x1="773.5" y1="100" x2="773.5" y2="30" style="stroke:black;stroke-width:1" /><text x="769" y="24" fill="black" font-size="18">2</text><line x1="783.25" y1="100" x2="783.25" y2="80" style="stroke:black;stroke-width:1" /><line x1="792.5" y1="100" x2="792.5" y2="70" style="stroke:black;stroke-width:1" /><line x1="801.75" y1="100" x2="801.75" y2="80" style="stroke:black;stroke-width:1" /><line x1="810.75" y1="100" x2="810.75" y2="70" style="stroke:black;stroke-width:1" /><line x1="819.5" y1="100" x2="819.5" y2="80" style="stroke:black;stroke-width:1" /><line x1="828.0" y1="100" x2="828.0" y2="70" style="stroke:black;stroke-width:1" /><line x1="836.5" y1="100" x2="836.5" y2="80" style="stroke:black;stroke-width:1" /><line x1="844.75" y1="100" x2="844.75" y2="70" style="stroke:black;stroke-width:1" /><line x1="852.75" y1="100" x2="852.75" y2="80" style="stroke:black;stroke-width:1" /><line x1="860.75" y1="100" x2="860.75" y2="40" style="stroke:black;stroke-width:1" /><text x="855" y="35" fill="black" font-size="14">2.5</text><line x1="868.5" y1="100" x2="868.5" y2="80" style="stroke:black;stroke-width:1" /><line x1="876.0" y1="100" x2="876.0" y2="70" style="stroke:black;stroke-width:1" /><line x1="883.5" y1="100" x2="883.5" y2="80" style="stroke:black;stroke-width:1" /><line x1="890.75" y1="100" x2="890.75" y2="70" style="stroke:black;stroke-width:1" /><line x1="898.0" y1="100" x2="898.0" y2="80" style="stroke:black;stroke-width:1" /><line x1="905.0" y1="100" x2="905.0" y2="70" style="stroke:black;stroke-width:1" /><line x1="912.0" y1="100" x2="912.0" y2="80" style="stroke:black;stroke-width:1" /><line x1="918.75" y1="100" x2="918.75" y2="70" style="stroke:black;stroke-width:1" /><line x1="925.5" y1="100" x2="925.5" y2="80" style="stroke:black;stroke-width:1" /><line x1="932.0" y1="100" x2="932.0" y2="30" style="stroke:black;stroke-width:1" /><text x="928" y="24" fill="black" font-size="18">3</text><line x1="938.5" y1="100" x2="938.5" y2="80" style="stroke:black;stroke-width:1" /><line x1="944.75" y1="100" x2="944.75" y2="70" style="stroke:black;stroke-width:1" /></g></svg>