<?xml version='1.0' encoding='us-ascii'?>
<svg width="1112.44486294747" height="240" version="1.1" xmlns="http://www.w3.org/2000/svg"><style>text {
          font-family: Arial, Helvetica, sans-serif;
          font-weight: Thin;
          }
    </style><rect width="1000" height="120" x="0.0" y="0" style="fill:#f9fc69;stroke-width:1;stroke:black" /><rect width="1000" height="120" x="112.44486294746993" y="120" style="fill:#f9fc69;stroke-width:1;stroke:black" /><line x1="862.7809882927492" y1="0" x2="862.7809882927492" y2="240" style="stroke:grey;stroke-width:1" /><g transform="translate(0 20)"><text x="8.0" y="70" fill="black" font-size="24">C</text><text x="493.5" y="53" fill="black" font-size="16">&#960;</text><line x1="497.5" y1="100" x2="497.5" y2="60" style="stroke:black;stroke-width:1" /><text x="962.0" y="68" fill="black" font-size="16">x</text><line x1="50.0" y1="100" x2="50.0" y2="30" style="stroke:black;stroke-width:1" /><text x="46" y="20" fill="black" font-size="18">1</text><line x1="69.0" y1="100" x2="69.0" y2="80" style="stroke:black;stroke-width:1" /><line x1="87.25" y1="100" x2="87.25" y2="70" style="stroke:black;stroke-width:1" /><text x="81.25341664240256" y="67" fill="black" font-size="12">1.1</text><line x1="104.75" y1="100" x2="104.75" y2="80" style="stroke:black;stroke-width:1" /><line x1="121.25" y1="100" x2="121.25" y2="70" style="stroke:black;stroke-width:1" /><text x="115.26312144286234" y="67" fill="black" font-size="12">1.2</text><line x1="137.25" y1="100" x2="137.25" y2="80" style="stroke:black;stroke-width:1" /><line x1="152.5" y1="100" x2="152.5" y2="70" style="stroke:black;stroke-width:1" /><text x="146.5490170761531" y="67" fill="black" font-size="12">1.3</text><line x1="167.25" y1="100" x2="167.25" y2="80" style="stroke:black;stroke-width:1" /><line x1="181.5" y1="100" x2="181.5" y2="70" style="stroke:black;stroke-width:1" /><text x="175.51523211041422" y="67" fill="black" font-size="12">1.4</text><line x1="195.25" y1="100" x2="195.25" y2="80" style="stroke:black;stroke-width:1" /><line x1="208.5" y1="100" x2="208.5" y2="50" style="stroke:black;stroke-width:1" /><text x="202.4821331501131" y="45" fill="black" font-size="14">1.5</text><line x1="221.25" y1="100" x2="221.25" y2="80" style="stroke:black;stroke-width:1" /><line x1="233.75" y1="100" x2="233.75" y2="70" style="stroke:black;stroke-width:1" /><text x="227.70798439033234" y="67" fill="black" font-size="12">1.6</text><line x1="245.75" y1="100" x2="245.75" y2="80" style="stroke:black;stroke-width:1" /><line x1="257.5" y1="100" x2="257.5" y2="70" style="stroke:black;stroke-width:1" /><text x="251.40402924044656" y="67" fill="black" font-size="12">1.7</text><line x1="268.75" y1="100" x2="268.75" y2="80" style="stroke:black;stroke-width:1" /><line x1="279.75" y1="100" x2="279.75" y2="70" style="stroke:black;stroke-width:1" /><text x="273.74525459297547" y="67" fill="black" font-size="12">1.8</text><line x1="290.5" y1="100" x2="290.5" y2="80" style="stroke:black;stroke-width:1" /><line x1="301.0" y1="100" x2="301.0" y2="70" style="stroke:black;stroke-width:1" /><text x="294.878240857546" y="67" fill="black" font-size="12">1.9</text><line x1="311.0" y1="100" x2="311.0" y2="80" style="stroke:black;stroke-width:1" /><line x1="321.0" y1="100" x2="321.0" y2="40" style="stroke:black;stroke-width:1" /><text x="317" y="34" fill="black" font-size="18">2</text><line x1="330.5" y1="100" x2="330.5" y2="80" style="stroke:black;stroke-width:1" /><line x1="340.0" y1="100" x2="340.0" y2="70" style="stroke:black;stroke-width:1" /><line x1="349.25" y1="100" x2="349.25" y2="80" style="stroke:black;stroke-width:1" /><line x1="358.25" y1="100" x2="358.25" y2="70" style="stroke:black;stroke-width:1" /><line x1="367.0" y1="100" x2="367.0" y2="80" style="stroke:black;stroke-width:1" /><line x1="375.5" y1="100" x2="375.5" y2="70" style="stroke:black;stroke-width:1" /><line x1="384.0" y1="100" x2="384.0" y2="80" style="stroke:black;stroke-width:1" /><line x1="392.25" y1="100" x2="392.25" y2="70" style="stroke:black;stroke-width:1" /><line x1="400.25" y1="100" x2="400.25" y2="80" style="stroke:black;stroke-width:1" /><line x1="408.25" y1="100" x2="408.25" y2="50" style="stroke:black;stroke-width:1" /><text x="402.14600780483386" y="45" fill="black" font-size="14">2.5</text><line x1="416.0" y1="100" x2="416.0" y2="80" style="stroke:black;stroke-width:1" /><line x1="423.5" y1="100" x2="423.5" y2="70" style="stroke:black;stroke-width:1" /><line x1="431.0" y1="100" x2="431.0" y2="80" style="stroke:black;stroke-width:1" /><line x1="438.25" y1="100" x2="438.25" y2="70" style="stroke:black;stroke-width:1" /><line x1="445.5" y1="100" x2="445.5" y2="80" style="stroke:black;stroke-width:1" /><line x1="452.5" y1="100" x2="452.5" y2="70" style="stroke:black;stroke-width:1" /><line x1="459.25" y1="100" x2="459.25" y2="80" style="stroke:black;stroke-width:1" /><line x1="466.25" y1="100" x2="466.25" y2="70" style="stroke:black;stroke-width:1" /><line x1="472.75" y1="100" x2="472.75" y2="80" style="stroke:black;stroke-width:1" /><line x1="479.5" y1="100" x2="479.5" y2="40" style="stroke:black;stroke-width:1" /><text x="475" y="34" fill="black" font-size="18">3</text><line x1="485.75" y1="100" x2="485.75" y2="80" style="stroke:black;stroke-width:1" /><line x1="492.25" y1="100" x2="492.25" y2="70" style="stroke:black;stroke-width:1" /><line x1="498.5" y1="100" x2="498.5" y2="80" style="stroke:black;stroke-width:1" /><line x1="504.75" y1="100" x2="504.75" y2="70" style="stroke:black;stroke-width:1" /><line x1="510.75" y1="100" x2="510.75" y2="80" style="stroke:black;stroke-width:1" /><line x1="516.75" y1="100" x2="516.75" y2="70" style="stroke:black;stroke-width:1" /><line x1="522.5" y1="100" x2="522.5" y2="80" style="stroke:black;stroke-width:1" /><line x1="528.25" y1="100" x2="528.25" y2="70" style="stroke:black;stroke-width:1" /><line x1="534.0" y1="100" x2="534.0" y2="80" style="stroke:black;stroke-width:1" /><line x1="539.75" y1="100" x2="539.75" y2="50" style="stroke:black;stroke-width:1" /><text x="533.6612399152481" y="45" fill="black" font-size="14">3.5</text><line x1="545.25" y1="100" x2="545.25" y2="80" style="stroke:black;stroke-width:1" /><line x1="550.75" y1="100" x2="550.75" y2="70" style="stroke:black;stroke-width:1" /><line x1="556.0" y1="100" x2="556.0" y2="80" style="stroke:black;stroke-width:1" /><line x1="561.5" y1="100" x2="561.5" y2="70" style="stroke:black;stroke-width:1" /><line x1="566.75" y1="100" x2="566.75" y2="80" style="stroke:black;stroke-width:1" /><line x1="571.75" y1="100" x2="571.75" y2="70" style="stroke:black;stroke-width:1" /><line x1="577.0" y1="100" x2="577.0" y2="80" style="stroke:black;stroke-width:1" /><line x1="582.0" y1="100" x2="582.0" y2="70" style="stroke:black;stroke-width:1" /><line x1="587.0" y1="100" x2="587.0" y2="80" style="stroke:black;stroke-width:1" /><line x1="591.75" y1="100" x2="591.75" y2="40" style="stroke:black;stroke-width:1" /><text x="588" y="34" fill="black" font-size="18">4</text><line x1="601.5" y1="100" x2="601.5" y2="70" style="stroke:black;stroke-width:1" /><line x1="611.0" y1="100" x2="611.0" y2="70" style="stroke:black;stroke-width:1" /><line x1="620.0" y1="100" x2="620.0" y2="70" style="stroke:black;stroke-width:1" /><line x1="629.0" y1="100" x2="629.0" y2="70" style="stroke:black;stroke-width:1" /><line x1="638.0" y1="100" x2="638.0" y2="50" style="stroke:black;stroke-width:1" /><text x="631.8912623978093" y="45" fill="black" font-size="14">4.5</text><line x1="646.5" y1="100" x2="646.5" y2="70" style="stroke:black;stroke-width:1" /><line x1="655.0" y1="100" x2="655.0" y2="70" style="stroke:black;stroke-width:1" /><line x1="663.0" y1="100" x2="663.0" y2="70" style="stroke:black;stroke-width:1" /><line x1="671.25" y1="100" x2="671.25" y2="70" style="stroke:black;stroke-width:1" /><line x1="679.0" y1="100" x2="679.0" y2="40" style="stroke:black;stroke-width:1" /><text x="675" y="34" fill="black" font-size="18">5</text><line x1="686.75" y1="100" x2="686.75" y2="70" style="stroke:black;stroke-width:1" /><line x1="694.5" y1="100" x2="694.5" y2="70" style="stroke:black;stroke-width:1" /><line x1="701.75" y1="100" x2="701.75" y2="70" style="stroke:black;stroke-width:1" /><line x1="709.25" y1="100" x2="709.25" y2="70" style="stroke:black;stroke-width:1" /><line x1="716.25" y1="100" x2="716.25" y2="50" style="stroke:black;stroke-width:1" /><text x="710.3264205448195" y="45" fill="black" font-size="14">5.5</text><line x1="723.25" y1="100" x2="723.25" y2="70" style="stroke:black;stroke-width:1" /><line x1="730.25" y1="100" x2="730.25" y2="70" style="stroke:black;stroke-width:1" /><line x1="737.0" y1="100" x2="737.0" y2="70" style="stroke:black;stroke-width:1" /><line x1="743.75" y1="100" x2="743.75" y2="70" style="stroke:black;stroke-width:1" /><line x1="750.25" y1="100" x2="750.25" y2="40" style="stroke:black;stroke-width:1" /><text x="746" y="34" fill="black" font-size="18">6</text><line x1="756.75" y1="100" x2="756.75" y2="70" style="stroke:black;stroke-width:1" /><line x1="763.25" y1="100" x2="763.25" y2="70" style="stroke:black;stroke-width:1" /><line x1="769.5" y1="100" x2="769.5" y2="70" style="stroke:black;stroke-width:1" /><line x1="775.5" y1="100" x2="775.5" y2="70" style="stroke:black;stroke-width:1" /><line x1="781.5" y1="100" x2="781.5" y2="50" style="stroke:black;stroke-width:1" /><text x="775.62202097857" y="45" fill="black" font-size="14">6.5</text><line x1="787.5" y1="100" x2="787.5" y2="70" style="stroke:black;stroke-width:1" /><line x1="793.5" y1="100" x2="793.5" y2="70" style="stroke:black;stroke-width:1" /><line x1="799.25" y1="100" x2="799.25" y2="70" style="stroke:black;stroke-width:1" /><line x1="805.0" y1="100" x2="805.0" y2="70" style="stroke:black;stroke-width:1" /><line x1="810.5" y1="100" x2="810.5" y2="40" style="stroke:black;stroke-width:1" /><text x="807" y="34" fill="black" font-size="18">7</text><line x1="816.25" y1="100" x2="816.25" y2="70" style="stroke:black;stroke-width:1" /><line x1="821.5" y1="100" x2="821.5" y2="70" style="stroke:black;stroke-width:1" /><line x1="827.0" y1="100" x2="827.0" y2="70" style="stroke:black;stroke-width:1" /><line x1="832.25" y1="100" x2="832.25" y2="70" style="stroke:black;stroke-width:1" /><line x1="837.5" y1="100" x2="837.5" y2="50" style="stroke:black;stroke-width:1" /><text x="831.5551370525301" y="45" fill="black" font-size="14">7.5</text><line x1="842.75" y1="100" x2="842.75" y2="70" style="stroke:black;stroke-width:1" /><line x1="847.75" y1="100" x2="847.75" y2="70" style="stroke:black;stroke-width:1" /><line x1="853.0" y1="100" x2="853.0" y2="70" style="stroke:black;stroke-width:1" /><line x1="857.75" y1="100" x2="857.75" y2="70" style="stroke:black;stroke-width:1" /><line x1="862.75" y1="100" x2="862.75" y2="40" style="stroke:black;stroke-width:1" /><text x="859" y="34" fill="black" font-size="18">8</text><line x1="867.75" y1="100" x2="867.75" y2="70" style="stroke:black;stroke-width:1" /><line x1="872.5" y1="100" x2="872.5" y2="70" style="stroke:black;stroke-width:1" /><line x1="877.25" y1="100" x2="877.25" y2="70" style="stroke:black;stroke-width:1" /><line x1="881.75" y1="100" x2="881.75" y2="70" style="stroke:black;stroke-width:1" /><line x1="886.5" y1="100" x2="886.5" y2="50" style="stroke:black;stroke-width:1" /><text x="880.4770331428634" y="45" fill="black" font-size="14">8.5</text><line x1="891.0" y1="100" x2="891.0" y2="70" style="stroke:black;stroke-width:1" /><line x1="895.5" y1="100" x2="895.5" y2="70" style="stroke:black;stroke-width:1" /><line x1="900.0" y1="100" x2="900.0" y2="70" style="stroke:black;stroke-width:1" /><line x1="904.5" y1="100" x2="904.5" y2="70" style="stroke:black;stroke-width:1" /><line x1="908.75" y1="100" x2="908.75" y2="40" style="stroke:black;stroke-width:1" /><text x="905" y="34" fill="black" font-size="18">9</text><line x1="913.25" y1="100" x2="913.25" y2="70" style="stroke:black;stroke-width:1" /><line x1="917.5" y1="100" x2="917.5" y2="70" style="stroke:black;stroke-width:1" /><line x1="921.75" y1="100" x2="921.75" y2="70" style="stroke:black;stroke-width:1" /><line x1="925.75" y1="100" x2="925.75" y2="70" style="stroke:black;stroke-width:1" /><line x1="930.0" y1="100" x2="930.0" y2="50" style="stroke:black;stroke-width:1" /><text x="923.951244759963" y="45" fill="black" font-size="14">9.5</text><line x1="934.0" y1="100" x2="934.0" y2="70" style="stroke:black;stroke-width:1" /><line x1="938.0" y1="100" x2="938.0" y2="70" style="stroke:black;stroke-width:1" /><line x1="942.0" y1="100" x2="942.0" y2="70" style="stroke:black;stroke-width:1" /><line x1="946.0" y1="100" x2="946.0" y2="70" style="stroke:black;stroke-width:1" /><line x1="950.0" y1="100" x2="950.0" y2="30" style="stroke:black;stroke-width:1" /><text x="944.0" y="20" fill="black" font-size="18">10</text></g><g transform="translate(0 120)"><text x="120.44486294746993" y="40" fill="black" font-size="24">D</text><text x="606.0" y="55" fill="black" font-size="16">&#960;</text><line x1="610.0" y1="0" x2="610.0" y2="40" style="stroke:black;stroke-width:1" /><text x="1074.44486294747" y="40" fill="black" font-size="16">x</text><line x1="162.5" y1="0" x2="162.5" y2="70" style="stroke:black;stroke-width:1" /><text x="158" y="95" fill="black" font-size="18">1</text><line x1="181.5" y1="0" x2="181.5" y2="20" style="stroke:black;stroke-width:1" /><line x1="199.75" y1="0" x2="199.75" y2="30" style="stroke:black;stroke-width:1" /><text x="194" y="40" fill="black" font-size="12">1.1</text><line x1="217.0" y1="0" x2="217.0" y2="20" style="stroke:black;stroke-width:1" /><line x1="233.75" y1="0" x2="233.75" y2="30" style="stroke:black;stroke-width:1" /><text x="228" y="40" fill="black" font-size="12">1.2</text><line x1="249.75" y1="0" x2="249.75" y2="20" style="stroke:black;stroke-width:1" /><line x1="265.0" y1="0" x2="265.0" y2="30" style="stroke:black;stroke-width:1" /><text x="259" y="40" fill="black" font-size="12">1.3</text><line x1="279.75" y1="0" x2="279.75" y2="20" style="stroke:black;stroke-width:1" /><line x1="294.0" y1="0" x2="294.0" y2="30" style="stroke:black;stroke-width:1" /><text x="288" y="40" fill="black" font-size="12">1.4</text><line x1="307.75" y1="0" x2="307.75" y2="20" style="stroke:black;stroke-width:1" /><line x1="321.0" y1="0" x2="321.0" y2="50" style="stroke:black;stroke-width:1" /><text x="315" y="65" fill="black" font-size="14">1.5</text><line x1="333.75" y1="0" x2="333.75" y2="20" style="stroke:black;stroke-width:1" /><line x1="346.25" y1="0" x2="346.25" y2="30" style="stroke:black;stroke-width:1" /><text x="340" y="40" fill="black" font-size="12">1.6</text><line x1="358.25" y1="0" x2="358.25" y2="20" style="stroke:black;stroke-width:1" /><line x1="369.75" y1="0" x2="369.75" y2="30" style="stroke:black;stroke-width:1" /><text x="364" y="40" fill="black" font-size="12">1.7</text><line x1="381.25" y1="0" x2="381.25" y2="20" style="stroke:black;stroke-width:1" /><line x1="392.25" y1="0" x2="392.25" y2="30" style="stroke:black;stroke-width:1" /><text x="386" y="40" fill="black" font-size="12">1.8</text><line x1="403.0" y1="0" x2="403.0" y2="20" style="stroke:black;stroke-width:1" /><line x1="413.25" y1="0" x2="413.25" y2="30" style="stroke:black;stroke-width:1" /><text x="407" y="40" fill="black" font-size="12">1.9</text><line x1="423.5" y1="0" x2="423.5" y2="20" style="stroke:black;stroke-width:1" /><line x1="433.25" y1="0" x2="433.25" y2="60" style="stroke:black;stroke-width:1" /><text x="429" y="80" fill="black" font-size="18">2</text><line x1="443.0" y1="0" x2="443.0" y2="20" style="stroke:black;stroke-width:1" /><line x1="452.5" y1="0" x2="452.5" y2="30" style="stroke:black;stroke-width:1" /><line x1="461.75" y1="0" x2="461.75" y2="20" style="stroke:black;stroke-width:1" /><line x1="470.75" y1="0" x2="470.75" y2="30" style="stroke:black;stroke-width:1" /><line x1="479.5" y1="0" x2="479.5" y2="20" style="stroke:black;stroke-width:1" /><line x1="488.0" y1="0" x2="488.0" y2="30" style="stroke:black;stroke-width:1" /><line x1="496.5" y1="0" x2="496.5" y2="20" style="stroke:black;stroke-width:1" /><line x1="504.75" y1="0" x2="504.75" y2="30" style="stroke:black;stroke-width:1" /><line x1="512.75" y1="0" x2="512.75" y2="20" style="stroke:black;stroke-width:1" /><line x1="520.5" y1="0" x2="520.5" y2="50" style="stroke:black;stroke-width:1" /><text x="515" y="65" fill="black" font-size="14">2.5</text><line x1="528.25" y1="0" x2="528.25" y2="20" style="stroke:black;stroke-width:1" /><line x1="536.0" y1="0" x2="536.0" y2="30" style="stroke:black;stroke-width:1" /><line x1="543.25" y1="0" x2="543.25" y2="20" style="stroke:black;stroke-width:1" /><line x1="550.75" y1="0" x2="550.75" y2="30" style="stroke:black;stroke-width:1" /><line x1="557.75" y1="0" x2="557.75" y2="20" style="stroke:black;stroke-width:1" /><line x1="565.0" y1="0" x2="565.0" y2="30" style="stroke:black;stroke-width:1" /><line x1="571.75" y1="0" x2="571.75" y2="20" style="stroke:black;stroke-width:1" /><line x1="578.5" y1="0" x2="578.5" y2="30" style="stroke:black;stroke-width:1" /><line x1="585.25" y1="0" x2="585.25" y2="20" style="stroke:black;stroke-width:1" /><line x1="591.75" y1="0" x2="591.75" y2="60" style="stroke:black;stroke-width:1" /><text x="588" y="80" fill="black" font-size="18">3</text><line x1="598.25" y1="0" x2="598.25" y2="20" style="stroke:black;stroke-width:1" /><line x1="604.75" y1="0" x2="604.75" y2="30" style="stroke:black;stroke-width:1" /><line x1="611.0" y1="0" x2="611.0" y2="20" style="stroke:black;stroke-width:1" /><line x1="617.0" y1="0" x2="617.0" y2="30" style="stroke:black;stroke-width:1" /><line x1="623.25" y1="0" x2="623.25" y2="20" style="stroke:black;stroke-width:1" /><line x1="629.0" y1="0" x2="629.0" y2="30" style="stroke:black;stroke-width:1" /><line x1="635.0" y1="0" x2="635.0" y2="20" style="stroke:black;stroke-width:1" /><line x1="640.75" y1="0" x2="640.75" y2="30" style="stroke:black;stroke-width:1" /><line x1="646.5" y1="0" x2="646.5" y2="20" style="stroke:black;stroke-width:1" /><line x1="652.0" y1="0" x2="652.0" y2="50" style="stroke:black;stroke-width:1" /><text x="646" y="65" fill="black" font-size="14">3.5</text><line x1="657.75" y1="0" x2="657.75" y2="20" style="stroke:black;stroke-width:1" /><line x1="663.0" y1="0" x2="663.0" y2="30" style="stroke:black;stroke-width:1" /><line x1="668.5" y1="0" x2="668.5" y2="20" style="stroke:black;stroke-width:1" /><line x1="673.75" y1="0" x2="673.75" y2="30" style="stroke:black;stroke-width:1" /><line x1="679.0" y1="0" x2="679.0" y2="20" style="stroke:black;stroke-width:1" /><line x1="684.25" y1="0" x2="684.25" y2="30" style="stroke:black;stroke-width:1" /><line x1="689.25" y1="0" x2="689.25" y2="20" style="stroke:black;stroke-width:1" /><line x1="694.5" y1="0" x2="694.5" y2="30" style="stroke:black;stroke-width:1" /><line x1="699.5" y1="0" x2="699.5" y2="20" style="stroke:black;stroke-width:1" /><line x1="704.25" y1="0" x2="704.25" y2="60" style="stroke:black;stroke-width:1" /><text x="700" y="80" fill="black" font-size="18">4</text><line x1="714.0" y1="0" x2="714.0" y2="30" style="stroke:black;stroke-width:1" /><line x1="723.25" y1="0" x2="723.25" y2="30" style="stroke:black;stroke-width:1" /><line x1="732.5" y1="0" x2="732.5" y2="30" style="stroke:black;stroke-width:1" /><line x1="741.5" y1="0" x2="741.5" y2="30" style="stroke:black;stroke-width:1" /><line x1="750.25" y1="0" x2="750.25" y2="50" style="stroke:black;stroke-width:1" /><text x="744" y="65" fill="black" font-size="14">4.5</text><line x1="759.0" y1="0" x2="759.0" y2="30" style="stroke:black;stroke-width:1" /><line x1="767.25" y1="0" x2="767.25" y2="30" style="stroke:black;stroke-width:1" /><line x1="775.5" y1="0" x2="775.5" y2="30" style="stroke:black;stroke-width:1" /><line x1="783.5" y1="0" x2="783.5" y2="30" style="stroke:black;stroke-width:1" /><line x1="791.5" y1="0" x2="791.5" y2="60" style="stroke:black;stroke-width:1" /><text x="788" y="80" fill="black" font-size="18">5</text><line x1="799.25" y1="0" x2="799.25" y2="30" style="stroke:black;stroke-width:1" /><line x1="806.75" y1="0" x2="806.75" y2="30" style="stroke:black;stroke-width:1" /><line x1="814.25" y1="0" x2="814.25" y2="30" style="stroke:black;stroke-width:1" /><line x1="821.5" y1="0" x2="821.5" y2="30" style="stroke:black;stroke-width:1" /><line x1="828.75" y1="0" x2="828.75" y2="50" style="stroke:black;stroke-width:1" /><text x="823" y="65" fill="black" font-size="14">5.5</text><line x1="835.75" y1="0" x2="835.75" y2="30" style="stroke:black;stroke-width:1" /><line x1="842.75" y1="0" x2="842.75" y2="30" style="stroke:black;stroke-width:1" /><line x1="849.5" y1="0" x2="849.5" y2="30" style="stroke:black;stroke-width:1" /><line x1="856.25" y1="0" x2="856.25" y2="30" style="stroke:black;stroke-width:1" /><line x1="862.75" y1="0" x2="862.75" y2="60" style="stroke:black;stroke-width:1" /><text x="859" y="80" fill="black" font-size="18">6</text><line x1="869.25" y1="0" x2="869.25" y2="30" style="stroke:black;stroke-width:1" /><line x1="875.5" y1="0" x2="875.5" y2="30" style="stroke:black;stroke-width:1" /><line x1="881.75" y1="0" x2="881.75" y2="30" style="stroke:black;stroke-width:1" /><line x1="888.0" y1="0" x2="888.0" y2="30" style="stroke:black;stroke-width:1" /><line x1="894.0" y1="0" x2="894.0" y2="50" style="stroke:black;stroke-width:1" /><text x="888" y="65" fill="black" font-size="14">6.5</text><line x1="900.0" y1="0" x2="900.0" y2="30" style="stroke:black;stroke-width:1" /><line x1="906.0" y1="0" x2="906.0" y2="30" style="stroke:black;stroke-width:1" /><line x1="911.75" y1="0" x2="911.75" y2="30" style="stroke:black;stroke-width:1" /><line x1="917.5" y1="0" x2="917.5" y2="30" style="stroke:black;stroke-width:1" /><line x1="923.0" y1="0" x2="923.0" y2="60" style="stroke:black;stroke-width:1" /><text x="919" y="80" fill="black" font-size="18">7</text><line x1="928.5" y1="0" x2="928.5" y2="30" style="stroke:black;stroke-width:1" /><line x1="934.0" y1="0" x2="934.0" y2="30" style="stroke:black;stroke-width:1" /><line x1="939.5" y1="0" x2="939.5" y2="30" style="stroke:black;stroke-width:1" /><line x1="944.75" y1="0" x2="944.75" y2="30" style="stroke:black;stroke-width:1" /><line x1="950.0" y1="0" x2="950.0" y2="50" style="stroke:black;stroke-width:1" /><text x="944" y="65" fill="black" font-size="14">7.5</text><line x1="955.25" y1="0" x2="955.25" y2="30" style="stroke:black;stroke-width:1" /><line x1="960.25" y1="0" x2="960.25" y2="30" style="stroke:black;stroke-width:1" /><line x1="965.25" y1="0" x2="965.25" y2="30" style="stroke:black;stroke-width:1" /><line x1="970.25" y1="0" x2="970.25" y2="30" style="stroke:black;stroke-width:1" /><line x1="975.25" y1="0" x2="975.25" y2="60" style="stroke:black;stroke-width:1" /><text x="971" y="80" fill="black" font-size="18">8</text><line x1="980.0" y1="0" x2="980.0" y2="30" style="stroke:black;stroke-width:1" /><line x1="985.0" y1="0" x2="985.0" y2="30" style="stroke:black;stroke-width:1" /><line x1="989.5" y1="0" x2="989.5" y2="30" style="stroke:black;stroke-width:1" /><line x1="994.25" y1="0" x2="994.25" y2="30" style="stroke:black;stroke-width:1" /><line x1="999.0" y1="0" x2="999.0" y2="50" style="stroke:black;stroke-width:1" /><text x="993" y="65" fill="black" font-size="14">8.5</text><line x1="1003.5" y1="0" x2="1003.5" y2="30" style="stroke:black;stroke-width:1" /><line x1="1008.0" y1="0" x2="1008.0" y2="30" style="stroke:black;stroke-width:1" /><line x1="1012.5" y1="0" x2="1012.5" y2="30" style="stroke:black;stroke-width:1" /><line x1="1017.0" y1="0" x2="1017.0" y2="30" style="stroke:black;stroke-width:1" /><line x1="1021.25" y1="0" x2="1021.25" y2="60" style="stroke:black;stroke-width:1" /><text x="1017" y="80" fill="black" font-size="18">9</text><line x1="1025.5" y1="0" x2="1025.5" y2="30" style="stroke:black;stroke-width:1" /><line x1="1029.75" y1="0" x2="1029.75" y2="30" style="stroke:black;stroke-width:1" /><line x1="1034.0" y1="0" x2="1034.0" y2="30" style="stroke:black;stroke-width:1" /><line x1="1038.25" y1="0" x2="1038.25" y2="30" style="stroke:black;stroke-width:1" /><line x1="1042.5" y1="0" x2="1042.5" y2="50" style="stroke:black;stroke-width:1" /><text x="1036" y="65" fill="black" font-size="14">9.5</text><line x1="1046.5" y1="0" x2="1046.5" y2="30" style="stroke:black;stroke-width:1" /><line x1="1050.5" y1="0" x2="1050.5" y2="30" style="stroke:black;stroke-width:1" /><line x1="1054.5" y1="0" x2="1054.5" y2="30" style="stroke:black;stroke-width:1" /><line x1="1058.5" y1="0" x2="1058.5" y2="30" style="stroke:black;stroke-width:1" /><line x1="1062.5" y1="0" x2="1062.5" y2="70" style="stroke:black;stroke-width:1" /><text x="1056" y="95" fill="black" font-size="18">10</text></g></svg>