<?xml version='1.0' encoding='us-ascii'?>
<svg width="1234.7542184590563" height="300" version="1.1" xmlns="http://www.w3.org/2000/svg"><style>text {
          font-family: Arial, Helvetica, sans-serif;
          font-weight: Thin;
          }
    </style><rect width="1000" height="120" x="234.7542184590563" y="0" style="fill:#f9fc69;stroke-width:1;stroke:black" /><rect width="1000" height="180" x="0.0" y="120" style="fill:#f9fc69;stroke-width:1;stroke:black" /><line x1="555.6812145566396" y1="0" x2="555.6812145566396" y2="300" style="stroke:grey;stroke-width:1" /><g transform="translate(0 120)"><text x="8.0" y="40" fill="black" font-size="24">D</text><text x="493.5" y="55" fill="black" font-size="16">&#960;</text><line x1="497.5" y1="0" x2="497.5" y2="40" style="stroke:black;stroke-width:1" /><text x="962.0" y="40" fill="black" font-size="16">x</text><line x1="50.0" y1="0" x2="50.0" y2="70" style="stroke:black;stroke-width:1" /><text x="46" y="95" fill="black" font-size="18">1</text><line x1="69.0" y1="0" x2="69.0" y2="20" style="stroke:black;stroke-width:1" /><line x1="87.25" y1="0" x2="87.25" y2="30" style="stroke:black;stroke-width:1" /><text x="81" y="40" fill="black" font-size="12">1.1</text><line x1="104.75" y1="0" x2="104.75" y2="20" style="stroke:black;stroke-width:1" /><line x1="121.25" y1="0" x2="121.25" y2="30" style="stroke:black;stroke-width:1" /><text x="115" y="40" fill="black" font-size="12">1.2</text><line x1="137.25" y1="0" x2="137.25" y2="20" style="stroke:black;stroke-width:1" /><line x1="152.5" y1="0" x2="152.5" y2="30" style="stroke:black;stroke-width:1" /><text x="147" y="40" fill="black" font-size="12">1.3</text><line x1="167.25" y1="0" x2="167.25" y2="20" style="stroke:black;stroke-width:1" /><line x1="181.5" y1="0" x2="181.5" y2="30" style="stroke:black;stroke-width:1" /><text x="176" y="40" fill="black" font-size="12">1.4</text><line x1="195.25" y1="0" x2="195.25" y2="20" style="stroke:black;stroke-width:1" /><line x1="208.5" y1="0" x2="208.5" y2="50" style="stroke:black;stroke-width:1" /><text x="202" y="65" fill="black" font-size="14">1.5</text><line x1="221.25" y1="0" x2="221.25" y2="20" style="stroke:black;stroke-width:1" /><line x1="233.75" y1="0" x2="233.75" y2="30" style="stroke:black;stroke-width:1" /><text x="228" y="40" fill="black" font-size="12">1.6</text><line x1="245.75" y1="0" x2="245.75" y2="20" style="stroke:black;stroke-width:1" /><line x1="257.5" y1="0" x2="257.5" y2="30" style="stroke:black;stroke-width:1" /><text x="251" y="40" fill="black" font-size="12">1.7</text><line x1="268.75" y1="0" x2="268.75" y2="20" style="stroke:black;stroke-width:1" /><line x1="279.75" y1="0" x2="279.75" y2="30" style="stroke:black;stroke-width:1" /><text x="274" y="40" fill="black" font-size="12">1.8</text><line x1="290.5" y1="0" x2="290.5" y2="20" style="stroke:black;stroke-width:1" /><line x1="301.0" y1="0" x2="301.0" y2="30" style="stroke:black;stroke-width:1" /><text x="295" y="40" fill="black" font-size="12">1.9</text><line x1="311.0" y1="0" x2="311.0" y2="20" style="stroke:black;stroke-width:1" /><line x1="321.0" y1="0" x2="321.0" y2="60" style="stroke:black;stroke-width:1" /><text x="317" y="80" fill="black" font-size="18">2</text><line x1="330.5" y1="0" x2="330.5" y2="20" style="stroke:black;stroke-width:1" /><line x1="340.0" y1="0" x2="340.0" y2="30" style="stroke:black;stroke-width:1" /><line x1="349.25" y1="0" x2="349.25" y2="20" style="stroke:black;stroke-width:1" /><line x1="358.25" y1="0" x2="358.25" y2="30" style="stroke:black;stroke-width:1" /><line x1="367.0" y1="0" x2="367.0" y2="20" style="stroke:black;stroke-width:1" /><line x1="375.5" y1="0" x2="375.5" y2="30" style="stroke:black;stroke-width:1" /><line x1="384.0" y1="0" x2="384.0" y2="20" style="stroke:black;stroke-width:1" /><line x1="392.25" y1="0" x2="392.25" y2="30" style="stroke:black;stroke-width:1" /><line x1="400.25" y1="0" x2="400.25" y2="20" style="stroke:black;stroke-width:1" /><line x1="408.25" y1="0" x2="408.25" y2="50" style="stroke:black;stroke-width:1" /><text x="402" y="65" fill="black" font-size="14">2.5</text><line x1="416.0" y1="0" x2="416.0" y2="20" style="stroke:black;stroke-width:1" /><line x1="423.5" y1="0" x2="423.5" y2="30" style="stroke:black;stroke-width:1" /><line x1="431.0" y1="0" x2="431.0" y2="20" style="stroke:black;stroke-width:1" /><line x1="438.25" y1="0" x2="438.25" y2="30" style="stroke:black;stroke-width:1" /><line x1="445.5" y1="0" x2="445.5" y2="20" style="stroke:black;stroke-width:1" /><line x1="452.5" y1="0" x2="452.5" y2="30" style="stroke:black;stroke-width:1" /><line x1="459.25" y1="0" x2="459.25" y2="20" style="stroke:black;stroke-width:1" /><line x1="466.25" y1="0" x2="466.25" y2="30" style="stroke:black;stroke-width:1" /><line x1="472.75" y1="0" x2="472.75" y2="20" style="stroke:black;stroke-width:1" /><line x1="479.5" y1="0" x2="479.5" y2="60" style="stroke:black;stroke-width:1" /><text x="475" y="80" fill="black" font-size="18">3</text><line x1="485.75" y1="0" x2="485.75" y2="20" style="stroke:black;stroke-width:1" /><line x1="492.25" y1="0" x2="492.25" y2="30" style="stroke:black;stroke-width:1" /><line x1="498.5" y1="0" x2="498.5" y2="20" style="stroke:black;stroke-width:1" /><line x1="504.75" y1="0" x2="504.75" y2="30" style="stroke:black;stroke-width:1" /><line x1="510.75" y1="0" x2="510.75" y2="20" style="stroke:black;stroke-width:1" /><line x1="516.75" y1="0" x2="516.75" y2="30" style="stroke:black;stroke-width:1" /><line x1="522.5" y1="0" x2="522.5" y2="20" style="stroke:black;stroke-width:1" /><line x1="528.25" y1="0" x2="528.25" y2="30" style="stroke:black;stroke-width:1" /><line x1="534.0" y1="0" x2="534.0" y2="20" style="stroke:black;stroke-width:1" /><line x1="539.75" y1="0" x2="539.75" y2="50" style="stroke:black;stroke-width:1" /><text x="534" y="65" fill="black" font-size="14">3.5</text><line x1="545.25" y1="0" x2="545.25" y2="20" style="stroke:black;stroke-width:1" /><line x1="550.75" y1="0" x2="550.75" y2="30" style="stroke:black;stroke-width:1" /><line x1="556.0" y1="0" x2="556.0" y2="20" style="stroke:black;stroke-width:1" /><line x1="561.5" y1="0" x2="561.5" y2="30" style="stroke:black;stroke-width:1" /><line x1="566.75" y1="0" x2="566.75" y2="20" style="stroke:black;stroke-width:1" /><line x1="571.75" y1="0" x2="571.75" y2="30" style="stroke:black;stroke-width:1" /><line x1="577.0" y1="0" x2="577.0" y2="20" style="stroke:black;stroke-width:1" /><line x1="582.0" y1="0" x2="582.0" y2="30" style="stroke:black;stroke-width:1" /><line x1="587.0" y1="0" x2="587.0" y2="20" style="stroke:black;stroke-width:1" /><line x1="591.75" y1="0" x2="591.75" y2="60" style="stroke:black;stroke-width:1" /><text x="588" y="80" fill="black" font-size="18">4</text><line x1="601.5" y1="0" x2="601.5" y2="30" style="stroke:black;stroke-width:1" /><line x1="611.0" y1="0" x2="611.0" y2="30" style="stroke:black;stroke-width:1" /><line x1="620.0" y1="0" x2="620.0" y2="30" style="stroke:black;stroke-width:1" /><line x1="629.0" y1="0" x2="629.0" y2="30" style="stroke:black;stroke-width:1" /><line x1="638.0" y1="0" x2="638.0" y2="50" style="stroke:black;stroke-width:1" /><text x="632" y="65" fill="black" font-size="14">4.5</text><line x1="646.5" y1="0" x2="646.5" y2="30" style="stroke:black;stroke-width:1" /><line x1="655.0" y1="0" x2="655.0" y2="30" style="stroke:black;stroke-width:1" /><line x1="663.0" y1="0" x2="663.0" y2="30" style="stroke:black;stroke-width:1" /><line x1="671.25" y1="0" x2="671.25" y2="30" style="stroke:black;stroke-width:1" /><line x1="679.0" y1="0" x2="679.0" y2="60" style="stroke:black;stroke-width:1" /><text x="675" y="80" fill="black" font-size="18">5</text><line x1="686.75" y1="0" x2="686.75" y2="30" style="stroke:black;stroke-width:1" /><line x1="694.5" y1="0" x2="694.5" y2="30" style="stroke:black;stroke-width:1" /><line x1="701.75" y1="0" x2="701.75" y2="30" style="stroke:black;stroke-width:1" /><line x1="709.25" y1="0" x2="709.25" y2="30" style="stroke:black;stroke-width:1" /><line x1="716.25" y1="0" x2="716.25" y2="50" style="stroke:black;stroke-width:1" /><text x="710" y="65" fill="black" font-size="14">5.5</text><line x1="723.25" y1="0" x2="723.25" y2="30" style="stroke:black;stroke-width:1" /><line x1="730.25" y1="0" x2="730.25" y2="30" style="stroke:black;stroke-width:1" /><line x1="737.0" y1="0" x2="737.0" y2="30" style="stroke:black;stroke-width:1" /><line x1="743.75" y1="0" x2="743.75" y2="30" style="stroke:black;stroke-width:1" /><line x1="750.25" y1="0" x2="750.25" y2="60" style="stroke:black;stroke-width:1" /><text x="746" y="80" fill="black" font-size="18">6</text><line x1="756.75" y1="0" x2="756.75" y2="30" style="stroke:black;stroke-width:1" /><line x1="763.25" y1="0" x2="763.25" y2="30" style="stroke:black;stroke-width:1" /><line x1="769.5" y1="0" x2="769.5" y2="30" style="stroke:black;stroke-width:1" /><line x1="775.5" y1="0" x2="775.5" y2="30" style="stroke:black;stroke-width:1" /><line x1="781.5" y1="0" x2="781.5" y2="50" style="stroke:black;stroke-width:1" /><text x="776" y="65" fill="black" font-size="14">6.5</text><line x1="787.5" y1="0" x2="787.5" y2="30" style="stroke:black;stroke-width:1" /><line x1="793.5" y1="0" x2="793.5" y2="30" style="stroke:black;stroke-width:1" /><line x1="799.25" y1="0" x2="799.25" y2="30" style="stroke:black;stroke-width:1" /><line x1="805.0" y1="0" x2="805.0" y2="30" style="stroke:black;stroke-width:1" /><line x1="810.5" y1="0" x2="810.5" y2="60" style="stroke:black;stroke-width:1" /><text x="807" y="80" fill="black" font-size="18">7</text><line x1="816.25" y1="0" x2="816.25" y2="30" style="stroke:black;stroke-width:1" /><line x1="821.5" y1="0" x2="821.5" y2="30" style="stroke:black;stroke-width:1" /><line x1="827.0" y1="0" x2="827.0" y2="30" style="stroke:black;stroke-width:1" /><line x1="832.25" y1="0" x2="832.25" y2="30" style="stroke:black;stroke-width:1" /><line x1="837.5" y1="0" x2="837.5" y2="50" style="stroke:black;stroke-width:1" /><text x="832" y="65" fill="black" font-size="14">7.5</text><line x1="842.75" y1="0" x2="842.75" y2="30" style="stroke:black;stroke-width:1" /><line x1="847.75" y1="0" x2="847.75" y2="30" style="stroke:black;stroke-width:1" /><line x1="853.0" y1="0" x2="853.0" y2="30" style="stroke:black;stroke-width:1" /><line x1="857.75" y1="0" x2="857.75" y2="30" style="stroke:black;stroke-width:1" /><line x1="862.75" y1="0" x2="862.75" y2="60" style="stroke:black;stroke-width:1" /><text x="859" y="80" fill="black" font-size="18">8</text><line x1="867.75" y1="0" x2="867.75" y2="30" style="stroke:black;stroke-width:1" /><line x1="872.5" y1="0" x2="872.5" y2="30" style="stroke:black;stroke-width:1" /><line x1="877.25" y1="0" x2="877.25" y2="30" style="stroke:black;stroke-width:1" /><line x1="881.75" y1="0" x2="881.75" y2="30" style="stroke:black;stroke-width:1" /><line x1="886.5" y1="0" x2="886.5" y2="50" style="stroke:black;stroke-width:1" /><text x="880" y="65" fill="black" font-size="14">8.5</text><line x1="891.0" y1="0" x2="891.0" y2="30" style="stroke:black;stroke-width:1" /><line x1="895.5" y1="0" x2="895.5" y2="30" style="stroke:black;stroke-width:1" /><line x1="900.0" y1="0" x2="900.0" y2="30" style="stroke:black;stroke-width:1" /><line x1="904.5" y1="0" x2="904.5" y2="30" style="stroke:black;stroke-width:1" /><line x1="908.75" y1="0" x2="908.75" y2="60" style="stroke:black;stroke-width:1" /><text x="905" y="80" fill="black" font-size="18">9</text><line x1="913.25" y1="0" x2="913.25" y2="30" style="stroke:black;stroke-width:1" /><line x1="917.5" y1="0" x2="917.5" y2="30" style="stroke:black;stroke-width:1" /><line x1="921.75" y1="0" x2="921.75" y2="30" style="stroke:black;stroke-width:1" /><line x1="925.75" y1="0" x2="925.75" y2="30" style="stroke:black;stroke-width:1" /><line x1="930.0" y1="0" x2="930.0" y2="50" style="stroke:black;stroke-width:1" /><text x="924" y="65" fill="black" font-size="14">9.5</text><line x1="934.0" y1="0" x2="934.0" y2="30" style="stroke:black;stroke-width:1" /><line x1="938.0" y1="0" x2="938.0" y2="30" style="stroke:black;stroke-width:1" /><line x1="942.0" y1="0" x2="942.0" y2="30" style="stroke:black;stroke-width:1" /><line x1="946.0" y1="0" x2="946.0" y2="30" style="stroke:black;stroke-width:1" /><line x1="950.0" y1="0" x2="950.0" y2="70" style="stroke:black;stroke-width:1" /><text x="944" y="95" fill="black" font-size="18">10</text></g><g transform="translate(0 20)"><text x="242.7542184590563" y="70" fill="black" font-size="24">C</text><text x="728.25" y="53" fill="black" font-size="16">&#960;</text><line x1="732.25" y1="100" x2="732.25" y2="60" style="stroke:black;stroke-width:1" /><text x="1196.7542184590563" y="68" fill="black" font-size="16">x</text><line x1="284.75" y1="100" x2="284.75" y2="30" style="stroke:black;stroke-width:1" /><text x="281" y="20" fill="black" font-size="18">1</text><line x1="303.75" y1="100" x2="303.75" y2="80" style="stroke:black;stroke-width:1" /><line x1="322.0" y1="100" x2="322.0" y2="70" style="stroke:black;stroke-width:1" /><text x="316.00763510145885" y="67" fill="black" font-size="12">1.1</text><line x1="339.5" y1="100" x2="339.5" y2="80" style="stroke:black;stroke-width:1" /><line x1="356.0" y1="100" x2="356.0" y2="70" style="stroke:black;stroke-width:1" /><text x="350.0173399019186" y="67" fill="black" font-size="12">1.2</text><line x1="372.0" y1="100" x2="372.0" y2="80" style="stroke:black;stroke-width:1" /><line x1="387.25" y1="100" x2="387.25" y2="70" style="stroke:black;stroke-width:1" /><text x="381.3032355352094" y="67" fill="black" font-size="12">1.3</text><line x1="402.0" y1="100" x2="402.0" y2="80" style="stroke:black;stroke-width:1" /><line x1="416.25" y1="100" x2="416.25" y2="70" style="stroke:black;stroke-width:1" /><text x="410.2694505694705" y="67" fill="black" font-size="12">1.4</text><line x1="430.0" y1="100" x2="430.0" y2="80" style="stroke:black;stroke-width:1" /><line x1="443.25" y1="100" x2="443.25" y2="50" style="stroke:black;stroke-width:1" /><text x="437.2363516091694" y="45" fill="black" font-size="14">1.5</text><line x1="456.0" y1="100" x2="456.0" y2="80" style="stroke:black;stroke-width:1" /><line x1="468.5" y1="100" x2="468.5" y2="70" style="stroke:black;stroke-width:1" /><text x="462.46220284938863" y="67" fill="black" font-size="12">1.6</text><line x1="480.5" y1="100" x2="480.5" y2="80" style="stroke:black;stroke-width:1" /><line x1="492.25" y1="100" x2="492.25" y2="70" style="stroke:black;stroke-width:1" /><text x="486.1582476995028" y="67" fill="black" font-size="12">1.7</text><line x1="503.5" y1="100" x2="503.5" y2="80" style="stroke:black;stroke-width:1" /><line x1="514.5" y1="100" x2="514.5" y2="70" style="stroke:black;stroke-width:1" /><text x="508.4994730520318" y="67" fill="black" font-size="12">1.8</text><line x1="525.25" y1="100" x2="525.25" y2="80" style="stroke:black;stroke-width:1" /><line x1="535.75" y1="100" x2="535.75" y2="70" style="stroke:black;stroke-width:1" /><text x="529.6324593166023" y="67" fill="black" font-size="12">1.9</text><line x1="545.75" y1="100" x2="545.75" y2="80" style="stroke:black;stroke-width:1" /><line x1="555.75" y1="100" x2="555.75" y2="40" style="stroke:black;stroke-width:1" /><text x="552" y="34" fill="black" font-size="18">2</text><line x1="565.25" y1="100" x2="565.25" y2="80" style="stroke:black;stroke-width:1" /><line x1="574.75" y1="100" x2="574.75" y2="70" style="stroke:black;stroke-width:1" /><line x1="584.0" y1="100" x2="584.0" y2="80" style="stroke:black;stroke-width:1" /><line x1="593.0" y1="100" x2="593.0" y2="70" style="stroke:black;stroke-width:1" /><line x1="601.75" y1="100" x2="601.75" y2="80" style="stroke:black;stroke-width:1" /><line x1="610.25" y1="100" x2="610.25" y2="70" style="stroke:black;stroke-width:1" /><line x1="618.75" y1="100" x2="618.75" y2="80" style="stroke:black;stroke-width:1" /><line x1="627.0" y1="100" x2="627.0" y2="70" style="stroke:black;stroke-width:1" /><line x1="635.0" y1="100" x2="635.0" y2="80" style="stroke:black;stroke-width:1" /><line x1="643.0" y1="100" x2="643.0" y2="50" style="stroke:black;stroke-width:1" /><text x="636.9002262638901" y="45" fill="black" font-size="14">2.5</text><line x1="650.75" y1="100" x2="650.75" y2="80" style="stroke:black;stroke-width:1" /><line x1="658.25" y1="100" x2="658.25" y2="70" style="stroke:black;stroke-width:1" /><line x1="665.75" y1="100" x2="665.75" y2="80" style="stroke:black;stroke-width:1" /><line x1="673.0" y1="100" x2="673.0" y2="70" style="stroke:black;stroke-width:1" /><line x1="680.25" y1="100" x2="680.25" y2="80" style="stroke:black;stroke-width:1" /><line x1="687.25" y1="100" x2="687.25" y2="70" style="stroke:black;stroke-width:1" /><line x1="694.0" y1="100" x2="694.0" y2="80" style="stroke:black;stroke-width:1" /><line x1="701.0" y1="100" x2="701.0" y2="70" style="stroke:black;stroke-width:1" /><line x1="707.5" y1="100" x2="707.5" y2="80" style="stroke:black;stroke-width:1" /><line x1="714.25" y1="100" x2="714.25" y2="40" style="stroke:black;stroke-width:1" /><text x="710" y="34" fill="black" font-size="18">3</text><line x1="720.5" y1="100" x2="720.5" y2="80" style="stroke:black;stroke-width:1" /><line x1="727.0" y1="100" x2="727.0" y2="70" style="stroke:black;stroke-width:1" /><line x1="733.25" y1="100" x2="733.25" y2="80" style="stroke:black;stroke-width:1" /><line x1="739.5" y1="100" x2="739.5" y2="70" style="stroke:black;stroke-width:1" /><line x1="745.5" y1="100" x2="745.5" y2="80" style="stroke:black;stroke-width:1" /><line x1="751.5" y1="100" x2="751.5" y2="70" style="stroke:black;stroke-width:1" /><line x1="757.25" y1="100" x2="757.25" y2="80" style="stroke:black;stroke-width:1" /><line x1="763.0" y1="100" x2="763.0" y2="70" style="stroke:black;stroke-width:1" /><line x1="768.75" y1="100" x2="768.75" y2="80" style="stroke:black;stroke-width:1" /><line x1="774.5" y1="100" x2="774.5" y2="50" style="stroke:black;stroke-width:1" /><text x="768.4154583743043" y="45" fill="black" font-size="14">3.5</text><line x1="780.0" y1="100" x2="780.0" y2="80" style="stroke:black;stroke-width:1" /><line x1="785.5" y1="100" x2="785.5" y2="70" style="stroke:black;stroke-width:1" /><line x1="790.75" y1="100" x2="790.75" y2="80" style="stroke:black;stroke-width:1" /><line x1="796.25" y1="100" x2="796.25" y2="70" style="stroke:black;stroke-width:1" /><line x1="801.5" y1="100" x2="801.5" y2="80" style="stroke:black;stroke-width:1" /><line x1="806.5" y1="100" x2="806.5" y2="70" style="stroke:black;stroke-width:1" /><line x1="811.75" y1="100" x2="811.75" y2="80" style="stroke:black;stroke-width:1" /><line x1="816.75" y1="100" x2="816.75" y2="70" style="stroke:black;stroke-width:1" /><line x1="821.75" y1="100" x2="821.75" y2="80" style="stroke:black;stroke-width:1" /><line x1="826.5" y1="100" x2="826.5" y2="40" style="stroke:black;stroke-width:1" /><text x="823" y="34" fill="black" font-size="18">4</text><line x1="836.25" y1="100" x2="836.25" y2="70" style="stroke:black;stroke-width:1" /><line x1="845.75" y1="100" x2="845.75" y2="70" style="stroke:black;stroke-width:1" /><line x1="855.0" y1="100" x2="855.0" y2="70" style="stroke:black;stroke-width:1" /><line x1="863.75" y1="100" x2="863.75" y2="70" style="stroke:black;stroke-width:1" /><line x1="872.75" y1="100" x2="872.75" y2="50" style="stroke:black;stroke-width:1" /><text x="866.6454808568656" y="45" fill="black" font-size="14">4.5</text><line x1="881.25" y1="100" x2="881.25" y2="70" style="stroke:black;stroke-width:1" /><line x1="889.75" y1="100" x2="889.75" y2="70" style="stroke:black;stroke-width:1" /><line x1="897.75" y1="100" x2="897.75" y2="70" style="stroke:black;stroke-width:1" /><line x1="906.0" y1="100" x2="906.0" y2="70" style="stroke:black;stroke-width:1" /><line x1="913.75" y1="100" x2="913.75" y2="40" style="stroke:black;stroke-width:1" /><text x="910" y="34" fill="black" font-size="18">5</text><line x1="921.5" y1="100" x2="921.5" y2="70" style="stroke:black;stroke-width:1" /><line x1="929.25" y1="100" x2="929.25" y2="70" style="stroke:black;stroke-width:1" /><line x1="936.5" y1="100" x2="936.5" y2="70" style="stroke:black;stroke-width:1" /><line x1="944.0" y1="100" x2="944.0" y2="70" style="stroke:black;stroke-width:1" /><line x1="951.0" y1="100" x2="951.0" y2="50" style="stroke:black;stroke-width:1" /><text x="945.0806390038758" y="45" fill="black" font-size="14">5.5</text><line x1="958.0" y1="100" x2="958.0" y2="70" style="stroke:black;stroke-width:1" /><line x1="965.0" y1="100" x2="965.0" y2="70" style="stroke:black;stroke-width:1" /><line x1="971.75" y1="100" x2="971.75" y2="70" style="stroke:black;stroke-width:1" /><line x1="978.5" y1="100" x2="978.5" y2="70" style="stroke:black;stroke-width:1" /><line x1="985.0" y1="100" x2="985.0" y2="40" style="stroke:black;stroke-width:1" /><text x="981" y="34" fill="black" font-size="18">6</text><line x1="991.5" y1="100" x2="991.5" y2="70" style="stroke:black;stroke-width:1" /><line x1="998.0" y1="100" x2="998.0" y2="70" style="stroke:black;stroke-width:1" /><line x1="1004.25" y1="100" x2="1004.25" y2="70" style="stroke:black;stroke-width:1" /><line x1="1010.25" y1="100" x2="1010.25" y2="70" style="stroke:black;stroke-width:1" /><line x1="1016.5" y1="100" x2="1016.5" y2="50" style="stroke:black;stroke-width:1" /><text x="1010.3762394376263" y="45" fill="black" font-size="14">6.5</text><line x1="1022.25" y1="100" x2="1022.25" y2="70" style="stroke:black;stroke-width:1" /><line x1="1028.25" y1="100" x2="1028.25" y2="70" style="stroke:black;stroke-width:1" /><line x1="1034.0" y1="100" x2="1034.0" y2="70" style="stroke:black;stroke-width:1" /><line x1="1039.75" y1="100" x2="1039.75" y2="70" style="stroke:black;stroke-width:1" /><line x1="1045.25" y1="100" x2="1045.25" y2="40" style="stroke:black;stroke-width:1" /><text x="1041" y="34" fill="black" font-size="18">7</text><line x1="1051.0" y1="100" x2="1051.0" y2="70" style="stroke:black;stroke-width:1" /><line x1="1056.25" y1="100" x2="1056.25" y2="70" style="stroke:black;stroke-width:1" /><line x1="1061.75" y1="100" x2="1061.75" y2="70" style="stroke:black;stroke-width:1" /><line x1="1067.0" y1="100" x2="1067.0" y2="70" style="stroke:black;stroke-width:1" /><line x1="1072.25" y1="100" x2="1072.25" y2="50" style="stroke:black;stroke-width:1" /><text x="1066.3093555115863" y="45" fill="black" font-size="14">7.5</text><line x1="1077.5" y1="100" x2="1077.5" y2="70" style="stroke:black;stroke-width:1" /><line x1="1082.5" y1="100" x2="1082.5" y2="70" style="stroke:black;stroke-width:1" /><line x1="1087.75" y1="100" x2="1087.75" y2="70" style="stroke:black;stroke-width:1" /><line x1="1092.5" y1="100" x2="1092.5" y2="70" style="stroke:black;stroke-width:1" /><line x1="1097.5" y1="100" x2="1097.5" y2="40" style="stroke:black;stroke-width:1" /><text x="1094" y="34" fill="black" font-size="18">8</text><line x1="1102.5" y1="100" x2="1102.5" y2="70" style="stroke:black;stroke-width:1" /><line x1="1107.25" y1="100" x2="1107.25" y2="70" style="stroke:black;stroke-width:1" /><line x1="1112.0" y1="100" x2="1112.0" y2="70" style="stroke:black;stroke-width:1" /><line x1="1116.5" y1="100" x2="1116.5" y2="70" style="stroke:black;stroke-width:1" /><line x1="1121.25" y1="100" x2="1121.25" y2="50" style="stroke:black;stroke-width:1" /><text x="1115.2312516019197" y="45" fill="black" font-size="14">8.5</text><line x1="1125.75" y1="100" x2="1125.75" y2="70" style="stroke:black;stroke-width:1" /><line x1="1130.25" y1="100" x2="1130.25" y2="70" style="stroke:black;stroke-width:1" /><line x1="1134.75" y1="100" x2="1134.75" y2="70" style="stroke:black;stroke-width:1" /><line x1="1139.25" y1="100" x2="1139.25" y2="70" style="stroke:black;stroke-width:1" /><line x1="1143.5" y1="100" x2="1143.5" y2="40" style="stroke:black;stroke-width:1" /><text x="1140" y="34" fill="black" font-size="18">9</text><line x1="1148.0" y1="100" x2="1148.0" y2="70" style="stroke:black;stroke-width:1" /><line x1="1152.25" y1="100" x2="1152.25" y2="70" style="stroke:black;stroke-width:1" /><line x1="1156.5" y1="100" x2="1156.5" y2="70" style="stroke:black;stroke-width:1" /><line x1="1160.5" y1="100" x2="1160.5" y2="70" style="stroke:black;stroke-width:1" /><line x1="1164.75" y1="100" x2="1164.75" y2="50" style="stroke:black;stroke-width:1" /><text x="1158.7054632190193" y="45" fill="black" font-size="14">9.5</text><line x1="1168.75" y1="100" x2="1168.75" y2="70" style="stroke:black;stroke-width:1" /><line x1="1172.75" y1="100" x2="1172.75" y2="70" style="stroke:black;stroke-width:1" /><line x1="1176.75" y1="100" x2="1176.75" y2="70" style="stroke:black;stroke-width:1" /><line x1="1180.75" y1="100" x2="1180.75" y2="70" style="stroke:black;stroke-width:1" /><line x1="1184.75" y1="100" x2="1184.75" y2="30" style="stroke:black;stroke-width:1" /><text x="1178.7542184590563" y="20" fill="black" font-size="18">10</text></g><g transform="translate(0 190)"><text x="6.0" y="70" fill="black" font-size="24">LL</text><text x="34.0" y="72" fill="black" font-size="12">2</text><text x="964.0" y="64" fill="black" font-size="16">e</text><text x="972.0" y="56" fill="black" font-size="12">0.1x</text><text x="61" y="70" fill="black" font-size="14">1.11</text><text x="946" y="45" fill="black" font-size="14">e</text><line x1="950.0" y1="100" x2="950.0" y2="60" style="stroke:black;stroke-width:1" /><line x1="49.5" y1="100" x2="49.5" y2="80" style="stroke:black;stroke-width:1" /><line x1="53.0" y1="100" x2="53.0" y2="85" style="stroke:black;stroke-width:1" /><line x1="56.5" y1="100" x2="56.5" y2="85" style="stroke:black;stroke-width:1" /><line x1="59.75" y1="100" x2="59.75" y2="85" style="stroke:black;stroke-width:1" /><line x1="63.25" y1="100" x2="63.25" y2="85" style="stroke:black;stroke-width:1" /><line x1="66.75" y1="100" x2="66.75" y2="75" style="stroke:black;stroke-width:1" /><line x1="70.0" y1="100" x2="70.0" y2="85" style="stroke:black;stroke-width:1" /><line x1="73.25" y1="100" x2="73.25" y2="85" style="stroke:black;stroke-width:1" /><line x1="76.75" y1="100" x2="76.75" y2="85" style="stroke:black;stroke-width:1" /><line x1="80.0" y1="100" x2="80.0" y2="85" style="stroke:black;stroke-width:1" /><line x1="83.25" y1="100" x2="83.25" y2="80" style="stroke:black;stroke-width:1" /><line x1="86.25" y1="100" x2="86.25" y2="85" style="stroke:black;stroke-width:1" /><line x1="89.5" y1="100" x2="89.5" y2="85" style="stroke:black;stroke-width:1" /><line x1="92.75" y1="100" x2="92.75" y2="85" style="stroke:black;stroke-width:1" /><line x1="95.75" y1="100" x2="95.75" y2="85" style="stroke:black;stroke-width:1" /><line x1="99.0" y1="100" x2="99.0" y2="75" style="stroke:black;stroke-width:1" /><line x1="102.0" y1="100" x2="102.0" y2="85" style="stroke:black;stroke-width:1" /><line x1="105.0" y1="100" x2="105.0" y2="85" style="stroke:black;stroke-width:1" /><line x1="108.0" y1="100" x2="108.0" y2="85" style="stroke:black;stroke-width:1" /><line x1="111.0" y1="100" x2="111.0" y2="85" style="stroke:black;stroke-width:1" /><line x1="114.0" y1="100" x2="114.0" y2="80" style="stroke:black;stroke-width:1" /><line x1="117.0" y1="100" x2="117.0" y2="85" style="stroke:black;stroke-width:1" /><line x1="119.75" y1="100" x2="119.75" y2="85" style="stroke:black;stroke-width:1" /><line x1="122.75" y1="100" x2="122.75" y2="85" style="stroke:black;stroke-width:1" /><line x1="125.5" y1="100" x2="125.5" y2="85" style="stroke:black;stroke-width:1" /><line x1="128.5" y1="100" x2="128.5" y2="75" style="stroke:black;stroke-width:1" /><line x1="131.25" y1="100" x2="131.25" y2="85" style="stroke:black;stroke-width:1" /><line x1="134.0" y1="100" x2="134.0" y2="85" style="stroke:black;stroke-width:1" /><line x1="136.75" y1="100" x2="136.75" y2="85" style="stroke:black;stroke-width:1" /><line x1="139.5" y1="100" x2="139.5" y2="85" style="stroke:black;stroke-width:1" /><line x1="142.25" y1="100" x2="142.25" y2="80" style="stroke:black;stroke-width:1" /><line x1="145.0" y1="100" x2="145.0" y2="85" style="stroke:black;stroke-width:1" /><line x1="147.75" y1="100" x2="147.75" y2="85" style="stroke:black;stroke-width:1" /><line x1="150.25" y1="100" x2="150.25" y2="85" style="stroke:black;stroke-width:1" /><line x1="153.0" y1="100" x2="153.0" y2="85" style="stroke:black;stroke-width:1" /><line x1="155.75" y1="100" x2="155.75" y2="75" style="stroke:black;stroke-width:1" /><line x1="168.5" y1="100" x2="168.5" y2="80" style="stroke:black;stroke-width:1" /><line x1="180.75" y1="100" x2="180.75" y2="65" style="stroke:black;stroke-width:1" /><text x="175" y="60" fill="black" font-size="14">1.15</text><line x1="192.75" y1="100" x2="192.75" y2="80" style="stroke:black;stroke-width:1" /><line x1="204.25" y1="100" x2="204.25" y2="75" style="stroke:black;stroke-width:1" /><line x1="215.5" y1="100" x2="215.5" y2="80" style="stroke:black;stroke-width:1" /><line x1="226.25" y1="100" x2="226.25" y2="75" style="stroke:black;stroke-width:1" /><line x1="236.75" y1="100" x2="236.75" y2="80" style="stroke:black;stroke-width:1" /><line x1="247.0" y1="100" x2="247.0" y2="75" style="stroke:black;stroke-width:1" /><line x1="256.75" y1="100" x2="256.75" y2="80" style="stroke:black;stroke-width:1" /><line x1="266.5" y1="100" x2="266.5" y2="75" style="stroke:black;stroke-width:1" /><line x1="275.75" y1="100" x2="275.75" y2="80" style="stroke:black;stroke-width:1" /><line x1="284.75" y1="100" x2="284.75" y2="55" style="stroke:black;stroke-width:1" /><text x="279" y="50" fill="black" font-size="16">1.2</text><line x1="293.5" y1="100" x2="293.5" y2="80" style="stroke:black;stroke-width:1" /><line x1="302.25" y1="100" x2="302.25" y2="75" style="stroke:black;stroke-width:1" /><line x1="310.5" y1="100" x2="310.5" y2="80" style="stroke:black;stroke-width:1" /><line x1="318.75" y1="100" x2="318.75" y2="75" style="stroke:black;stroke-width:1" /><line x1="326.75" y1="100" x2="326.75" y2="80" style="stroke:black;stroke-width:1" /><line x1="334.5" y1="100" x2="334.5" y2="75" style="stroke:black;stroke-width:1" /><line x1="342.0" y1="100" x2="342.0" y2="80" style="stroke:black;stroke-width:1" /><line x1="349.5" y1="100" x2="349.5" y2="75" style="stroke:black;stroke-width:1" /><line x1="356.75" y1="100" x2="356.75" y2="80" style="stroke:black;stroke-width:1" /><line x1="363.75" y1="100" x2="363.75" y2="65" style="stroke:black;stroke-width:1" /><text x="358" y="60" fill="black" font-size="14">1.25</text><line x1="370.75" y1="100" x2="370.75" y2="80" style="stroke:black;stroke-width:1" /><line x1="377.5" y1="100" x2="377.5" y2="75" style="stroke:black;stroke-width:1" /><line x1="384.0" y1="100" x2="384.0" y2="80" style="stroke:black;stroke-width:1" /><line x1="390.5" y1="100" x2="390.5" y2="75" style="stroke:black;stroke-width:1" /><line x1="397.0" y1="100" x2="397.0" y2="80" style="stroke:black;stroke-width:1" /><line x1="403.25" y1="100" x2="403.25" y2="75" style="stroke:black;stroke-width:1" /><line x1="409.25" y1="100" x2="409.25" y2="80" style="stroke:black;stroke-width:1" /><line x1="415.25" y1="100" x2="415.25" y2="75" style="stroke:black;stroke-width:1" /><line x1="421.25" y1="100" x2="421.25" y2="80" style="stroke:black;stroke-width:1" /><line x1="427.0" y1="100" x2="427.0" y2="55" style="stroke:black;stroke-width:1" /><text x="421" y="50" fill="black" font-size="16">1.3</text><line x1="438.25" y1="100" x2="438.25" y2="75" style="stroke:black;stroke-width:1" /><line x1="449.0" y1="100" x2="449.0" y2="75" style="stroke:black;stroke-width:1" /><line x1="459.5" y1="100" x2="459.5" y2="75" style="stroke:black;stroke-width:1" /><line x1="469.75" y1="100" x2="469.75" y2="75" style="stroke:black;stroke-width:1" /><line x1="479.5" y1="100" x2="479.5" y2="65" style="stroke:black;stroke-width:1" /><text x="474" y="60" fill="black" font-size="14">1.35</text><line x1="489.0" y1="100" x2="489.0" y2="75" style="stroke:black;stroke-width:1" /><line x1="498.25" y1="100" x2="498.25" y2="75" style="stroke:black;stroke-width:1" /><line x1="507.25" y1="100" x2="507.25" y2="75" style="stroke:black;stroke-width:1" /><line x1="515.75" y1="100" x2="515.75" y2="75" style="stroke:black;stroke-width:1" /><line x1="524.25" y1="100" x2="524.25" y2="55" style="stroke:black;stroke-width:1" /><text x="518" y="50" fill="black" font-size="16">1.4</text><line x1="532.5" y1="100" x2="532.5" y2="75" style="stroke:black;stroke-width:1" /><line x1="540.5" y1="100" x2="540.5" y2="75" style="stroke:black;stroke-width:1" /><line x1="548.25" y1="100" x2="548.25" y2="75" style="stroke:black;stroke-width:1" /><line x1="555.75" y1="100" x2="555.75" y2="75" style="stroke:black;stroke-width:1" /><line x1="563.0" y1="100" x2="563.0" y2="65" style="stroke:black;stroke-width:1" /><text x="557" y="60" fill="black" font-size="14">1.45</text><line x1="570.25" y1="100" x2="570.25" y2="75" style="stroke:black;stroke-width:1" /><line x1="577.25" y1="100" x2="577.25" y2="75" style="stroke:black;stroke-width:1" /><line x1="584.0" y1="100" x2="584.0" y2="75" style="stroke:black;stroke-width:1" /><line x1="590.75" y1="100" x2="590.75" y2="75" style="stroke:black;stroke-width:1" /><line x1="597.25" y1="100" x2="597.25" y2="55" style="stroke:black;stroke-width:1" /><text x="591" y="50" fill="black" font-size="16">1.5</text><line x1="603.5" y1="100" x2="603.5" y2="75" style="stroke:black;stroke-width:1" /><line x1="609.75" y1="100" x2="609.75" y2="75" style="stroke:black;stroke-width:1" /><line x1="615.75" y1="100" x2="615.75" y2="75" style="stroke:black;stroke-width:1" /><line x1="621.75" y1="100" x2="621.75" y2="75" style="stroke:black;stroke-width:1" /><line x1="627.5" y1="100" x2="627.5" y2="65" style="stroke:black;stroke-width:1" /><line x1="633.25" y1="100" x2="633.25" y2="75" style="stroke:black;stroke-width:1" /><line x1="638.75" y1="100" x2="638.75" y2="75" style="stroke:black;stroke-width:1" /><line x1="644.25" y1="100" x2="644.25" y2="75" style="stroke:black;stroke-width:1" /><line x1="649.75" y1="100" x2="649.75" y2="75" style="stroke:black;stroke-width:1" /><line x1="655.0" y1="100" x2="655.0" y2="55" style="stroke:black;stroke-width:1" /><text x="649" y="50" fill="black" font-size="16">1.6</text><line x1="660.0" y1="100" x2="660.0" y2="75" style="stroke:black;stroke-width:1" /><line x1="665.0" y1="100" x2="665.0" y2="75" style="stroke:black;stroke-width:1" /><line x1="670.0" y1="100" x2="670.0" y2="75" style="stroke:black;stroke-width:1" /><line x1="675.0" y1="100" x2="675.0" y2="75" style="stroke:black;stroke-width:1" /><line x1="679.75" y1="100" x2="679.75" y2="65" style="stroke:black;stroke-width:1" /><line x1="684.25" y1="100" x2="684.25" y2="75" style="stroke:black;stroke-width:1" /><line x1="689.0" y1="100" x2="689.0" y2="75" style="stroke:black;stroke-width:1" /><line x1="693.5" y1="100" x2="693.5" y2="75" style="stroke:black;stroke-width:1" /><line x1="698.0" y1="100" x2="698.0" y2="75" style="stroke:black;stroke-width:1" /><line x1="702.25" y1="100" x2="702.25" y2="55" style="stroke:black;stroke-width:1" /><text x="696" y="50" fill="black" font-size="16">1.7</text><line x1="706.5" y1="100" x2="706.5" y2="75" style="stroke:black;stroke-width:1" /><line x1="710.75" y1="100" x2="710.75" y2="75" style="stroke:black;stroke-width:1" /><line x1="715.0" y1="100" x2="715.0" y2="75" style="stroke:black;stroke-width:1" /><line x1="719.0" y1="100" x2="719.0" y2="75" style="stroke:black;stroke-width:1" /><line x1="723.0" y1="100" x2="723.0" y2="65" style="stroke:black;stroke-width:1" /><line x1="727.0" y1="100" x2="727.0" y2="75" style="stroke:black;stroke-width:1" /><line x1="731.0" y1="100" x2="731.0" y2="75" style="stroke:black;stroke-width:1" /><line x1="734.75" y1="100" x2="734.75" y2="75" style="stroke:black;stroke-width:1" /><line x1="738.5" y1="100" x2="738.5" y2="75" style="stroke:black;stroke-width:1" /><line x1="742.25" y1="100" x2="742.25" y2="55" style="stroke:black;stroke-width:1" /><text x="736" y="50" fill="black" font-size="16">1.8</text><line x1="746.0" y1="100" x2="746.0" y2="75" style="stroke:black;stroke-width:1" /><line x1="749.5" y1="100" x2="749.5" y2="75" style="stroke:black;stroke-width:1" /><line x1="753.25" y1="100" x2="753.25" y2="75" style="stroke:black;stroke-width:1" /><line x1="756.75" y1="100" x2="756.75" y2="75" style="stroke:black;stroke-width:1" /><line x1="760.0" y1="100" x2="760.0" y2="65" style="stroke:black;stroke-width:1" /><line x1="763.5" y1="100" x2="763.5" y2="75" style="stroke:black;stroke-width:1" /><line x1="767.0" y1="100" x2="767.0" y2="75" style="stroke:black;stroke-width:1" /><line x1="770.25" y1="100" x2="770.25" y2="75" style="stroke:black;stroke-width:1" /><line x1="773.5" y1="100" x2="773.5" y2="75" style="stroke:black;stroke-width:1" /><line x1="776.75" y1="100" x2="776.75" y2="55" style="stroke:black;stroke-width:1" /><text x="771" y="50" fill="black" font-size="16">1.9</text><line x1="780.0" y1="100" x2="780.0" y2="75" style="stroke:black;stroke-width:1" /><line x1="783.0" y1="100" x2="783.0" y2="75" style="stroke:black;stroke-width:1" /><line x1="786.0" y1="100" x2="786.0" y2="75" style="stroke:black;stroke-width:1" /><line x1="789.25" y1="100" x2="789.25" y2="75" style="stroke:black;stroke-width:1" /><line x1="792.25" y1="100" x2="792.25" y2="65" style="stroke:black;stroke-width:1" /><line x1="795.25" y1="100" x2="795.25" y2="75" style="stroke:black;stroke-width:1" /><line x1="798.25" y1="100" x2="798.25" y2="75" style="stroke:black;stroke-width:1" /><line x1="801.0" y1="100" x2="801.0" y2="75" style="stroke:black;stroke-width:1" /><line x1="804.0" y1="100" x2="804.0" y2="75" style="stroke:black;stroke-width:1" /><line x1="806.75" y1="100" x2="806.75" y2="55" style="stroke:black;stroke-width:1" /><text x="801" y="50" fill="black" font-size="12">2.0</text><line x1="820.5" y1="100" x2="820.5" y2="65" style="stroke:black;stroke-width:1" /><line x1="833.25" y1="100" x2="833.25" y2="55" style="stroke:black;stroke-width:1" /><text x="827" y="50" fill="black" font-size="12">2.1</text><line x1="845.5" y1="100" x2="845.5" y2="65" style="stroke:black;stroke-width:1" /><line x1="857.0" y1="100" x2="857.0" y2="55" style="stroke:black;stroke-width:1" /><text x="851" y="50" fill="black" font-size="12">2.2</text><line x1="868.0" y1="100" x2="868.0" y2="65" style="stroke:black;stroke-width:1" /><line x1="878.5" y1="100" x2="878.5" y2="55" style="stroke:black;stroke-width:1" /><text x="873" y="50" fill="black" font-size="12">2.3</text><line x1="888.5" y1="100" x2="888.5" y2="65" style="stroke:black;stroke-width:1" /><line x1="898.0" y1="100" x2="898.0" y2="55" style="stroke:black;stroke-width:1" /><line x1="907.0" y1="100" x2="907.0" y2="65" style="stroke:black;stroke-width:1" /><line x1="915.75" y1="100" x2="915.75" y2="55" style="stroke:black;stroke-width:1" /><text x="910" y="50" fill="black" font-size="12">2.5</text><line x1="924.25" y1="100" x2="924.25" y2="65" style="stroke:black;stroke-width:1" /><line x1="932.25" y1="100" x2="932.25" y2="55" style="stroke:black;stroke-width:1" /><line x1="940.0" y1="100" x2="940.0" y2="65" style="stroke:black;stroke-width:1" /><line x1="947.25" y1="100" x2="947.25" y2="55" style="stroke:black;stroke-width:1" /></g></svg>