<?xml version='1.0' encoding='us-ascii'?>
<svg width="1131.5152321104142" height="440" version="1.1" xmlns="http://www.w3.org/2000/svg"><style>text {
          font-family: Arial, Helvetica, sans-serif;
          font-weight: Thin;
          }
    </style><rect width="1000" height="120" x="0.0" y="0" style="fill:#f9fc69;stroke-width:1;stroke:black" /><rect width="1000" height="200" x="131.51523211041425" y="120" style="fill:#f9fc69;stroke-width:1;stroke:black" /><rect width="1000" height="120" x="0.0" y="320" style="fill:#f9fc69;stroke-width:1;stroke:black" /><g transform="translate(0 20)"><text x="8.0" y="75" fill="black" font-size="24">DF</text><text x="46.0" y="55" fill="black" font-size="16">&#960;</text><line x1="50.0" y1="100" x2="50.0" y2="60" style="stroke:black;stroke-width:1" /><text x="962.0" y="70" fill="black" font-size="16">&#960;x</text><line x1="57.25" y1="100" x2="57.25" y2="70" style="stroke:black;stroke-width:1" /><line x1="69.25" y1="100" x2="69.25" y2="70" style="stroke:black;stroke-width:1" /><line x1="81.0" y1="100" x2="81.0" y2="70" style="stroke:black;stroke-width:1" /><line x1="92.25" y1="100" x2="92.25" y2="50" style="stroke:black;stroke-width:1" /><text x="86" y="45" fill="black" font-size="14">3.5</text><line x1="103.25" y1="100" x2="103.25" y2="70" style="stroke:black;stroke-width:1" /><line x1="114.0" y1="100" x2="114.0" y2="70" style="stroke:black;stroke-width:1" /><line x1="124.25" y1="100" x2="124.25" y2="70" style="stroke:black;stroke-width:1" /><line x1="134.5" y1="100" x2="134.5" y2="70" style="stroke:black;stroke-width:1" /><line x1="144.5" y1="100" x2="144.5" y2="40" style="stroke:black;stroke-width:1" /><text x="140" y="33" fill="black" font-size="18">4</text><line x1="154.0" y1="100" x2="154.0" y2="70" style="stroke:black;stroke-width:1" /><line x1="163.5" y1="100" x2="163.5" y2="70" style="stroke:black;stroke-width:1" /><line x1="172.75" y1="100" x2="172.75" y2="70" style="stroke:black;stroke-width:1" /><line x1="181.75" y1="100" x2="181.75" y2="70" style="stroke:black;stroke-width:1" /><line x1="190.5" y1="100" x2="190.5" y2="50" style="stroke:black;stroke-width:1" /><text x="184" y="45" fill="black" font-size="14">4.5</text><line x1="199.0" y1="100" x2="199.0" y2="70" style="stroke:black;stroke-width:1" /><line x1="207.5" y1="100" x2="207.5" y2="70" style="stroke:black;stroke-width:1" /><line x1="215.75" y1="100" x2="215.75" y2="70" style="stroke:black;stroke-width:1" /><line x1="223.75" y1="100" x2="223.75" y2="70" style="stroke:black;stroke-width:1" /><line x1="231.75" y1="100" x2="231.75" y2="40" style="stroke:black;stroke-width:1" /><text x="228" y="33" fill="black" font-size="18">5</text><line x1="239.5" y1="100" x2="239.5" y2="70" style="stroke:black;stroke-width:1" /><line x1="247.0" y1="100" x2="247.0" y2="70" style="stroke:black;stroke-width:1" /><line x1="254.5" y1="100" x2="254.5" y2="70" style="stroke:black;stroke-width:1" /><line x1="261.75" y1="100" x2="261.75" y2="70" style="stroke:black;stroke-width:1" /><line x1="269.0" y1="100" x2="269.0" y2="50" style="stroke:black;stroke-width:1" /><text x="263" y="45" fill="black" font-size="14">5.5</text><line x1="276.0" y1="100" x2="276.0" y2="70" style="stroke:black;stroke-width:1" /><line x1="282.75" y1="100" x2="282.75" y2="70" style="stroke:black;stroke-width:1" /><line x1="289.75" y1="100" x2="289.75" y2="70" style="stroke:black;stroke-width:1" /><line x1="296.25" y1="100" x2="296.25" y2="70" style="stroke:black;stroke-width:1" /><line x1="303.0" y1="100" x2="303.0" y2="40" style="stroke:black;stroke-width:1" /><text x="299" y="33" fill="black" font-size="18">6</text><line x1="309.25" y1="100" x2="309.25" y2="70" style="stroke:black;stroke-width:1" /><line x1="315.75" y1="100" x2="315.75" y2="70" style="stroke:black;stroke-width:1" /><line x1="322.0" y1="100" x2="322.0" y2="70" style="stroke:black;stroke-width:1" /><line x1="328.25" y1="100" x2="328.25" y2="70" style="stroke:black;stroke-width:1" /><line x1="334.25" y1="100" x2="334.25" y2="50" style="stroke:black;stroke-width:1" /><text x="328" y="45" fill="black" font-size="14">6.5</text><line x1="340.25" y1="100" x2="340.25" y2="70" style="stroke:black;stroke-width:1" /><line x1="346.0" y1="100" x2="346.0" y2="70" style="stroke:black;stroke-width:1" /><line x1="351.75" y1="100" x2="351.75" y2="70" style="stroke:black;stroke-width:1" /><line x1="357.5" y1="100" x2="357.5" y2="70" style="stroke:black;stroke-width:1" /><line x1="363.25" y1="100" x2="363.25" y2="40" style="stroke:black;stroke-width:1" /><text x="359" y="33" fill="black" font-size="18">7</text><line x1="368.75" y1="100" x2="368.75" y2="70" style="stroke:black;stroke-width:1" /><line x1="374.25" y1="100" x2="374.25" y2="70" style="stroke:black;stroke-width:1" /><line x1="379.5" y1="100" x2="379.5" y2="70" style="stroke:black;stroke-width:1" /><line x1="384.75" y1="100" x2="384.75" y2="70" style="stroke:black;stroke-width:1" /><line x1="390.0" y1="100" x2="390.0" y2="50" style="stroke:black;stroke-width:1" /><text x="384" y="45" fill="black" font-size="14">7.5</text><line x1="395.25" y1="100" x2="395.25" y2="70" style="stroke:black;stroke-width:1" /><line x1="400.5" y1="100" x2="400.5" y2="70" style="stroke:black;stroke-width:1" /><line x1="405.5" y1="100" x2="405.5" y2="70" style="stroke:black;stroke-width:1" /><line x1="410.5" y1="100" x2="410.5" y2="70" style="stroke:black;stroke-width:1" /><line x1="415.25" y1="100" x2="415.25" y2="40" style="stroke:black;stroke-width:1" /><text x="411" y="33" fill="black" font-size="18">8</text><line x1="420.25" y1="100" x2="420.25" y2="70" style="stroke:black;stroke-width:1" /><line x1="425.0" y1="100" x2="425.0" y2="70" style="stroke:black;stroke-width:1" /><line x1="429.75" y1="100" x2="429.75" y2="70" style="stroke:black;stroke-width:1" /><line x1="434.5" y1="100" x2="434.5" y2="70" style="stroke:black;stroke-width:1" /><line x1="439.0" y1="100" x2="439.0" y2="50" style="stroke:black;stroke-width:1" /><text x="433" y="45" fill="black" font-size="14">8.5</text><line x1="443.5" y1="100" x2="443.5" y2="70" style="stroke:black;stroke-width:1" /><line x1="448.25" y1="100" x2="448.25" y2="70" style="stroke:black;stroke-width:1" /><line x1="452.5" y1="100" x2="452.5" y2="70" style="stroke:black;stroke-width:1" /><line x1="457.0" y1="100" x2="457.0" y2="70" style="stroke:black;stroke-width:1" /><line x1="461.5" y1="100" x2="461.5" y2="40" style="stroke:black;stroke-width:1" /><text x="457" y="33" fill="black" font-size="18">9</text><line x1="465.75" y1="100" x2="465.75" y2="70" style="stroke:black;stroke-width:1" /><line x1="470.0" y1="100" x2="470.0" y2="70" style="stroke:black;stroke-width:1" /><line x1="474.25" y1="100" x2="474.25" y2="70" style="stroke:black;stroke-width:1" /><line x1="478.5" y1="100" x2="478.5" y2="70" style="stroke:black;stroke-width:1" /><line x1="482.5" y1="100" x2="482.5" y2="50" style="stroke:black;stroke-width:1" /><text x="477" y="45" fill="black" font-size="14">9.5</text><line x1="486.5" y1="100" x2="486.5" y2="70" style="stroke:black;stroke-width:1" /><line x1="490.75" y1="100" x2="490.75" y2="70" style="stroke:black;stroke-width:1" /><line x1="494.75" y1="100" x2="494.75" y2="70" style="stroke:black;stroke-width:1" /><line x1="498.75" y1="100" x2="498.75" y2="70" style="stroke:black;stroke-width:1" /><line x1="502.5" y1="100" x2="502.5" y2="30" style="stroke:black;stroke-width:1" /><text x="499" y="24" fill="black" font-size="18">1</text><line x1="521.75" y1="100" x2="521.75" y2="80" style="stroke:black;stroke-width:1" /><line x1="539.75" y1="100" x2="539.75" y2="70" style="stroke:black;stroke-width:1" /><text x="534" y="65" fill="black" font-size="12">1.1</text><line x1="557.25" y1="100" x2="557.25" y2="80" style="stroke:black;stroke-width:1" /><line x1="573.75" y1="100" x2="573.75" y2="70" style="stroke:black;stroke-width:1" /><text x="568" y="65" fill="black" font-size="12">1.2</text><line x1="589.75" y1="100" x2="589.75" y2="80" style="stroke:black;stroke-width:1" /><line x1="605.0" y1="100" x2="605.0" y2="70" style="stroke:black;stroke-width:1" /><text x="599" y="65" fill="black" font-size="12">1.3</text><line x1="619.75" y1="100" x2="619.75" y2="80" style="stroke:black;stroke-width:1" /><line x1="634.0" y1="100" x2="634.0" y2="70" style="stroke:black;stroke-width:1" /><text x="628" y="65" fill="black" font-size="12">1.4</text><line x1="647.75" y1="100" x2="647.75" y2="80" style="stroke:black;stroke-width:1" /><line x1="661.0" y1="100" x2="661.0" y2="40" style="stroke:black;stroke-width:1" /><text x="655" y="35" fill="black" font-size="14">1.5</text><line x1="673.75" y1="100" x2="673.75" y2="80" style="stroke:black;stroke-width:1" /><line x1="686.25" y1="100" x2="686.25" y2="70" style="stroke:black;stroke-width:1" /><text x="680" y="65" fill="black" font-size="12">1.6</text><line x1="698.25" y1="100" x2="698.25" y2="80" style="stroke:black;stroke-width:1" /><line x1="710.0" y1="100" x2="710.0" y2="70" style="stroke:black;stroke-width:1" /><text x="704" y="65" fill="black" font-size="12">1.7</text><line x1="721.25" y1="100" x2="721.25" y2="80" style="stroke:black;stroke-width:1" /><line x1="732.25" y1="100" x2="732.25" y2="70" style="stroke:black;stroke-width:1" /><text x="726" y="65" fill="black" font-size="12">1.8</text><line x1="743.0" y1="100" x2="743.0" y2="80" style="stroke:black;stroke-width:1" /><line x1="753.5" y1="100" x2="753.5" y2="70" style="stroke:black;stroke-width:1" /><text x="747" y="65" fill="black" font-size="12">1.9</text><line x1="763.5" y1="100" x2="763.5" y2="80" style="stroke:black;stroke-width:1" /><line x1="773.5" y1="100" x2="773.5" y2="30" style="stroke:black;stroke-width:1" /><text x="769" y="24" fill="black" font-size="18">2</text><line x1="783.25" y1="100" x2="783.25" y2="80" style="stroke:black;stroke-width:1" /><line x1="792.5" y1="100" x2="792.5" y2="70" style="stroke:black;stroke-width:1" /><line x1="801.75" y1="100" x2="801.75" y2="80" style="stroke:black;stroke-width:1" /><line x1="810.75" y1="100" x2="810.75" y2="70" style="stroke:black;stroke-width:1" /><line x1="819.5" y1="100" x2="819.5" y2="80" style="stroke:black;stroke-width:1" /><line x1="828.0" y1="100" x2="828.0" y2="70" style="stroke:black;stroke-width:1" /><line x1="836.5" y1="100" x2="836.5" y2="80" style="stroke:black;stroke-width:1" /><line x1="844.75" y1="100" x2="844.75" y2="70" style="stroke:black;stroke-width:1" /><line x1="852.75" y1="100" x2="852.75" y2="80" style="stroke:black;stroke-width:1" /><line x1="860.75" y1="100" x2="860.75" y2="40" style="stroke:black;stroke-width:1" /><text x="855" y="35" fill="black" font-size="14">2.5</text><line x1="868.5" y1="100" x2="868.5" y2="80" style="stroke:black;stroke-width:1" /><line x1="876.0" y1="100" x2="876.0" y2="70" style="stroke:black;stroke-width:1" /><line x1="883.5" y1="100" x2="883.5" y2="80" style="stroke:black;stroke-width:1" /><line x1="890.75" y1="100" x2="890.75" y2="70" style="stroke:black;stroke-width:1" /><line x1="898.0" y1="100" x2="898.0" y2="80" style="stroke:black;stroke-width:1" /><line x1="905.0" y1="100" x2="905.0" y2="70" style="stroke:black;stroke-width:1" /><line x1="912.0" y1="100" x2="912.0" y2="80" style="stroke:black;stroke-width:1" /><line x1="918.75" y1="100" x2="918.75" y2="70" style="stroke:black;stroke-width:1" /><line x1="925.5" y1="100" x2="925.5" y2="80" style="stroke:black;stroke-width:1" /><line x1="932.0" y1="100" x2="932.0" y2="30" style="stroke:black;stroke-width:1" /><text x="928" y="24" fill="black" font-size="18">3</text><line x1="938.5" y1="100" x2="938.5" y2="80" style="stroke:black;stroke-width:1" /><line x1="944.75" y1="100" x2="944.75" y2="70" style="stroke:black;stroke-width:1" /></g><g transform="translate(0 120)"><text x="139.51523211041425" y="40" fill="black" font-size="24">CF</text><text x="177.5" y="55" fill="black" font-size="16">&#960;</text><line x1="181.5" y1="0" x2="181.5" y2="40" style="stroke:black;stroke-width:1" /><text x="1093.5152321104142" y="40" fill="black" font-size="16">&#960;x</text><line x1="188.75" y1="0" x2="188.75" y2="30" style="stroke:black;stroke-width:1" /><line x1="200.75" y1="0" x2="200.75" y2="30" style="stroke:black;stroke-width:1" /><line x1="212.5" y1="0" x2="212.5" y2="30" style="stroke:black;stroke-width:1" /><line x1="223.75" y1="0" x2="223.75" y2="50" style="stroke:black;stroke-width:1" /><text x="218" y="65" fill="black" font-size="14">3.5</text><line x1="234.75" y1="0" x2="234.75" y2="30" style="stroke:black;stroke-width:1" /><line x1="245.5" y1="0" x2="245.5" y2="30" style="stroke:black;stroke-width:1" /><line x1="256.0" y1="0" x2="256.0" y2="30" style="stroke:black;stroke-width:1" /><line x1="266.0" y1="0" x2="266.0" y2="30" style="stroke:black;stroke-width:1" /><line x1="276.0" y1="0" x2="276.0" y2="60" style="stroke:black;stroke-width:1" /><text x="272" y="80" fill="black" font-size="18">4</text><line x1="285.5" y1="0" x2="285.5" y2="30" style="stroke:black;stroke-width:1" /><line x1="295.0" y1="0" x2="295.0" y2="30" style="stroke:black;stroke-width:1" /><line x1="304.25" y1="0" x2="304.25" y2="30" style="stroke:black;stroke-width:1" /><line x1="313.25" y1="0" x2="313.25" y2="30" style="stroke:black;stroke-width:1" /><line x1="322.0" y1="0" x2="322.0" y2="50" style="stroke:black;stroke-width:1" /><text x="316" y="65" fill="black" font-size="14">4.5</text><line x1="330.5" y1="0" x2="330.5" y2="30" style="stroke:black;stroke-width:1" /><line x1="339.0" y1="0" x2="339.0" y2="30" style="stroke:black;stroke-width:1" /><line x1="347.25" y1="0" x2="347.25" y2="30" style="stroke:black;stroke-width:1" /><line x1="355.25" y1="0" x2="355.25" y2="30" style="stroke:black;stroke-width:1" /><line x1="363.25" y1="0" x2="363.25" y2="60" style="stroke:black;stroke-width:1" /><text x="359" y="80" fill="black" font-size="18">5</text><line x1="371.0" y1="0" x2="371.0" y2="30" style="stroke:black;stroke-width:1" /><line x1="378.5" y1="0" x2="378.5" y2="30" style="stroke:black;stroke-width:1" /><line x1="386.0" y1="0" x2="386.0" y2="30" style="stroke:black;stroke-width:1" /><line x1="393.25" y1="0" x2="393.25" y2="30" style="stroke:black;stroke-width:1" /><line x1="400.5" y1="0" x2="400.5" y2="50" style="stroke:black;stroke-width:1" /><text x="394" y="65" fill="black" font-size="14">5.5</text><line x1="407.5" y1="0" x2="407.5" y2="30" style="stroke:black;stroke-width:1" /><line x1="414.25" y1="0" x2="414.25" y2="30" style="stroke:black;stroke-width:1" /><line x1="421.25" y1="0" x2="421.25" y2="30" style="stroke:black;stroke-width:1" /><line x1="427.75" y1="0" x2="427.75" y2="30" style="stroke:black;stroke-width:1" /><line x1="434.5" y1="0" x2="434.5" y2="60" style="stroke:black;stroke-width:1" /><text x="430" y="80" fill="black" font-size="18">6</text><line x1="441.0" y1="0" x2="441.0" y2="30" style="stroke:black;stroke-width:1" /><line x1="447.25" y1="0" x2="447.25" y2="30" style="stroke:black;stroke-width:1" /><line x1="453.5" y1="0" x2="453.5" y2="30" style="stroke:black;stroke-width:1" /><line x1="459.75" y1="0" x2="459.75" y2="30" style="stroke:black;stroke-width:1" /><line x1="465.75" y1="0" x2="465.75" y2="50" style="stroke:black;stroke-width:1" /><text x="460" y="65" fill="black" font-size="14">6.5</text><line x1="471.75" y1="0" x2="471.75" y2="30" style="stroke:black;stroke-width:1" /><line x1="477.5" y1="0" x2="477.5" y2="30" style="stroke:black;stroke-width:1" /><line x1="483.25" y1="0" x2="483.25" y2="30" style="stroke:black;stroke-width:1" /><line x1="489.0" y1="0" x2="489.0" y2="30" style="stroke:black;stroke-width:1" /><line x1="494.75" y1="0" x2="494.75" y2="60" style="stroke:black;stroke-width:1" /><text x="491" y="80" fill="black" font-size="18">7</text><line x1="500.25" y1="0" x2="500.25" y2="30" style="stroke:black;stroke-width:1" /><line x1="505.75" y1="0" x2="505.75" y2="30" style="stroke:black;stroke-width:1" /><line x1="511.0" y1="0" x2="511.0" y2="30" style="stroke:black;stroke-width:1" /><line x1="516.5" y1="0" x2="516.5" y2="30" style="stroke:black;stroke-width:1" /><line x1="521.75" y1="0" x2="521.75" y2="50" style="stroke:black;stroke-width:1" /><text x="516" y="65" fill="black" font-size="14">7.5</text><line x1="526.75" y1="0" x2="526.75" y2="30" style="stroke:black;stroke-width:1" /><line x1="532.0" y1="0" x2="532.0" y2="30" style="stroke:black;stroke-width:1" /><line x1="537.0" y1="0" x2="537.0" y2="30" style="stroke:black;stroke-width:1" /><line x1="542.0" y1="0" x2="542.0" y2="30" style="stroke:black;stroke-width:1" /><line x1="546.75" y1="0" x2="546.75" y2="60" style="stroke:black;stroke-width:1" /><text x="543" y="80" fill="black" font-size="18">8</text><line x1="551.75" y1="0" x2="551.75" y2="30" style="stroke:black;stroke-width:1" /><line x1="556.5" y1="0" x2="556.5" y2="30" style="stroke:black;stroke-width:1" /><line x1="561.25" y1="0" x2="561.25" y2="30" style="stroke:black;stroke-width:1" /><line x1="566.0" y1="0" x2="566.0" y2="30" style="stroke:black;stroke-width:1" /><line x1="570.5" y1="0" x2="570.5" y2="50" style="stroke:black;stroke-width:1" /><text x="565" y="65" fill="black" font-size="14">8.5</text><line x1="575.25" y1="0" x2="575.25" y2="30" style="stroke:black;stroke-width:1" /><line x1="579.75" y1="0" x2="579.75" y2="30" style="stroke:black;stroke-width:1" /><line x1="584.0" y1="0" x2="584.0" y2="30" style="stroke:black;stroke-width:1" /><line x1="588.5" y1="0" x2="588.5" y2="30" style="stroke:black;stroke-width:1" /><line x1="593.0" y1="0" x2="593.0" y2="60" style="stroke:black;stroke-width:1" /><text x="589" y="80" fill="black" font-size="18">9</text><line x1="597.25" y1="0" x2="597.25" y2="30" style="stroke:black;stroke-width:1" /><line x1="601.5" y1="0" x2="601.5" y2="30" style="stroke:black;stroke-width:1" /><line x1="605.75" y1="0" x2="605.75" y2="30" style="stroke:black;stroke-width:1" /><line x1="610.0" y1="0" x2="610.0" y2="30" style="stroke:black;stroke-width:1" /><line x1="614.0" y1="0" x2="614.0" y2="50" style="stroke:black;stroke-width:1" /><text x="608" y="65" fill="black" font-size="14">9.5</text><line x1="618.0" y1="0" x2="618.0" y2="30" style="stroke:black;stroke-width:1" /><line x1="622.25" y1="0" x2="622.25" y2="30" style="stroke:black;stroke-width:1" /><line x1="626.25" y1="0" x2="626.25" y2="30" style="stroke:black;stroke-width:1" /><line x1="630.25" y1="0" x2="630.25" y2="30" style="stroke:black;stroke-width:1" /><line x1="634.0" y1="0" x2="634.0" y2="70" style="stroke:black;stroke-width:1" /><text x="630" y="90" fill="black" font-size="18">1</text><line x1="653.25" y1="0" x2="653.25" y2="20" style="stroke:black;stroke-width:1" /><line x1="671.25" y1="0" x2="671.25" y2="30" style="stroke:black;stroke-width:1" /><text x="665" y="45" fill="black" font-size="12">1.1</text><line x1="688.75" y1="0" x2="688.75" y2="20" style="stroke:black;stroke-width:1" /><line x1="705.25" y1="0" x2="705.25" y2="30" style="stroke:black;stroke-width:1" /><text x="699" y="45" fill="black" font-size="12">1.2</text><line x1="721.25" y1="0" x2="721.25" y2="20" style="stroke:black;stroke-width:1" /><line x1="736.75" y1="0" x2="736.75" y2="30" style="stroke:black;stroke-width:1" /><text x="731" y="45" fill="black" font-size="12">1.3</text><line x1="751.5" y1="0" x2="751.5" y2="20" style="stroke:black;stroke-width:1" /><line x1="765.5" y1="0" x2="765.5" y2="30" style="stroke:black;stroke-width:1" /><text x="760" y="45" fill="black" font-size="12">1.4</text><line x1="779.25" y1="0" x2="779.25" y2="20" style="stroke:black;stroke-width:1" /><line x1="792.5" y1="0" x2="792.5" y2="60" style="stroke:black;stroke-width:1" /><text x="787" y="75" fill="black" font-size="14">1.5</text><line x1="805.5" y1="0" x2="805.5" y2="20" style="stroke:black;stroke-width:1" /><line x1="817.75" y1="0" x2="817.75" y2="30" style="stroke:black;stroke-width:1" /><text x="812" y="45" fill="black" font-size="12">1.6</text><line x1="829.75" y1="0" x2="829.75" y2="20" style="stroke:black;stroke-width:1" /><line x1="841.5" y1="0" x2="841.5" y2="30" style="stroke:black;stroke-width:1" /><text x="835" y="45" fill="black" font-size="12">1.7</text><line x1="852.75" y1="0" x2="852.75" y2="20" style="stroke:black;stroke-width:1" /><line x1="863.75" y1="0" x2="863.75" y2="30" style="stroke:black;stroke-width:1" /><text x="858" y="45" fill="black" font-size="12">1.8</text><line x1="874.5" y1="0" x2="874.5" y2="20" style="stroke:black;stroke-width:1" /><line x1="885.0" y1="0" x2="885.0" y2="30" style="stroke:black;stroke-width:1" /><text x="879" y="45" fill="black" font-size="12">1.9</text><line x1="895.0" y1="0" x2="895.0" y2="20" style="stroke:black;stroke-width:1" /><line x1="905.0" y1="0" x2="905.0" y2="70" style="stroke:black;stroke-width:1" /><text x="901" y="90" fill="black" font-size="18">2</text><line x1="914.75" y1="0" x2="914.75" y2="20" style="stroke:black;stroke-width:1" /><line x1="924.0" y1="0" x2="924.0" y2="30" style="stroke:black;stroke-width:1" /><line x1="933.25" y1="0" x2="933.25" y2="20" style="stroke:black;stroke-width:1" /><line x1="942.25" y1="0" x2="942.25" y2="30" style="stroke:black;stroke-width:1" /><line x1="951.0" y1="0" x2="951.0" y2="20" style="stroke:black;stroke-width:1" /><line x1="959.75" y1="0" x2="959.75" y2="30" style="stroke:black;stroke-width:1" /><line x1="968.0" y1="0" x2="968.0" y2="20" style="stroke:black;stroke-width:1" /><line x1="976.25" y1="0" x2="976.25" y2="30" style="stroke:black;stroke-width:1" /><line x1="984.25" y1="0" x2="984.25" y2="20" style="stroke:black;stroke-width:1" /><line x1="992.25" y1="0" x2="992.25" y2="60" style="stroke:black;stroke-width:1" /><text x="986" y="75" fill="black" font-size="14">2.5</text><line x1="1000.0" y1="0" x2="1000.0" y2="20" style="stroke:black;stroke-width:1" /><line x1="1007.5" y1="0" x2="1007.5" y2="30" style="stroke:black;stroke-width:1" /><line x1="1015.0" y1="0" x2="1015.0" y2="20" style="stroke:black;stroke-width:1" /><line x1="1022.25" y1="0" x2="1022.25" y2="30" style="stroke:black;stroke-width:1" /><line x1="1029.5" y1="0" x2="1029.5" y2="20" style="stroke:black;stroke-width:1" /><line x1="1036.5" y1="0" x2="1036.5" y2="30" style="stroke:black;stroke-width:1" /><line x1="1043.5" y1="0" x2="1043.5" y2="20" style="stroke:black;stroke-width:1" /><line x1="1050.25" y1="0" x2="1050.25" y2="30" style="stroke:black;stroke-width:1" /><line x1="1057.0" y1="0" x2="1057.0" y2="20" style="stroke:black;stroke-width:1" /><line x1="1063.5" y1="0" x2="1063.5" y2="70" style="stroke:black;stroke-width:1" /><text x="1059" y="90" fill="black" font-size="18">3</text><line x1="1070.0" y1="0" x2="1070.0" y2="20" style="stroke:black;stroke-width:1" /><line x1="1076.25" y1="0" x2="1076.25" y2="30" style="stroke:black;stroke-width:1" /></g><g transform="translate(0 220)"><text x="139.51523211041425" y="70" fill="black" font-size="24">C</text><text x="625.0" y="53" fill="black" font-size="16">&#960;</text><line x1="629.0" y1="100" x2="629.0" y2="60" style="stroke:black;stroke-width:1" /><text x="1093.5152321104142" y="68" fill="black" font-size="16">x</text><line x1="181.5" y1="100" x2="181.5" y2="30" style="stroke:black;stroke-width:1" /><text x="178" y="20" fill="black" font-size="18">1</text><line x1="200.5" y1="100" x2="200.5" y2="80" style="stroke:black;stroke-width:1" /><line x1="218.75" y1="100" x2="218.75" y2="70" style="stroke:black;stroke-width:1" /><text x="212.7686487528168" y="67" fill="black" font-size="12">1.1</text><line x1="236.25" y1="100" x2="236.25" y2="80" style="stroke:black;stroke-width:1" /><line x1="252.75" y1="100" x2="252.75" y2="70" style="stroke:black;stroke-width:1" /><text x="246.7783535532766" y="67" fill="black" font-size="12">1.2</text><line x1="268.75" y1="100" x2="268.75" y2="80" style="stroke:black;stroke-width:1" /><line x1="284.0" y1="100" x2="284.0" y2="70" style="stroke:black;stroke-width:1" /><text x="278.06424918656734" y="67" fill="black" font-size="12">1.3</text><line x1="298.75" y1="100" x2="298.75" y2="80" style="stroke:black;stroke-width:1" /><line x1="313.0" y1="100" x2="313.0" y2="70" style="stroke:black;stroke-width:1" /><text x="307.03046422082843" y="67" fill="black" font-size="12">1.4</text><line x1="326.75" y1="100" x2="326.75" y2="80" style="stroke:black;stroke-width:1" /><line x1="340.0" y1="100" x2="340.0" y2="50" style="stroke:black;stroke-width:1" /><text x="333.9973652605273" y="45" fill="black" font-size="14">1.5</text><line x1="352.75" y1="100" x2="352.75" y2="80" style="stroke:black;stroke-width:1" /><line x1="365.25" y1="100" x2="365.25" y2="70" style="stroke:black;stroke-width:1" /><text x="359.2232165007466" y="67" fill="black" font-size="12">1.6</text><line x1="377.25" y1="100" x2="377.25" y2="80" style="stroke:black;stroke-width:1" /><line x1="389.0" y1="100" x2="389.0" y2="70" style="stroke:black;stroke-width:1" /><text x="382.9192613508608" y="67" fill="black" font-size="12">1.7</text><line x1="400.25" y1="100" x2="400.25" y2="80" style="stroke:black;stroke-width:1" /><line x1="411.25" y1="100" x2="411.25" y2="70" style="stroke:black;stroke-width:1" /><text x="405.2604867033897" y="67" fill="black" font-size="12">1.8</text><line x1="422.0" y1="100" x2="422.0" y2="80" style="stroke:black;stroke-width:1" /><line x1="432.5" y1="100" x2="432.5" y2="70" style="stroke:black;stroke-width:1" /><text x="426.3934729679603" y="67" fill="black" font-size="12">1.9</text><line x1="442.5" y1="100" x2="442.5" y2="80" style="stroke:black;stroke-width:1" /><line x1="452.5" y1="100" x2="452.5" y2="40" style="stroke:black;stroke-width:1" /><text x="448" y="34" fill="black" font-size="18">2</text><line x1="462.0" y1="100" x2="462.0" y2="80" style="stroke:black;stroke-width:1" /><line x1="471.5" y1="100" x2="471.5" y2="70" style="stroke:black;stroke-width:1" /><line x1="480.75" y1="100" x2="480.75" y2="80" style="stroke:black;stroke-width:1" /><line x1="489.75" y1="100" x2="489.75" y2="70" style="stroke:black;stroke-width:1" /><line x1="498.5" y1="100" x2="498.5" y2="80" style="stroke:black;stroke-width:1" /><line x1="507.0" y1="100" x2="507.0" y2="70" style="stroke:black;stroke-width:1" /><line x1="515.5" y1="100" x2="515.5" y2="80" style="stroke:black;stroke-width:1" /><line x1="523.75" y1="100" x2="523.75" y2="70" style="stroke:black;stroke-width:1" /><line x1="531.75" y1="100" x2="531.75" y2="80" style="stroke:black;stroke-width:1" /><line x1="539.75" y1="100" x2="539.75" y2="50" style="stroke:black;stroke-width:1" /><text x="533.6612399152481" y="45" fill="black" font-size="14">2.5</text><line x1="547.5" y1="100" x2="547.5" y2="80" style="stroke:black;stroke-width:1" /><line x1="555.0" y1="100" x2="555.0" y2="70" style="stroke:black;stroke-width:1" /><line x1="562.5" y1="100" x2="562.5" y2="80" style="stroke:black;stroke-width:1" /><line x1="569.75" y1="100" x2="569.75" y2="70" style="stroke:black;stroke-width:1" /><line x1="577.0" y1="100" x2="577.0" y2="80" style="stroke:black;stroke-width:1" /><line x1="584.0" y1="100" x2="584.0" y2="70" style="stroke:black;stroke-width:1" /><line x1="591.0" y1="100" x2="591.0" y2="80" style="stroke:black;stroke-width:1" /><line x1="597.75" y1="100" x2="597.75" y2="70" style="stroke:black;stroke-width:1" /><line x1="604.25" y1="100" x2="604.25" y2="80" style="stroke:black;stroke-width:1" /><line x1="611.0" y1="100" x2="611.0" y2="40" style="stroke:black;stroke-width:1" /><text x="607" y="34" fill="black" font-size="18">3</text><line x1="617.5" y1="100" x2="617.5" y2="80" style="stroke:black;stroke-width:1" /><line x1="623.75" y1="100" x2="623.75" y2="70" style="stroke:black;stroke-width:1" /><line x1="630.0" y1="100" x2="630.0" y2="80" style="stroke:black;stroke-width:1" /><line x1="636.25" y1="100" x2="636.25" y2="70" style="stroke:black;stroke-width:1" /><line x1="642.25" y1="100" x2="642.25" y2="80" style="stroke:black;stroke-width:1" /><line x1="648.25" y1="100" x2="648.25" y2="70" style="stroke:black;stroke-width:1" /><line x1="654.0" y1="100" x2="654.0" y2="80" style="stroke:black;stroke-width:1" /><line x1="659.75" y1="100" x2="659.75" y2="70" style="stroke:black;stroke-width:1" /><line x1="665.5" y1="100" x2="665.5" y2="80" style="stroke:black;stroke-width:1" /><line x1="671.25" y1="100" x2="671.25" y2="50" style="stroke:black;stroke-width:1" /><text x="665.1764720256623" y="45" fill="black" font-size="14">3.5</text><line x1="676.75" y1="100" x2="676.75" y2="80" style="stroke:black;stroke-width:1" /><line x1="682.25" y1="100" x2="682.25" y2="70" style="stroke:black;stroke-width:1" /><line x1="687.5" y1="100" x2="687.5" y2="80" style="stroke:black;stroke-width:1" /><line x1="693.0" y1="100" x2="693.0" y2="70" style="stroke:black;stroke-width:1" /><line x1="698.25" y1="100" x2="698.25" y2="80" style="stroke:black;stroke-width:1" /><line x1="703.25" y1="100" x2="703.25" y2="70" style="stroke:black;stroke-width:1" /><line x1="708.5" y1="100" x2="708.5" y2="80" style="stroke:black;stroke-width:1" /><line x1="713.5" y1="100" x2="713.5" y2="70" style="stroke:black;stroke-width:1" /><line x1="718.5" y1="100" x2="718.5" y2="80" style="stroke:black;stroke-width:1" /><line x1="723.25" y1="100" x2="723.25" y2="40" style="stroke:black;stroke-width:1" /><text x="719" y="34" fill="black" font-size="18">4</text><line x1="733.0" y1="100" x2="733.0" y2="70" style="stroke:black;stroke-width:1" /><line x1="742.5" y1="100" x2="742.5" y2="70" style="stroke:black;stroke-width:1" /><line x1="751.75" y1="100" x2="751.75" y2="70" style="stroke:black;stroke-width:1" /><line x1="760.5" y1="100" x2="760.5" y2="70" style="stroke:black;stroke-width:1" /><line x1="769.5" y1="100" x2="769.5" y2="50" style="stroke:black;stroke-width:1" /><text x="763.4064945082235" y="45" fill="black" font-size="14">4.5</text><line x1="778.0" y1="100" x2="778.0" y2="70" style="stroke:black;stroke-width:1" /><line x1="786.5" y1="100" x2="786.5" y2="70" style="stroke:black;stroke-width:1" /><line x1="794.75" y1="100" x2="794.75" y2="70" style="stroke:black;stroke-width:1" /><line x1="802.75" y1="100" x2="802.75" y2="70" style="stroke:black;stroke-width:1" /><line x1="810.5" y1="100" x2="810.5" y2="40" style="stroke:black;stroke-width:1" /><text x="807" y="34" fill="black" font-size="18">5</text><line x1="818.25" y1="100" x2="818.25" y2="70" style="stroke:black;stroke-width:1" /><line x1="826.0" y1="100" x2="826.0" y2="70" style="stroke:black;stroke-width:1" /><line x1="833.25" y1="100" x2="833.25" y2="70" style="stroke:black;stroke-width:1" /><line x1="840.75" y1="100" x2="840.75" y2="70" style="stroke:black;stroke-width:1" /><line x1="847.75" y1="100" x2="847.75" y2="50" style="stroke:black;stroke-width:1" /><text x="841.8416526552337" y="45" fill="black" font-size="14">5.5</text><line x1="855.0" y1="100" x2="855.0" y2="70" style="stroke:black;stroke-width:1" /><line x1="861.75" y1="100" x2="861.75" y2="70" style="stroke:black;stroke-width:1" /><line x1="868.5" y1="100" x2="868.5" y2="70" style="stroke:black;stroke-width:1" /><line x1="875.25" y1="100" x2="875.25" y2="70" style="stroke:black;stroke-width:1" /><line x1="881.75" y1="100" x2="881.75" y2="40" style="stroke:black;stroke-width:1" /><text x="878" y="34" fill="black" font-size="18">6</text><line x1="888.25" y1="100" x2="888.25" y2="70" style="stroke:black;stroke-width:1" /><line x1="894.75" y1="100" x2="894.75" y2="70" style="stroke:black;stroke-width:1" /><line x1="901.0" y1="100" x2="901.0" y2="70" style="stroke:black;stroke-width:1" /><line x1="907.0" y1="100" x2="907.0" y2="70" style="stroke:black;stroke-width:1" /><line x1="913.25" y1="100" x2="913.25" y2="50" style="stroke:black;stroke-width:1" /><text x="907.1372530889843" y="45" fill="black" font-size="14">6.5</text><line x1="919.0" y1="100" x2="919.0" y2="70" style="stroke:black;stroke-width:1" /><line x1="925.0" y1="100" x2="925.0" y2="70" style="stroke:black;stroke-width:1" /><line x1="930.75" y1="100" x2="930.75" y2="70" style="stroke:black;stroke-width:1" /><line x1="936.5" y1="100" x2="936.5" y2="70" style="stroke:black;stroke-width:1" /><line x1="942.0" y1="100" x2="942.0" y2="40" style="stroke:black;stroke-width:1" /><text x="938" y="34" fill="black" font-size="18">7</text><line x1="947.75" y1="100" x2="947.75" y2="70" style="stroke:black;stroke-width:1" /><line x1="953.0" y1="100" x2="953.0" y2="70" style="stroke:black;stroke-width:1" /><line x1="958.5" y1="100" x2="958.5" y2="70" style="stroke:black;stroke-width:1" /><line x1="963.75" y1="100" x2="963.75" y2="70" style="stroke:black;stroke-width:1" /><line x1="969.0" y1="100" x2="969.0" y2="50" style="stroke:black;stroke-width:1" /><text x="963.0703691629443" y="45" fill="black" font-size="14">7.5</text><line x1="974.25" y1="100" x2="974.25" y2="70" style="stroke:black;stroke-width:1" /><line x1="979.25" y1="100" x2="979.25" y2="70" style="stroke:black;stroke-width:1" /><line x1="984.5" y1="100" x2="984.5" y2="70" style="stroke:black;stroke-width:1" /><line x1="989.5" y1="100" x2="989.5" y2="70" style="stroke:black;stroke-width:1" /><line x1="994.25" y1="100" x2="994.25" y2="40" style="stroke:black;stroke-width:1" /><text x="990" y="34" fill="black" font-size="18">8</text><line x1="999.25" y1="100" x2="999.25" y2="70" style="stroke:black;stroke-width:1" /><line x1="1004.0" y1="100" x2="1004.0" y2="70" style="stroke:black;stroke-width:1" /><line x1="1008.75" y1="100" x2="1008.75" y2="70" style="stroke:black;stroke-width:1" /><line x1="1013.25" y1="100" x2="1013.25" y2="70" style="stroke:black;stroke-width:1" /><line x1="1018.0" y1="100" x2="1018.0" y2="50" style="stroke:black;stroke-width:1" /><text x="1011.9922652532777" y="45" fill="black" font-size="14">8.5</text><line x1="1022.5" y1="100" x2="1022.5" y2="70" style="stroke:black;stroke-width:1" /><line x1="1027.0" y1="100" x2="1027.0" y2="70" style="stroke:black;stroke-width:1" /><line x1="1031.5" y1="100" x2="1031.5" y2="70" style="stroke:black;stroke-width:1" /><line x1="1036.0" y1="100" x2="1036.0" y2="70" style="stroke:black;stroke-width:1" /><line x1="1040.25" y1="100" x2="1040.25" y2="40" style="stroke:black;stroke-width:1" /><text x="1036" y="34" fill="black" font-size="18">9</text><line x1="1044.75" y1="100" x2="1044.75" y2="70" style="stroke:black;stroke-width:1" /><line x1="1049.0" y1="100" x2="1049.0" y2="70" style="stroke:black;stroke-width:1" /><line x1="1053.25" y1="100" x2="1053.25" y2="70" style="stroke:black;stroke-width:1" /><line x1="1057.25" y1="100" x2="1057.25" y2="70" style="stroke:black;stroke-width:1" /><line x1="1061.5" y1="100" x2="1061.5" y2="50" style="stroke:black;stroke-width:1" /><text x="1055.4664768703772" y="45" fill="black" font-size="14">9.5</text><line x1="1065.5" y1="100" x2="1065.5" y2="70" style="stroke:black;stroke-width:1" /><line x1="1069.5" y1="100" x2="1069.5" y2="70" style="stroke:black;stroke-width:1" /><line x1="1073.5" y1="100" x2="1073.5" y2="70" style="stroke:black;stroke-width:1" /><line x1="1077.5" y1="100" x2="1077.5" y2="70" style="stroke:black;stroke-width:1" /><line x1="1081.5" y1="100" x2="1081.5" y2="30" style="stroke:black;stroke-width:1" /><text x="1075.5152321104142" y="20" fill="black" font-size="18">10</text></g><g transform="translate(0 320)"><text x="8.0" y="40" fill="black" font-size="24">D</text><text x="493.5" y="55" fill="black" font-size="16">&#960;</text><line x1="497.5" y1="0" x2="497.5" y2="40" style="stroke:black;stroke-width:1" /><text x="962.0" y="40" fill="black" font-size="16">x</text><line x1="50.0" y1="0" x2="50.0" y2="70" style="stroke:black;stroke-width:1" /><text x="46" y="95" fill="black" font-size="18">1</text><line x1="69.0" y1="0" x2="69.0" y2="20" style="stroke:black;stroke-width:1" /><line x1="87.25" y1="0" x2="87.25" y2="30" style="stroke:black;stroke-width:1" /><text x="81" y="40" fill="black" font-size="12">1.1</text><line x1="104.75" y1="0" x2="104.75" y2="20" style="stroke:black;stroke-width:1" /><line x1="121.25" y1="0" x2="121.25" y2="30" style="stroke:black;stroke-width:1" /><text x="115" y="40" fill="black" font-size="12">1.2</text><line x1="137.25" y1="0" x2="137.25" y2="20" style="stroke:black;stroke-width:1" /><line x1="152.5" y1="0" x2="152.5" y2="30" style="stroke:black;stroke-width:1" /><text x="147" y="40" fill="black" font-size="12">1.3</text><line x1="167.25" y1="0" x2="167.25" y2="20" style="stroke:black;stroke-width:1" /><line x1="181.5" y1="0" x2="181.5" y2="30" style="stroke:black;stroke-width:1" /><text x="176" y="40" fill="black" font-size="12">1.4</text><line x1="195.25" y1="0" x2="195.25" y2="20" style="stroke:black;stroke-width:1" /><line x1="208.5" y1="0" x2="208.5" y2="50" style="stroke:black;stroke-width:1" /><text x="202" y="65" fill="black" font-size="14">1.5</text><line x1="221.25" y1="0" x2="221.25" y2="20" style="stroke:black;stroke-width:1" /><line x1="233.75" y1="0" x2="233.75" y2="30" style="stroke:black;stroke-width:1" /><text x="228" y="40" fill="black" font-size="12">1.6</text><line x1="245.75" y1="0" x2="245.75" y2="20" style="stroke:black;stroke-width:1" /><line x1="257.5" y1="0" x2="257.5" y2="30" style="stroke:black;stroke-width:1" /><text x="251" y="40" fill="black" font-size="12">1.7</text><line x1="268.75" y1="0" x2="268.75" y2="20" style="stroke:black;stroke-width:1" /><line x1="279.75" y1="0" x2="279.75" y2="30" style="stroke:black;stroke-width:1" /><text x="274" y="40" fill="black" font-size="12">1.8</text><line x1="290.5" y1="0" x2="290.5" y2="20" style="stroke:black;stroke-width:1" /><line x1="301.0" y1="0" x2="301.0" y2="30" style="stroke:black;stroke-width:1" /><text x="295" y="40" fill="black" font-size="12">1.9</text><line x1="311.0" y1="0" x2="311.0" y2="20" style="stroke:black;stroke-width:1" /><line x1="321.0" y1="0" x2="321.0" y2="60" style="stroke:black;stroke-width:1" /><text x="317" y="80" fill="black" font-size="18">2</text><line x1="330.5" y1="0" x2="330.5" y2="20" style="stroke:black;stroke-width:1" /><line x1="340.0" y1="0" x2="340.0" y2="30" style="stroke:black;stroke-width:1" /><line x1="349.25" y1="0" x2="349.25" y2="20" style="stroke:black;stroke-width:1" /><line x1="358.25" y1="0" x2="358.25" y2="30" style="stroke:black;stroke-width:1" /><line x1="367.0" y1="0" x2="367.0" y2="20" style="stroke:black;stroke-width:1" /><line x1="375.5" y1="0" x2="375.5" y2="30" style="stroke:black;stroke-width:1" /><line x1="384.0" y1="0" x2="384.0" y2="20" style="stroke:black;stroke-width:1" /><line x1="392.25" y1="0" x2="392.25" y2="30" style="stroke:black;stroke-width:1" /><line x1="400.25" y1="0" x2="400.25" y2="20" style="stroke:black;stroke-width:1" /><line x1="408.25" y1="0" x2="408.25" y2="50" style="stroke:black;stroke-width:1" /><text x="402" y="65" fill="black" font-size="14">2.5</text><line x1="416.0" y1="0" x2="416.0" y2="20" style="stroke:black;stroke-width:1" /><line x1="423.5" y1="0" x2="423.5" y2="30" style="stroke:black;stroke-width:1" /><line x1="431.0" y1="0" x2="431.0" y2="20" style="stroke:black;stroke-width:1" /><line x1="438.25" y1="0" x2="438.25" y2="30" style="stroke:black;stroke-width:1" /><line x1="445.5" y1="0" x2="445.5" y2="20" style="stroke:black;stroke-width:1" /><line x1="452.5" y1="0" x2="452.5" y2="30" style="stroke:black;stroke-width:1" /><line x1="459.25" y1="0" x2="459.25" y2="20" style="stroke:black;stroke-width:1" /><line x1="466.25" y1="0" x2="466.25" y2="30" style="stroke:black;stroke-width:1" /><line x1="472.75" y1="0" x2="472.75" y2="20" style="stroke:black;stroke-width:1" /><line x1="479.5" y1="0" x2="479.5" y2="60" style="stroke:black;stroke-width:1" /><text x="475" y="80" fill="black" font-size="18">3</text><line x1="485.75" y1="0" x2="485.75" y2="20" style="stroke:black;stroke-width:1" /><line x1="492.25" y1="0" x2="492.25" y2="30" style="stroke:black;stroke-width:1" /><line x1="498.5" y1="0" x2="498.5" y2="20" style="stroke:black;stroke-width:1" /><line x1="504.75" y1="0" x2="504.75" y2="30" style="stroke:black;stroke-width:1" /><line x1="510.75" y1="0" x2="510.75" y2="20" style="stroke:black;stroke-width:1" /><line x1="516.75" y1="0" x2="516.75" y2="30" style="stroke:black;stroke-width:1" /><line x1="522.5" y1="0" x2="522.5" y2="20" style="stroke:black;stroke-width:1" /><line x1="528.25" y1="0" x2="528.25" y2="30" style="stroke:black;stroke-width:1" /><line x1="534.0" y1="0" x2="534.0" y2="20" style="stroke:black;stroke-width:1" /><line x1="539.75" y1="0" x2="539.75" y2="50" style="stroke:black;stroke-width:1" /><text x="534" y="65" fill="black" font-size="14">3.5</text><line x1="545.25" y1="0" x2="545.25" y2="20" style="stroke:black;stroke-width:1" /><line x1="550.75" y1="0" x2="550.75" y2="30" style="stroke:black;stroke-width:1" /><line x1="556.0" y1="0" x2="556.0" y2="20" style="stroke:black;stroke-width:1" /><line x1="561.5" y1="0" x2="561.5" y2="30" style="stroke:black;stroke-width:1" /><line x1="566.75" y1="0" x2="566.75" y2="20" style="stroke:black;stroke-width:1" /><line x1="571.75" y1="0" x2="571.75" y2="30" style="stroke:black;stroke-width:1" /><line x1="577.0" y1="0" x2="577.0" y2="20" style="stroke:black;stroke-width:1" /><line x1="582.0" y1="0" x2="582.0" y2="30" style="stroke:black;stroke-width:1" /><line x1="587.0" y1="0" x2="587.0" y2="20" style="stroke:black;stroke-width:1" /><line x1="591.75" y1="0" x2="591.75" y2="60" style="stroke:black;stroke-width:1" /><text x="588" y="80" fill="black" font-size="18">4</text><line x1="601.5" y1="0" x2="601.5" y2="30" style="stroke:black;stroke-width:1" /><line x1="611.0" y1="0" x2="611.0" y2="30" style="stroke:black;stroke-width:1" /><line x1="620.0" y1="0" x2="620.0" y2="30" style="stroke:black;stroke-width:1" /><line x1="629.0" y1="0" x2="629.0" y2="30" style="stroke:black;stroke-width:1" /><line x1="638.0" y1="0" x2="638.0" y2="50" style="stroke:black;stroke-width:1" /><text x="632" y="65" fill="black" font-size="14">4.5</text><line x1="646.5" y1="0" x2="646.5" y2="30" style="stroke:black;stroke-width:1" /><line x1="655.0" y1="0" x2="655.0" y2="30" style="stroke:black;stroke-width:1" /><line x1="663.0" y1="0" x2="663.0" y2="30" style="stroke:black;stroke-width:1" /><line x1="671.25" y1="0" x2="671.25" y2="30" style="stroke:black;stroke-width:1" /><line x1="679.0" y1="0" x2="679.0" y2="60" style="stroke:black;stroke-width:1" /><text x="675" y="80" fill="black" font-size="18">5</text><line x1="686.75" y1="0" x2="686.75" y2="30" style="stroke:black;stroke-width:1" /><line x1="694.5" y1="0" x2="694.5" y2="30" style="stroke:black;stroke-width:1" /><line x1="701.75" y1="0" x2="701.75" y2="30" style="stroke:black;stroke-width:1" /><line x1="709.25" y1="0" x2="709.25" y2="30" style="stroke:black;stroke-width:1" /><line x1="716.25" y1="0" x2="716.25" y2="50" style="stroke:black;stroke-width:1" /><text x="710" y="65" fill="black" font-size="14">5.5</text><line x1="723.25" y1="0" x2="723.25" y2="30" style="stroke:black;stroke-width:1" /><line x1="730.25" y1="0" x2="730.25" y2="30" style="stroke:black;stroke-width:1" /><line x1="737.0" y1="0" x2="737.0" y2="30" style="stroke:black;stroke-width:1" /><line x1="743.75" y1="0" x2="743.75" y2="30" style="stroke:black;stroke-width:1" /><line x1="750.25" y1="0" x2="750.25" y2="60" style="stroke:black;stroke-width:1" /><text x="746" y="80" fill="black" font-size="18">6</text><line x1="756.75" y1="0" x2="756.75" y2="30" style="stroke:black;stroke-width:1" /><line x1="763.25" y1="0" x2="763.25" y2="30" style="stroke:black;stroke-width:1" /><line x1="769.5" y1="0" x2="769.5" y2="30" style="stroke:black;stroke-width:1" /><line x1="775.5" y1="0" x2="775.5" y2="30" style="stroke:black;stroke-width:1" /><line x1="781.5" y1="0" x2="781.5" y2="50" style="stroke:black;stroke-width:1" /><text x="776" y="65" fill="black" font-size="14">6.5</text><line x1="787.5" y1="0" x2="787.5" y2="30" style="stroke:black;stroke-width:1" /><line x1="793.5" y1="0" x2="793.5" y2="30" style="stroke:black;stroke-width:1" /><line x1="799.25" y1="0" x2="799.25" y2="30" style="stroke:black;stroke-width:1" /><line x1="805.0" y1="0" x2="805.0" y2="30" style="stroke:black;stroke-width:1" /><line x1="810.5" y1="0" x2="810.5" y2="60" style="stroke:black;stroke-width:1" /><text x="807" y="80" fill="black" font-size="18">7</text><line x1="816.25" y1="0" x2="816.25" y2="30" style="stroke:black;stroke-width:1" /><line x1="821.5" y1="0" x2="821.5" y2="30" style="stroke:black;stroke-width:1" /><line x1="827.0" y1="0" x2="827.0" y2="30" style="stroke:black;stroke-width:1" /><line x1="832.25" y1="0" x2="832.25" y2="30" style="stroke:black;stroke-width:1" /><line x1="837.5" y1="0" x2="837.5" y2="50" style="stroke:black;stroke-width:1" /><text x="832" y="65" fill="black" font-size="14">7.5</text><line x1="842.75" y1="0" x2="842.75" y2="30" style="stroke:black;stroke-width:1" /><line x1="847.75" y1="0" x2="847.75" y2="30" style="stroke:black;stroke-width:1" /><line x1="853.0" y1="0" x2="853.0" y2="30" style="stroke:black;stroke-width:1" /><line x1="857.75" y1="0" x2="857.75" y2="30" style="stroke:black;stroke-width:1" /><line x1="862.75" y1="0" x2="862.75" y2="60" style="stroke:black;stroke-width:1" /><text x="859" y="80" fill="black" font-size="18">8</text><line x1="867.75" y1="0" x2="867.75" y2="30" style="stroke:black;stroke-width:1" /><line x1="872.5" y1="0" x2="872.5" y2="30" style="stroke:black;stroke-width:1" /><line x1="877.25" y1="0" x2="877.25" y2="30" style="stroke:black;stroke-width:1" /><line x1="881.75" y1="0" x2="881.75" y2="30" style="stroke:black;stroke-width:1" /><line x1="886.5" y1="0" x2="886.5" y2="50" style="stroke:black;stroke-width:1" /><text x="880" y="65" fill="black" font-size="14">8.5</text><line x1="891.0" y1="0" x2="891.0" y2="30" style="stroke:black;stroke-width:1" /><line x1="895.5" y1="0" x2="895.5" y2="30" style="stroke:black;stroke-width:1" /><line x1="900.0" y1="0" x2="900.0" y2="30" style="stroke:black;stroke-width:1" /><line x1="904.5" y1="0" x2="904.5" y2="30" style="stroke:black;stroke-width:1" /><line x1="908.75" y1="0" x2="908.75" y2="60" style="stroke:black;stroke-width:1" /><text x="905" y="80" fill="black" font-size="18">9</text><line x1="913.25" y1="0" x2="913.25" y2="30" style="stroke:black;stroke-width:1" /><line x1="917.5" y1="0" x2="917.5" y2="30" style="stroke:black;stroke-width:1" /><line x1="921.75" y1="0" x2="921.75" y2="30" style="stroke:black;stroke-width:1" /><line x1="925.75" y1="0" x2="925.75" y2="30" style="stroke:black;stroke-width:1" /><line x1="930.0" y1="0" x2="930.0" y2="50" style="stroke:black;stroke-width:1" /><text x="924" y="65" fill="black" font-size="14">9.5</text><line x1="934.0" y1="0" x2="934.0" y2="30" style="stroke:black;stroke-width:1" /><line x1="938.0" y1="0" x2="938.0" y2="30" style="stroke:black;stroke-width:1" /><line x1="942.0" y1="0" x2="942.0" y2="30" style="stroke:black;stroke-width:1" /><line x1="946.0" y1="0" x2="946.0" y2="30" style="stroke:black;stroke-width:1" /><line x1="950.0" y1="0" x2="950.0" y2="70" style="stroke:black;stroke-width:1" /><text x="944" y="95" fill="black" font-size="18">10</text></g></svg>